<mxfile host="65bd71144e">
    <diagram id="nZh_JABBlfR5w9_RORMB" name="Page-1">
        <mxGraphModel dx="1025" dy="476" grid="1" gridSize="10" guides="0" tooltips="1" connect="1" arrows="1" fold="1" page="1" pageScale="1" pageWidth="827" pageHeight="1169" math="0" shadow="0">
            <root>
                <mxCell id="0"/>
                <mxCell id="1" parent="0"/>
                <mxCell id="33" style="shape=connector;rounded=1;html=1;exitX=1;exitY=0.5;exitDx=0;exitDy=0;entryX=0;entryY=0.5;entryDx=0;entryDy=0;labelBackgroundColor=default;fontFamily=Helvetica;fontSize=11;fontColor=default;endArrow=classic;strokeColor=#6c8ebf;fillColor=#dae8fc;" parent="1" source="34" target="38" edge="1">
                    <mxGeometry relative="1" as="geometry"/>
                </mxCell>
                <mxCell id="34" value="OUT" style="rounded=0;whiteSpace=wrap;html=1;" parent="1" vertex="1">
                    <mxGeometry x="1880" y="180" width="40" height="20" as="geometry"/>
                </mxCell>
                <mxCell id="35" value="IN" style="rounded=0;whiteSpace=wrap;html=1;" parent="1" vertex="1">
                    <mxGeometry x="1880" y="200" width="40" height="20" as="geometry"/>
                </mxCell>
                <mxCell id="36" style="shape=connector;rounded=1;html=1;exitX=0;exitY=0.5;exitDx=0;exitDy=0;labelBackgroundColor=default;fontFamily=Helvetica;fontSize=11;fontColor=default;endArrow=classic;strokeColor=#6c8ebf;fillColor=#dae8fc;entryX=1;entryY=0.5;entryDx=0;entryDy=0;" parent="1" source="37" target="35" edge="1">
                    <mxGeometry relative="1" as="geometry"/>
                </mxCell>
                <mxCell id="37" value="OUT" style="rounded=0;whiteSpace=wrap;html=1;" parent="1" vertex="1">
                    <mxGeometry x="1960" y="180" width="40" height="20" as="geometry"/>
                </mxCell>
                <mxCell id="38" value="IN" style="rounded=0;whiteSpace=wrap;html=1;" parent="1" vertex="1">
                    <mxGeometry x="1960" y="200" width="40" height="20" as="geometry"/>
                </mxCell>
                <mxCell id="39" value="S" style="rounded=0;whiteSpace=wrap;html=1;" parent="1" vertex="1">
                    <mxGeometry x="1960" y="160" width="40" height="20" as="geometry"/>
                </mxCell>
                <mxCell id="40" value="M" style="rounded=0;whiteSpace=wrap;html=1;" parent="1" vertex="1">
                    <mxGeometry x="1880" y="160" width="40" height="20" as="geometry"/>
                </mxCell>
                <mxCell id="41" style="shape=connector;rounded=1;html=1;exitX=1;exitY=0.5;exitDx=0;exitDy=0;entryX=0;entryY=0.5;entryDx=0;entryDy=0;labelBackgroundColor=default;fontFamily=Helvetica;fontSize=11;fontColor=default;endArrow=classic;strokeColor=#6c8ebf;fillColor=#dae8fc;" parent="1" source="42" target="46" edge="1">
                    <mxGeometry relative="1" as="geometry"/>
                </mxCell>
                <mxCell id="42" value="0" style="rounded=0;whiteSpace=wrap;html=1;" parent="1" vertex="1">
                    <mxGeometry x="1880" y="240" width="40" height="20" as="geometry"/>
                </mxCell>
                <mxCell id="43" value="0" style="rounded=0;whiteSpace=wrap;html=1;" parent="1" vertex="1">
                    <mxGeometry x="1880" y="260" width="40" height="20" as="geometry"/>
                </mxCell>
                <mxCell id="44" style="shape=connector;rounded=1;html=1;exitX=0;exitY=0.5;exitDx=0;exitDy=0;labelBackgroundColor=default;fontFamily=Helvetica;fontSize=11;fontColor=default;endArrow=classic;strokeColor=#6c8ebf;fillColor=#dae8fc;entryX=1;entryY=0.5;entryDx=0;entryDy=0;" parent="1" source="45" target="43" edge="1">
                    <mxGeometry relative="1" as="geometry"/>
                </mxCell>
                <mxCell id="45" value="0" style="rounded=0;whiteSpace=wrap;html=1;" parent="1" vertex="1">
                    <mxGeometry x="1960" y="240" width="40" height="20" as="geometry"/>
                </mxCell>
                <mxCell id="46" value="0" style="rounded=0;whiteSpace=wrap;html=1;" parent="1" vertex="1">
                    <mxGeometry x="1960" y="260" width="40" height="20" as="geometry"/>
                </mxCell>
                <mxCell id="47" value="" style="endArrow=none;dashed=1;html=1;rounded=1;labelBackgroundColor=default;fontFamily=Helvetica;fontSize=11;fontColor=default;strokeColor=#6c8ebf;fillColor=#dae8fc;shape=connector;elbow=vertical;" parent="1" edge="1">
                    <mxGeometry width="50" height="50" relative="1" as="geometry">
                        <mxPoint x="1860" y="229.76999999999998" as="sourcePoint"/>
                        <mxPoint x="2020" y="229.76999999999998" as="targetPoint"/>
                    </mxGeometry>
                </mxCell>
                <mxCell id="48" value="COM slot started, slave&amp;nbsp;not ready" style="text;html=1;strokeColor=none;fillColor=none;align=left;verticalAlign=middle;whiteSpace=wrap;rounded=0;fontFamily=Helvetica;fontSize=11;fontColor=default;" parent="1" vertex="1">
                    <mxGeometry x="2020" y="210" width="100" height="40" as="geometry"/>
                </mxCell>
                <mxCell id="49" style="shape=connector;rounded=1;html=1;exitX=1;exitY=0.5;exitDx=0;exitDy=0;entryX=0;entryY=0.5;entryDx=0;entryDy=0;labelBackgroundColor=default;fontFamily=Helvetica;fontSize=11;fontColor=default;endArrow=classic;strokeColor=#6c8ebf;fillColor=#dae8fc;" parent="1" source="50" target="54" edge="1">
                    <mxGeometry relative="1" as="geometry"/>
                </mxCell>
                <mxCell id="50" value="0" style="rounded=0;whiteSpace=wrap;html=1;" parent="1" vertex="1">
                    <mxGeometry x="1880" y="300" width="40" height="20" as="geometry"/>
                </mxCell>
                <mxCell id="51" value="0x5A" style="rounded=0;whiteSpace=wrap;html=1;" parent="1" vertex="1">
                    <mxGeometry x="1880" y="320" width="40" height="20" as="geometry"/>
                </mxCell>
                <mxCell id="52" style="shape=connector;rounded=1;html=1;exitX=0;exitY=0.5;exitDx=0;exitDy=0;labelBackgroundColor=default;fontFamily=Helvetica;fontSize=11;fontColor=default;endArrow=classic;strokeColor=#6c8ebf;fillColor=#dae8fc;entryX=1;entryY=0.5;entryDx=0;entryDy=0;" parent="1" source="53" target="51" edge="1">
                    <mxGeometry relative="1" as="geometry"/>
                </mxCell>
                <mxCell id="53" value="0x5A" style="rounded=0;whiteSpace=wrap;html=1;" parent="1" vertex="1">
                    <mxGeometry x="1960" y="300" width="40" height="20" as="geometry"/>
                </mxCell>
                <mxCell id="54" value="0" style="rounded=0;whiteSpace=wrap;html=1;" parent="1" vertex="1">
                    <mxGeometry x="1960" y="320" width="40" height="20" as="geometry"/>
                </mxCell>
                <mxCell id="55" value="" style="endArrow=none;dashed=1;html=1;rounded=1;labelBackgroundColor=default;fontFamily=Helvetica;fontSize=11;fontColor=default;strokeColor=#6c8ebf;fillColor=#dae8fc;shape=connector;elbow=vertical;" parent="1" edge="1">
                    <mxGeometry width="50" height="50" relative="1" as="geometry">
                        <mxPoint x="1860" y="289.77" as="sourcePoint"/>
                        <mxPoint x="2020" y="289.77" as="targetPoint"/>
                    </mxGeometry>
                </mxCell>
                <mxCell id="56" value="send clientready" style="text;html=1;strokeColor=none;fillColor=none;align=left;verticalAlign=middle;whiteSpace=wrap;rounded=0;fontFamily=Helvetica;fontSize=11;fontColor=default;" parent="1" vertex="1">
                    <mxGeometry x="2020" y="270" width="100" height="40" as="geometry"/>
                </mxCell>
                <mxCell id="57" value="" style="endArrow=none;dashed=1;html=1;rounded=1;labelBackgroundColor=default;fontFamily=Helvetica;fontSize=11;fontColor=default;strokeColor=#6c8ebf;fillColor=#dae8fc;shape=connector;elbow=vertical;" parent="1" edge="1">
                    <mxGeometry width="50" height="50" relative="1" as="geometry">
                        <mxPoint x="1860" y="350" as="sourcePoint"/>
                        <mxPoint x="2020" y="350" as="targetPoint"/>
                    </mxGeometry>
                </mxCell>
                <mxCell id="58" style="shape=connector;rounded=1;html=1;exitX=1;exitY=0.5;exitDx=0;exitDy=0;entryX=0;entryY=0.5;entryDx=0;entryDy=0;labelBackgroundColor=default;fontFamily=Helvetica;fontSize=11;fontColor=default;endArrow=classic;fillColor=#dae8fc;strokeColor=#6c8ebf;" parent="1" source="59" target="63" edge="1">
                    <mxGeometry relative="1" as="geometry"/>
                </mxCell>
                <mxCell id="59" value="0x5A" style="rounded=0;whiteSpace=wrap;html=1;" parent="1" vertex="1">
                    <mxGeometry x="1880" y="360" width="40" height="20" as="geometry"/>
                </mxCell>
                <mxCell id="60" value="C&amp;gt;2" style="rounded=0;whiteSpace=wrap;html=1;" parent="1" vertex="1">
                    <mxGeometry x="1880" y="380" width="40" height="20" as="geometry"/>
                </mxCell>
                <mxCell id="61" style="shape=connector;rounded=1;html=1;exitX=0;exitY=0.5;exitDx=0;exitDy=0;labelBackgroundColor=default;fontFamily=Helvetica;fontSize=11;fontColor=default;endArrow=classic;strokeColor=#6c8ebf;fillColor=#dae8fc;entryX=1;entryY=0.5;entryDx=0;entryDy=0;" parent="1" source="62" target="60" edge="1">
                    <mxGeometry relative="1" as="geometry"/>
                </mxCell>
                <mxCell id="62" value="0x7E" style="rounded=0;whiteSpace=wrap;html=1;" parent="1" vertex="1">
                    <mxGeometry x="1960" y="360" width="40" height="20" as="geometry"/>
                </mxCell>
                <mxCell id="63" value="0x5A" style="rounded=0;whiteSpace=wrap;html=1;" parent="1" vertex="1">
                    <mxGeometry x="1960" y="380" width="40" height="20" as="geometry"/>
                </mxCell>
                <mxCell id="65" value="clientready recieved, replying" style="text;html=1;strokeColor=none;fillColor=none;align=right;verticalAlign=middle;whiteSpace=wrap;rounded=0;fontFamily=Helvetica;fontSize=11;fontColor=default;" parent="1" vertex="1">
                    <mxGeometry x="1750" y="330" width="110" height="40" as="geometry"/>
                </mxCell>
                <mxCell id="67" value="" style="rounded=1;whiteSpace=wrap;html=1;fontFamily=Helvetica;fontSize=11;fontColor=default;fillColor=none;dashed=1;" parent="1" vertex="1">
                    <mxGeometry x="40" y="630" width="1280" height="60" as="geometry"/>
                </mxCell>
                <mxCell id="68" value="" style="shape=image;verticalLabelPosition=bottom;labelBackgroundColor=#ffffff;verticalAlign=top;aspect=fixed;imageAspect=0;image=data:image/png,iVBORw0KGgoAAAANSUhEUgAAAGAAAABgCAYAAADimHc4AAAABmJLR0QA/wD/AP+gvaeTAAAKo0lEQVRYCe1ZC2wUxxn+Z+98NiCTFFMMPmOUNCJNUVWKWkKgfgEx7wC2ScCxk6pPqSHGThOaUCIOtUoDQbVBkCip1Kq1TVsc+2goFNQUAzaEkBQUtYKCYpwmobj40Qaj2mff7fSbg7OW4+529/bu2DO7+v/defzz+r6Z+XdniazLQsBCwELAQsBCwELAQsBCwELAQsBCwELAQsBCwELAQuBOQYDdKQON5Thr6ppmMMY2eTy28h99e3mfkbotAnSit6O+aZZM7BCKjYWetvuoaO2TxT0IRyVSVKXu0EJB4AsUZngl9uedv27OEJFo1CJAI2ohwL9ekvGvem309rbd+8ZfT9B3H/FbUG1902NErAGw2KDqwuj5qseLtygNw4KvMOJEH/iklPnPli3rViSrBkf0Cqitd5frAl/AxellOFkX3bgQnoE9/wCiYs/HI7RgJn/Fzod2h84Nn4py4TOTOaemzr2GMV6HMdiguoVzvtnG6CDADzhctTo6uUxzq58oPqdmqMwfkQTo3naUiCjDnDzEKFWZFCYcFfiirhFHQG1d0yPE2JsYXAo0ERI1+KJzSekDXC5XyH7X1jcvBfiNGFjCwLdJcqHebQf9G5ao9sfh0rch8Mj69ek9ffzwlx7MzTz7bmtboAvbG95cDIfbjLgDmgjpFOA/XVb6DyONJRUBAnzHgP0gBjwbOg8kDAoSan7TPBczfy/S0qCJkF446YXrykv/ZrSxpPEBQeAPjzvNkfrK16Z/+ftIGAuNu3BifXbJN9PozA90NOReGsg0yzMc+KJ/A4Oe5y60d/xVhBOhjHi618dWx6ot06+ASOArQZiQkdEy9Qv3FCrT4hnGFrS5uqLERQYv06+AFI9dHAuIPT/iUK/09BS0f/RP8dEU0S5WmeI4Gl/JLjJ4mZ4AH3NsYETvaRgnu3yla8GFjo4TGmxjYiJIMFqR6QnYW+v675DkKNJIAl3p6pl94eLFFqPAJKq86QkQQOgmobu38PzFi0coCa6kIEDgqJeEru7egmQgIWkIGKkkJBUBARJeW/SLd+77XKeIqqrZV0LSEcCPpG7NGH21cmNuE+kiocOcPiGpCBDg43z+OTHtx6QMkC4SuuATTEhC0hCgBF8QIHQkkJAUBIQCXxAgVJCwIbe5I8Xm+0DE1bTLZCvB9AREAt8PNqP29BRPfj8fVaD1Y02Q8GHHRyf95Y3duLHiRKYmQAv4xKVClt//SeA7AYCcgqpKZ1f3rAsXO46qGoY38DJGZeGzteUwbWbGrZZ9zzU6NW1wq8/HN7l3/axHrUZ+NPUV2DwLDS2Y+QHwlQYrqlx32+VBcSg3U5keLjxhfMbRqffekx8uP0z6ECdeVl1eIv49hzHRlpwQAoKOlM/LEhU21750OVwXowU/UF+cSRjAUXQpjqL3B9oz8ow7AQL8VI/9T5zTHEVHw5KAbWcZMXpLYRsc/IS8VMjmedqDM5TxOJHQzzgVr6soPqhsy0g4rj4gDPiiv/dLMrUUV22YJCI3ab7nj4jvgt4qYtshaY4a+KKg8AleybEAYU0+4Up3T76KT7gmSbQoluCjb5hr4h4HjQC+srWQKwGrhdGx1J0w/AH0ugjwbzjc6wna7rpXQkbGMfxZywuq/SqTaMm6suK2oHTD0bisgFWrVtlSB2zNAFK57YTqrFgJB1Y+9UKGMhNvF5zyPGuR9iqUME3aQzlcf57KLbASUuxeTd8J+LOWh3/MxxTV9sqyPC8e4Is2JHGLtTY2Nvo4sd+jXhmqJtNtNnY8eDvyk/BvTyUKbyPGisSrJsJRibv0Jecbi1+fdN+4y5rKK0jolmzy/GeeKH1fU8EojOLqhEsrN3wHfXodqoXokNsRyhoS3uaYRj72F1SS+b+hVPpJWwl92DsJUXVJczh+Xr/N9UN1y+gtbNEXVS959t3W01/PLxoa8noLYc2gkWQ83jCWfvGh3KZzJ1uvRTLUmqcEX5TBcQXNzr5Af++aTL396SIponp9voemPZjrxThaIxoayLQZKKtadHu9e97EzPGvYjt6/2pfXzYKJIyEYPDRtl/0koBCc+NJQtwI2FHvLsLX4h/gQcfcPTY9hxOdSBQJ4cAHmH4RJDzw+csvHmyfPh4JmVA18U3Lmbj77NmzGIaaqb58LXuzvhphXVPnXiET34fgaKhfpjiz5kx2TnoHES2OWbwdhf5OQAWRRA18f1lGz2QvufRTNuDLQ/wUNLxweouNcywVLxbhjaLPiTkBNQ3NxYxx8QbkCO7WFKdzTo5z4gmky1A18ZOweu36LDXDQP4N8A8jHn5WA3yW56mBDTW+seUzkFCEcGgSBPgZjlWNLtcgbOIiMSVge0NTBRzpHvTUAQ0pOc7sb+ghwSvZD2shQQH+hJANi0QF+CIqNCwJCQBftB8zAmoa3N/knP0Klar6lViTEC346KtfbiEhQeCLxmNCQE1981OM81+iQlXwYeOXmJLgZU+i0vAzn/jGwLYDu5AiSEhJcSxB5i5m718dz20HbQyL2mvhsGG4wPY69zrOuNhTo6rr40uftn18qXM26tcyGc7bZe/c3+3c+i/YDwuOPG49Owrkhth2AllmeGoZdMR+GgFfVCxWwmTnxBaEZaia3B/KJ/iPLZRnR4FaTA6+6KZhAlBJVDMf5YZlijN7nlHHPEwCo9f8FTOqVtt2/Ha3+RYLAmIyBLEScpyTjqMyYyuh0/M06lgO8GvxNL2YhgCBVI7TmWuYhEdx9JbvifRHTTRlGjUVAQKVWJAg6kkWNR0BArg7iQRTEhAgAWdHhnyCqMfsaloCBHA4O4JPyGpDOGrHjLKmFlMTIJDLcWblQTWTMCTZW7ScHYm6zaCmJ0CABAI0k4CPkqnJREJSEDCSSTBOAKctAqBEqFgJWZmZR9EWh0YURjQVxxY/jmhkgkzDBFRVFD/POd+cqLHcO2VyYU5WVivai+iYGdE+/Mmqhp2pxRaL3h1y7zmyYOWjDFcBJeC6a2z6FOLU+llf32Q0B6xxVwgS9tE4R2mijpQVTesOGl4BgRZxGLYfoHgC8Xg/c7Kzpo8aNfoFtHPTSkgm8NF3igkBNXXuAiJqIUapeCZC/iPZ5IK6LRu34l/Ad9Ggn4RkAx/9JsNb0I7dzflEfD8RGyMqTID2cYkWVZWVvCfaOneq9cwDM3M/BfiMZThWJcO2I/odUPQ7ENT/FODLckLBv8aJL6wuLzke3FuXyyVB/SshOM/M8agJuA3gD+Dv27Lqx0veNjOgevsWlQ/QCX6/3k7dYs/JIxFbPtLAF+PU7QNqG5ry4PgOaNzze4WzlGXqNPCKOsSJPVZVsRJ+RnR5ZKld73AYl17EPjxGQ7k+2C6rXFN8BrZnauqaCCRsQliPeImzNdUVK/fqKZRMtrq3ILxplmCAJ6GRRMz8/HUVK04EjKorSlw6v5hlxvi3MPObAnWMxGdUTnhH/YGxMg0cAiCzoMEiwJ9fuaZUzPzgPCsehIDuFSDKV5YvvipR2gKEg1dCL2b5wxb4QEajREWAqFuQMODwLkT4JFSIH3xsNadFxFJtCES1BSmrfnnPnrvSBu2/xczfaIGvRMYKWwhYCFgIWAhYCFgIWAhYCFgIWAhYCFgIWAhYCFgIWAhYCNyMwP8By+wnhKJ02L0AAAAASUVORK5CYII=;" parent="1" vertex="1">
                    <mxGeometry x="260" y="1000" width="20" height="20" as="geometry"/>
                </mxCell>
                <mxCell id="69" value="" style="shape=image;verticalLabelPosition=bottom;labelBackgroundColor=#ffffff;verticalAlign=top;aspect=fixed;imageAspect=0;image=data:image/png,iVBORw0KGgoAAAANSUhEUgAAAGAAAABgCAYAAADimHc4AAAABmJLR0QA/wD/AP+gvaeTAAAJZUlEQVRYCe2ZbXBUVxnHn+fui6AtJuHFcUZntIU6piFModZYLYRSUosIZJNo2SZUxw/OdGiS7WhlqEy36lQ76mQD+MUPapsEPoRsGMvwMrRQWqylVDokKUESWj8ytgmbF4aE7N7j8ywsXTe7d+/d+5Ld5Ow8z+6995zznHN+/3te7l0A+ZEEJAFJQBKQBCQBSUASkAQkAUlAEpAEJAFJQBKYKwRwrnTUyn62tHWtRMTnJydd9b/4yeYxM7GlAAbp7W7vqlABj1GxBeTn3DGo2v6kb4iOczIlp1JztFAKfKawMqrg8b0vhxfySS4uBdBJLQ38myVR3Bd1wWt/2PfqopsXjH3LKUgHr4zwk8oKgPMxxfPIz/zf/yTpctZDOQKyIOIFl+b8w5SN53z6SW90J69wi6l96VMzX5UCZGYDfOfTbuckZSkmz2ZXRAyasmVKTSfhUi/JcybA8OnOT+x2+JKWXxEqPBzY5uvXypQubdYJEGrv+iEAdlBnXeTZDWFH8xO+l5IztuwLfwtVOErXNKcdSmfLGT4XnlVTUKi9u94QfCYg4Hc0zwfh1ifU0bUaVXGcTnXBdynq2lzufIoft1kzAlraurciijbqlYvcsAkhXkAFToAAWnDxczoCXGH4T/trL+rImzHLrBDA8LSTEQd8SEl3kWezYRJsfaCh5ly2jNnSC16AUFvXJkA8QB31kJs3hP/QKPgKZP5YcucnwiuJg3z+DQaDadsZag9vJPid1HZr4FMghi+ARODj6W4pfA6f03zJBZ3yTc8+e+fQmDhR+s2HvnDhzFunE/W2dhzYQAtumM695JYaTQtFCPgRBU3e/1sOn+JDXgvA8L0T7qPU0AfJ15EIN1iEllfCD9Odf5CuzSO3y4qTRLAFPjecxOaf/PMU+LcbWHTHnb8vK/3aT+nCAnL7DfGCosTqG7fWvm9HZWnnVjsqMhIzE3yOERkf+/nQ8NV/8bEjLkRpLIqb7aor70aAFvxkCF9fevfJhSXFa5Ov2XlM284XaNsZBIs/eTcCPJNufi3Ac75mV/sHL1dGIhF+V6OZz6pEein3fPITs1Vx806AGHp3IsBZHR3EDwYuPxoZGXlbR15LsrAIlgRKCpJ3AhwMBSNTirdKjwg0LUDfvwceHIpcPZnUp4I6nHEB6gKB+bVP73y5LrBjaYKcERG4TP+ly2uHIpE3oAA/MyoAL7igzj8OCNuEiv+oCey6N8HQuAiDlYUowowJwPA/M+k+IgR8Ow5d4BJUoyfmmggzIgDDpyfcw7fhxxWgrzkoguMC1D0VvIPhE+7vkE83y0QYeQMK4OO4AMI9tZ+4pIdPCXFjEWKxo+YW5gFaE/JfBOcFQLGXIE+QZ7Mv8cJc3bizLJHR+MKc/yI4LkBX64vHBMIWgppdBBoJLhSvz2YRHBeAwAOLsGTxkkYFFUdEuDgwWBkZHX2H6zbpwmT5acVnRAB+n3/PV7/c8sB95QMutzkRqEfvkmta/In54qWK4auRU5oZtROjiODXzmI8FY0XMVci1BZeTw9eBynKZ8khGo32nu3pWRaLqvP4XNNR/DcmcF337hf7Evm2NAeL3OoNfin3QOKa1m/psqWnSoqL1mjlSZM2JUD4A/U1B9Kkmbrk6AgItXVtota+Sh6HT7/gdruX31++fNDMSIgq3kcp1rvkWe3CwOAagyNhgkZQtR3wubGOjYCWjrAPBeynSr3k02wqOtX3Xk/v0jwbCdepzb6mBt/RaQ226IIjAoTau+sBxN8AtP+DzjMRxhUFNjb6faeo3baZ7VNQa3v4ST3wuYcet6fM8ekoMvIm153io6jAY3bD5zoV/rLLQ+1dTwmAv1J8F7kuc1yESwOrh/9fhGFVVdc1+X2ndTXYZCY0WT5j8VBHuBEEhChDTnU4Ph3ds+zNkqLPlyoutapxa+371G5HzL4RIGAX9SAn+FQOeCSsKivvU1w4weeanuGJGSdiVVRO1+6of2BwdW//xVechE9tA/sE4Ogm3et13/+NFeU5b1E7//zSiF4RaKsJI2Pjz9Q17nzOZLMNFc9rAbgnPBLMLMxGROD6BMBvnBQh7wVgKDdFMDcSPB7v9yhWD3lWIxHW1NXV6d44ZA2okaEgBOD2e9xu2qLmLsL+PwY/oeloNcXSXhME/B1LvBs7OztjlNd2KxgBmMRtEVzKdT7X9DQLc9bpiOEv9NZ1BoM3NGNbmFhQAnC/4yKsKL/sslqEGYDP/Sk4AbjRuYhQt33Xci7LPm0kzBB8bktBCsAN/1QEl67pSCix11NFuLUw/wnd1x93ctrh9ic85welRIBMv6H28MeUtojcVpuKRvveO997dywWm6+joo9Rda3r3PvrXh15Hcli3wigfzCc6AGPhFXlZf2KomNhBlicOhKcaKNWHbYJgIr6I3oXNKlVuVVpXo9nJT0xf+RyufTsXharSmyHVXWbjWObAE1P1B4mEXxOieDxuEtJhAESIcuagIeUEu+PzYKzqjxaFShTnNaOAxuEigcB0ZMpj5XXo9HYB2fP99yVfk3AQ1jiqZmpBTddP20bAYnKUOAwIEQT53b/ut2uLy5ZVLKd6kkZCfkHn9po79vQ3e1dFSrgMQDUs0Ph9pj1IRWUyj3PBf6CCJsB4JYIeOiaGK3Npzuf2hY32144fQofFsRrsv9rWCA+8kx9dfyF24Uzb314b8VD/N5n/jUx9viRPXsm7W+C8RpsWQNmAP4oqEpV87YtZ4wjmNkSlgvQ2tG9iv7cOE7dKiZ3wsaFAlUBv++fTlRmdR2WTkF859O79NeokUXk2iZwjBZnvgFMtEFcQwUfa/b73tauLH9TLdsFMfybC66uOX9YgFqJqFabeE6YAIHVTX7f6fzFm71llghgGL4Q6wMNNedyflgTMAmobmlu8PFUl72XeZyDpwBTzcsVfnKlrW3dPxAofpt8TetYCPxloKF6v1aeQkkzJYAV8AsFlF3tzFkACd8aSXISQMK3Bj5HMSyAhM/YrHO30VAq4q9o66jn9cI4KrC52V9zzmgdcym/4W2oIubVEqB3yLVsmJ6G1xT6Hl2rg1alGZ6CuOLd7YcXqDBxjI4ryFON4cf3+akJ8nw6gZwE4DAZRJDwGY4Bz1kAriNFBAmfoRh0w2tAcvzG+g2jE97od+naEZrz5bRDIKRJApKAJCAJSAKSgCQgCUgCkoAkIAlIApKAJCAJSAKZCPwPhj01sAoS/vwAAAAASUVORK5CYII=;" parent="1" vertex="1">
                    <mxGeometry x="260" y="1020" width="20" height="20" as="geometry"/>
                </mxCell>
                <mxCell id="70" value="disconnected" style="text;html=1;align=left;verticalAlign=middle;resizable=0;points=[];autosize=1;strokeColor=none;fillColor=none;" parent="1" vertex="1">
                    <mxGeometry x="280" y="1000" width="90" height="20" as="geometry"/>
                </mxCell>
                <mxCell id="71" value="connected" style="text;html=1;align=left;verticalAlign=middle;resizable=0;points=[];autosize=1;strokeColor=none;fillColor=none;" parent="1" vertex="1">
                    <mxGeometry x="280" y="1020" width="70" height="20" as="geometry"/>
                </mxCell>
                <mxCell id="72" value="&lt;span style=&quot;font-size: 12px&quot;&gt;&lt;b&gt;READ value changed&lt;br&gt;&lt;/b&gt;&lt;/span&gt;" style="rounded=0;whiteSpace=wrap;html=1;fontFamily=Helvetica;fontSize=11;fillColor=#dae8fc;strokeColor=#6c8ebf;" parent="1" vertex="1">
                    <mxGeometry x="1180" y="360" width="160" height="20" as="geometry"/>
                </mxCell>
                <mxCell id="73" value="MODULE&lt;br&gt;arduino" style="rounded=0;whiteSpace=wrap;html=1;" parent="1" vertex="1">
                    <mxGeometry x="800" y="40" width="280" height="40" as="geometry"/>
                </mxCell>
                <mxCell id="74" value="" style="shape=doubleArrow;whiteSpace=wrap;html=1;fontFamily=Helvetica;fontSize=11;fontColor=default;fillColor=none;arrowWidth=0.35057915057914785;arrowSize=0.12518098455598475;" parent="1" vertex="1">
                    <mxGeometry x="480" y="50" width="320" height="20" as="geometry"/>
                </mxCell>
                <mxCell id="75" value="SPI" style="rounded=1;whiteSpace=wrap;html=1;fontFamily=Helvetica;fontSize=11;fontColor=default;fillColor=default;" parent="1" vertex="1">
                    <mxGeometry x="600" y="50" width="80" height="20" as="geometry"/>
                </mxCell>
                <mxCell id="76" value="C++&lt;br&gt;Backend" style="rounded=0;whiteSpace=wrap;html=1;" parent="1" vertex="1">
                    <mxGeometry x="200" y="40" width="280" height="40" as="geometry"/>
                </mxCell>
                <mxCell id="77" value="" style="rounded=0;whiteSpace=wrap;html=1;fontFamily=Helvetica;fontSize=11;fontColor=default;" parent="1" vertex="1">
                    <mxGeometry x="420" y="120" width="240" height="40" as="geometry"/>
                </mxCell>
                <mxCell id="78" value="" style="shape=image;verticalLabelPosition=bottom;labelBackgroundColor=#ffffff;verticalAlign=top;aspect=fixed;imageAspect=0;image=data:image/png,iVBORw0KGgoAAAANSUhEUgAAAGAAAABgCAYAAADimHc4AAAABmJLR0QA/wD/AP+gvaeTAAAKo0lEQVRYCe1ZC2wUxxn+Z+98NiCTFFMMPmOUNCJNUVWKWkKgfgEx7wC2ScCxk6pPqSHGThOaUCIOtUoDQbVBkCip1Kq1TVsc+2goFNQUAzaEkBQUtYKCYpwmobj40Qaj2mff7fSbg7OW4+529/bu2DO7+v/defzz+r6Z+XdniazLQsBCwELAQsBCwELAQsBCwELAQsBCwELAQsBCwELAQuBOQYDdKQON5Thr6ppmMMY2eTy28h99e3mfkbotAnSit6O+aZZM7BCKjYWetvuoaO2TxT0IRyVSVKXu0EJB4AsUZngl9uedv27OEJFo1CJAI2ohwL9ekvGvem309rbd+8ZfT9B3H/FbUG1902NErAGw2KDqwuj5qseLtygNw4KvMOJEH/iklPnPli3rViSrBkf0Cqitd5frAl/AxellOFkX3bgQnoE9/wCiYs/HI7RgJn/Fzod2h84Nn4py4TOTOaemzr2GMV6HMdiguoVzvtnG6CDADzhctTo6uUxzq58oPqdmqMwfkQTo3naUiCjDnDzEKFWZFCYcFfiirhFHQG1d0yPE2JsYXAo0ERI1+KJzSekDXC5XyH7X1jcvBfiNGFjCwLdJcqHebQf9G5ao9sfh0rch8Mj69ek9ffzwlx7MzTz7bmtboAvbG95cDIfbjLgDmgjpFOA/XVb6DyONJRUBAnzHgP0gBjwbOg8kDAoSan7TPBczfy/S0qCJkF446YXrykv/ZrSxpPEBQeAPjzvNkfrK16Z/+ftIGAuNu3BifXbJN9PozA90NOReGsg0yzMc+KJ/A4Oe5y60d/xVhBOhjHi618dWx6ot06+ASOArQZiQkdEy9Qv3FCrT4hnGFrS5uqLERQYv06+AFI9dHAuIPT/iUK/09BS0f/RP8dEU0S5WmeI4Gl/JLjJ4mZ4AH3NsYETvaRgnu3yla8GFjo4TGmxjYiJIMFqR6QnYW+v675DkKNJIAl3p6pl94eLFFqPAJKq86QkQQOgmobu38PzFi0coCa6kIEDgqJeEru7egmQgIWkIGKkkJBUBARJeW/SLd+77XKeIqqrZV0LSEcCPpG7NGH21cmNuE+kiocOcPiGpCBDg43z+OTHtx6QMkC4SuuATTEhC0hCgBF8QIHQkkJAUBIQCXxAgVJCwIbe5I8Xm+0DE1bTLZCvB9AREAt8PNqP29BRPfj8fVaD1Y02Q8GHHRyf95Y3duLHiRKYmQAv4xKVClt//SeA7AYCcgqpKZ1f3rAsXO46qGoY38DJGZeGzteUwbWbGrZZ9zzU6NW1wq8/HN7l3/axHrUZ+NPUV2DwLDS2Y+QHwlQYrqlx32+VBcSg3U5keLjxhfMbRqffekx8uP0z6ECdeVl1eIv49hzHRlpwQAoKOlM/LEhU21750OVwXowU/UF+cSRjAUXQpjqL3B9oz8ow7AQL8VI/9T5zTHEVHw5KAbWcZMXpLYRsc/IS8VMjmedqDM5TxOJHQzzgVr6soPqhsy0g4rj4gDPiiv/dLMrUUV22YJCI3ab7nj4jvgt4qYtshaY4a+KKg8AleybEAYU0+4Up3T76KT7gmSbQoluCjb5hr4h4HjQC+srWQKwGrhdGx1J0w/AH0ugjwbzjc6wna7rpXQkbGMfxZywuq/SqTaMm6suK2oHTD0bisgFWrVtlSB2zNAFK57YTqrFgJB1Y+9UKGMhNvF5zyPGuR9iqUME3aQzlcf57KLbASUuxeTd8J+LOWh3/MxxTV9sqyPC8e4Is2JHGLtTY2Nvo4sd+jXhmqJtNtNnY8eDvyk/BvTyUKbyPGisSrJsJRibv0Jecbi1+fdN+4y5rKK0jolmzy/GeeKH1fU8EojOLqhEsrN3wHfXodqoXokNsRyhoS3uaYRj72F1SS+b+hVPpJWwl92DsJUXVJczh+Xr/N9UN1y+gtbNEXVS959t3W01/PLxoa8noLYc2gkWQ83jCWfvGh3KZzJ1uvRTLUmqcEX5TBcQXNzr5Af++aTL396SIponp9voemPZjrxThaIxoayLQZKKtadHu9e97EzPGvYjt6/2pfXzYKJIyEYPDRtl/0koBCc+NJQtwI2FHvLsLX4h/gQcfcPTY9hxOdSBQJ4cAHmH4RJDzw+csvHmyfPh4JmVA18U3Lmbj77NmzGIaaqb58LXuzvhphXVPnXiET34fgaKhfpjiz5kx2TnoHES2OWbwdhf5OQAWRRA18f1lGz2QvufRTNuDLQ/wUNLxweouNcywVLxbhjaLPiTkBNQ3NxYxx8QbkCO7WFKdzTo5z4gmky1A18ZOweu36LDXDQP4N8A8jHn5WA3yW56mBDTW+seUzkFCEcGgSBPgZjlWNLtcgbOIiMSVge0NTBRzpHvTUAQ0pOc7sb+ghwSvZD2shQQH+hJANi0QF+CIqNCwJCQBftB8zAmoa3N/knP0Klar6lViTEC346KtfbiEhQeCLxmNCQE1981OM81+iQlXwYeOXmJLgZU+i0vAzn/jGwLYDu5AiSEhJcSxB5i5m718dz20HbQyL2mvhsGG4wPY69zrOuNhTo6rr40uftn18qXM26tcyGc7bZe/c3+3c+i/YDwuOPG49Owrkhth2AllmeGoZdMR+GgFfVCxWwmTnxBaEZaia3B/KJ/iPLZRnR4FaTA6+6KZhAlBJVDMf5YZlijN7nlHHPEwCo9f8FTOqVtt2/Ha3+RYLAmIyBLEScpyTjqMyYyuh0/M06lgO8GvxNL2YhgCBVI7TmWuYhEdx9JbvifRHTTRlGjUVAQKVWJAg6kkWNR0BArg7iQRTEhAgAWdHhnyCqMfsaloCBHA4O4JPyGpDOGrHjLKmFlMTIJDLcWblQTWTMCTZW7ScHYm6zaCmJ0CABAI0k4CPkqnJREJSEDCSSTBOAKctAqBEqFgJWZmZR9EWh0YURjQVxxY/jmhkgkzDBFRVFD/POd+cqLHcO2VyYU5WVivai+iYGdE+/Mmqhp2pxRaL3h1y7zmyYOWjDFcBJeC6a2z6FOLU+llf32Q0B6xxVwgS9tE4R2mijpQVTesOGl4BgRZxGLYfoHgC8Xg/c7Kzpo8aNfoFtHPTSkgm8NF3igkBNXXuAiJqIUapeCZC/iPZ5IK6LRu34l/Ad9Ggn4RkAx/9JsNb0I7dzflEfD8RGyMqTID2cYkWVZWVvCfaOneq9cwDM3M/BfiMZThWJcO2I/odUPQ7ENT/FODLckLBv8aJL6wuLzke3FuXyyVB/SshOM/M8agJuA3gD+Dv27Lqx0veNjOgevsWlQ/QCX6/3k7dYs/JIxFbPtLAF+PU7QNqG5ry4PgOaNzze4WzlGXqNPCKOsSJPVZVsRJ+RnR5ZKld73AYl17EPjxGQ7k+2C6rXFN8BrZnauqaCCRsQliPeImzNdUVK/fqKZRMtrq3ILxplmCAJ6GRRMz8/HUVK04EjKorSlw6v5hlxvi3MPObAnWMxGdUTnhH/YGxMg0cAiCzoMEiwJ9fuaZUzPzgPCsehIDuFSDKV5YvvipR2gKEg1dCL2b5wxb4QEajREWAqFuQMODwLkT4JFSIH3xsNadFxFJtCES1BSmrfnnPnrvSBu2/xczfaIGvRMYKWwhYCFgIWAhYCFgIWAhYCFgIWAhYCFgIWAhYCFgIWAhYCNyMwP8By+wnhKJ02L0AAAAASUVORK5CYII=;" parent="1" vertex="1">
                    <mxGeometry x="630" y="90" width="20" height="20" as="geometry"/>
                </mxCell>
                <mxCell id="79" value="" style="shape=image;verticalLabelPosition=bottom;labelBackgroundColor=#ffffff;verticalAlign=top;aspect=fixed;imageAspect=0;image=data:image/png,iVBORw0KGgoAAAANSUhEUgAAAGAAAABgCAYAAADimHc4AAAABmJLR0QA/wD/AP+gvaeTAAAN4ElEQVRYCe0Za3AV1fk7Z+8j9xEg4RHebxIGxEHT8FYCCaaK1GmFcdpKbK1Kgar1gWPHccYfHatip9OirdV2bMU6bXFaxxeDQAiPCCSiYEsRkgIF5WkSNPfmJrl39/Q7lybeJtlz9nlzgbvzfbtnv/f5vt2z55wFyB7ZDGQzkM1ANgPZDGQzkM1ANgPZDGQzcKVlgGRyhy/Mm5en+OPTKbBCBlCIsRYBgaHAIIztELZDeAW8j+I1ivcRbJ8BIJ8QAkc0IEfUNs+BAbt2NSM/IyGjCnB+7tzcnJxEBWXsekZgPmbsKkSKaAc0VP4HFmU72twRSwQ2DamujiAtI6DPC8BKSz0R2vpNfGIrMSOLEP2IbkI7+noTNLY+qIU2kurqhJvOZLb7rABs2VRfa2OoEp/KNRgkH17wknY4jAlYG8yPricbDnak3Ts6RP94TiOw2bMD0YC2Agh7CN2ORMwEOMmAPRtu9bxEdu+OpTOgtBYgUj6jEj+ST2EHhyFmILBTQMhPwltqX0lXcGkpQGzhnDEqSazDTi1BzHhgAG8oCrsv+F7dSbeDdb0AkbKZ9+M88WfYkQDipQQtGPeq8Na6V90M2rUCnCstDQc9rb/GIWe5mx1w3TaB9a2J4Cq3pq6uFKDlhjlDiJZ4F5Nf7HqC0uKA1GpqYnG/6n2fO+3O8QJ8WTajkAJswkDHwuV1HFMpqei/eW+9k91ytAAtZTOnENA246pzuJNBZpCtTxmhN+Ru2XPIqZgcK8AXi2ZOUlRWg/sxg50KLkPtnFZUOidQvec4OHA4UgCc6RQQYDU4fZvgQEwZbwK3MhoYI/PCW/eetRus7QKwGyf6Ix35VWhojt1gjOiHnvmdUCz6yF1CvoPMnaH8aLndLQz8XtoLCZP/y3Ql316kjmtf19oU/oVdq7YKECkruR2Tv8JuEJeqPu4frcIcfNdO/JYLECudNRZnO8/BlX4Qsi5WXjzaahosF0BV1BfRaX/EKxsY5KlM4bmwlAdLBWgpK7kNn37+88SS08tQqaKlfOatVvplugB8j4cAWWvF2eWsQxj7OVtSHDTbR9MFCNHW+9HJKETLoIybBCR/kGV9pxV5LMrYiXbNjolGlXvNGjFVAP704y/EB8w6SZVXJkyGnLsehMA9DwEJ90tl9UmbxxC452HIuftBUMYX2YuBwAP8j58ZI6YKEFRiP0DjAxEtAR04BPyVqwC8XnwDBoN/+UoAj9eSLUeU0DePh78B4PVhbKsxLsvd4yEVRILanbxhFKlRQfYEoCzjw49Rlf+X4x38HnYwEOyi86EopxKLQNF0FzVNDfTJfacOPSQYhJw7cBTBB8RqFJSwH+OWDC6PjFkw3PPorpKFaHIcoiXwVdwCtGBED11l8tXgu+nWHnS3Cb6blgL33d0PHTYSfOXf6E42fM8YTIyUz5pvVIEaFQRGlhuW7SZI8QPnvW5RN+pXt97rK8A7v+Irgsstb+nXwXv9DbpevKUVQEeP1+XLGIRphnNFZcY4n3988WrtMcWtQ/8SvmwQu0oWwOdHNy4D+uAFF3ohFJIxC4WEzKVGp6TirPzPR8gTK8NmCNE0KEVXAR0lGbnicWh7eR1AR7tp+6YV0EfbH34FkIgLVemYCaAUThXKCJj9WiOeUjBwGCoAaIwXwIC5niLehYt7ErtROt76C2gnj3WjunernTgGHe9skDrwlt0sldETYISV6/FS6YYKwAAWpCoZbdOhIyB1ltGbntpwCOJ7qiHdR/z9baAePSx0y2dpdOhwoYwuk8BCXV4Kg6a0e21+WVo8CH8zTu2VKSF6SuaJJXDK0PHGa2IZt7hJ338CwKvIhad4rogt4k37omJ2vkiA86QFoAr9GgoSRNPgmcZV9dUSB2pBO3daX8BljnbmFCQ+rhN68Vwt7oNAmSoJrVjAT7KkBQCgRUlJkyc6eBiQAXlCrfiurUJ+OpiJXduEbkjeQKCDhghl9JiMMWnupAXAXT6pkd4CUCaI1bTGc2n98PYWI6epJxqANTXypi7SCZN1eSIGpSBOAipLC8AAClHONPAVpUhJ/eRj6fgr0neMh9+AxGGMRWCQDhsl4OqzjOROWgD8AA/Vd6HPIYPFatrxo/rKaeZoxxqEHungAiFfl8lAnARUlBcAIIxypoFK9vu186dN23RLQRYLyRtk1XWuTNEjE0C+1AjK9IScnJ60FAprbkq5M96MPnKXcWGDkuyCOBYSCBi01ENMmjvX3gDilxSgo61HtH1FYG3iWGR9EcTtSAEsrQEAPx6CwDKLhRuGfRWQkTegxUpwTPKEE7/l19pKOEId2RPO2tuF+gKmNHeuFQBiktd6QL4g7vSySJ44FtbWajUgBwrAQGqkt+i0pvO9kbtotGBoV7uvG3SIeMONNX1uNcQvZYpG3oCzMiO98WVTOzrO0vquN1e2acr4SUIblverCEhzJy0A/hw6JIxOh6md+UyHc5GsTJxysdHXZ/wAy2LRTov7otsFxqS5kxZA0+CwrgMBQ6v/l4CLW3y4wcX/FQuF0sDk/yuIZNGo1h+0FAkj8txJC0AIsVaAz88B+0K8wPHOmm+pY04qeWYtEJrj4z9rbhTK6DI1ee6kBdDUxEfogCGahsT+OqGO55pZwLethUIuMvnfLs/0EqGHxAFxHwTKmuZV9gv4SZa0AP2q9/EpwIGktMlT4oMasQaOv76llbhmI2I5N7j4cfMv+77Ud+KD9616/7D/pt3iIQAtSwuAMrhtDNuSV5Mn7ewpUI/XC7X4f1dPHwxF3jkLgI4aJ4xNPXoEZLM5gYEqAa+LZagAhJLtXRomG/Gqd6Ua/iW3SZMhNWJCgI6ZAL7FS6Ua8a1vS2X0BIhmLGeGChBMBDahowuIpkE9/E/QThwV63m8kHPn/cDHZLGgfS4tGIG+7gNAnyJr6rF6UCUzOYF+Y3BQZIuA38UyVABSXd3GAF7v0jLTwD9O7X97FYcxtCDQI6Ew5KxYA3TkGIGUPRYfcnJWrgESCIkN4dy74+8Ys1hKl4vTzw1kw8EOXYEUhqECJOUZW5+8Wjhpp05AfOdmqSYJ5UJg5aPgmV0q/TiCmQM/9nzMD6x8BEgwLNWM73gPZAtJkRGmGc8VERlK5bEngEZ2zqhHhfGpdMNtxQOB1Y/iEz4WjBxqwyHgT6F2XrqaF5qjQ4aB71u3gzK+SCjXyeTDZew3TwOoaifJ1BVr3RDcUluIeWJGFFHOiNhFmWh5yd2MkRcv3pk/k/zBELj3MeDDjSFtHL4SH9dBYvd24GMyMM2QGhAKydkVznQ8067Ft4ka0mORFoit+ylYXnhxL4zcGa7a+zJvGkFTBWDFxd7oAKUeDY9BtAR09DgI3PMwgM9vSp9daAT18EFQ/304OTXkvxFZazRpgwRDQPIGJhd1yoRCUIquAtI/P8kzeuJ7/m2/XQvap8fBxnEsdEEtIvv2xY3aMFUAbrRl4YwfEQLreNsqKpOmQM4dq00Xwao/mR5Pfvsrz9uZ9SRdEAYrQ1W1LyRvDJ6MvZspxsIx5fcM4GgKyXSTT+9i657EvSJLM1vT/kQK7EIztD33pO3ko4/6oL/pZbyaAtMFILt3xwiQH5ry0ouwdvYz4B877bMTvXDTQ+LDTeyFp4DHYtsjZSvJxoZ2s3ZMD0GdDqJlJa8zILd23lu+4oLIt3gZ8Gki4Nhm2Y4ZRfy4x2uqoOPd1wEShodrfQ8M/hquqr1NX0CfY7kAsdJZY1VF24+m+yPaBjpiNPhu+TYoYyfZtiUywPd3Ot78M/C1iUjOMI9AswLq9MCWfZZeZcsF4AFGF8y8iVH2NrZt2UH9LlAmTwNf+RKgo8d30ZxoqMcbIL7lLVCPHHTCXKcNjTDt5lDVBxs7CWavthMXKS9ZC4w8bNaxTJ4OHw2e4tnguboEp5QDZOK98vkHNrmO+HCPc098qicCT4e31D6aSjLbtl0AduNEf6QjvwoNzTHr3Kg8LRgO/L8tLRgG/PchyctPbinw+T+3wdcDrDWCC6gm4H+wktvguJGmnTvN2W7hzlB+tNzono9eEJg3PZZxeuONM/v5O9h21JiOeCXAR7E27/zBNTUtdjtL7Bro1I8umjucafEavB8Ll/dRz3zxubkbPzrvRDepE0a4jdDmmlM4LV2M7U8RL1c4yQi9xank8yQ59gZwYxwjpSVDQYF3cAfsWn5/2SCBfTjZWBzeuvesk31y7A3oDCpcXXcm0e4vx/sdiJcLbOsAtczp5PPkOP4GcKMc2bJlSqT5P4/jBtXjeE8RL0VQgcFjuMH2DCaKudEBtOuG2a9s4u7pQtxheA0pBYiXEpzBb9p3crfu3eZm0K4/mblVtVUK88zETryFeEkAA3iDKmyG28nnyXD9DeBOOrGlfFYpLt2fx/spiJkIB3FrZXXu5rrt6QqOpMtRpx82e3YgGtBWAGEPIW0kYibASQbs2XCr5yW+3Z7OgNJegM7OsWVTfa2NoUpGYA3SChHTD4x8Qgh7NpgfXW93S8Fq8H1WgNSAWxaUTCUKWY4zjkqkD0N0E45j0f8IKtuQu63uoJuOjNjOiAJ0BsrfimhTeD4OT2VYjIVI54s5Ba92QMVFIS6ioAqotjWU17qjr5723jqRUQXoHmBz6fQBHsV/DQVWiDMTPkwVATB8Q0geEBiARcpL6uBPEWxfQF4zJvs0Ig4tcEQDciSRaNufV70feUnJ7CmbgWwGshnIZiCbgWwGshnIZiCbgWwGshno8wz8F9r+2JPmRrhQAAAAAElFTkSuQmCC;" parent="1" vertex="1">
                    <mxGeometry x="920" y="90" width="20" height="20" as="geometry"/>
                </mxCell>
                <mxCell id="80" value="" style="shape=image;verticalLabelPosition=bottom;labelBackgroundColor=#ffffff;verticalAlign=top;aspect=fixed;imageAspect=0;image=data:image/png,iVBORw0KGgoAAAANSUhEUgAAAGAAAABgCAYAAADimHc4AAAABmJLR0QA/wD/AP+gvaeTAAAGG0lEQVRYCe2ZW2gcVRjHz5ndpCUbsUiRQtGCoi+Fim2iUdvsbAJN4u6SvXTrDUVB90l9bIq+5MVifLP0xSBU8KGatJnE7m42hdTZJKUpXSIR+qIoVCnEJLRFCSTtzjl+J6vdXHZ3LjuzSZpv+L7JnOu38/vnXGaGEDyQABJAAkgACSABJIAEkAASQAJVInAonq3xhlKnqxRu04aRNuKXtUSS++rnZicJ5R9tRPzNFLPqAvhCw60aJ1lC+MHNBGKjfktVBWgOJ7oYZWm42d3gaEDADe64HT064lnyaF/Df/3rjgfbYgEcF6AllHp6ieYGgMsBcLQ1BBydgnzhZKdG+RTEPACOVoSAMyOgu1uSp184xQg/QQih4GglCNgugBxSdvHp2m854YESMTF7BQFbBfBF0/sZ0xTo/xlwNAMEbFsD5EjqGGO5SYiJ8AGCUat4BMRifa65XP1nnIv5nuJ8b5T8f/UqAvZyeOTxGqJ9D/t7meBRlEBG8ZdlbHkEeCPDjYTnLkDUJ8DRLBKwtAZ4w8n3CGdjEBPhA4RKzNQIEK+Q6+dnzxDO45UExbYFAoYFkGPJPXxuph+eqw4XmuNVpQQkIx3AFrOJ58QrZIrwjQAzUUdXAG8oEYctpkoI2QuOZjMBXQEIpTshpn49qIRmnoAuWNjHnoaPKE3Q9U1wNJsJ6Aog4o0PBKdojjXAC7ZRkUa3j4AhAUQ49WJwXrrjaaeE9og0uj0EDAsgwqmqL6cqr54knLwJb/kXRB56ZQRMCfB/qMyg/5zE2SuQ/h0crQIClgQQ8X5UgtP33K5GzumISKNbI0CtNVvZitPmcPIErA2nINe0oLDLsuE3QOQtaqaBrb9PyseUQA9Q7ISyu+BoJgjYIEA+mqr4ExohL8K3gRv5HDwbIWCbACLYhOL/JadpL4EI50UaXZ+ArQKIcFd+6PwH5vXj8NB2EtIwKOCMVpKA7QLkIz1YFwKQvg2OVoKAQwLko8G6kNbc7Hl4cMvmc/C8loCjAohgE/3BP+iuuiPw5PwNwWMdAdg9rstzLEN8W4DX22cgQA34ssF6UdXfsBx0E50cHwEr7zUzGOgljLdC3gw4GhCoqgAQj2SGAuMuN2uA60nwbW9VF0AQv9wfvFW3SGWYjnpFGh0JIAEkgASQABLYhgS84eSXh+LZB88l1UawIbugat+kTryP6+dmJ1siyX069RwpRgGWsfKDGidZX2i4dTlZxRMKUIC9m1GWbg4nugpZzl9t6/cwAi+sAVz8XePndiy4P7h0qW1hTb7tSRwBxZG+seTJXTkcTTxVvNi+XMm+rh66np5zMXrdF020OXlnKEB5uo8xRoflcOpz0t3tCCtHOi1/T1uulML37S7vdOOQHFJ22f3rUQDjRAOc1l7zRdP7jTfRr4kC6DNaWeNZxrSrciR1bGVmJdcogHl6j3DO+8S6EIv1ucw3X91C9zmgxD55dS/bN5W+53a9dbW//bZVBDgCrJLLt2uvva/9JEeTDfmk+TMKYJ7Z6haUPMkZGZdDyXeJhQMFsACtSJOdnJKz3kjqK7OvtlGAIjQtZ3Eer5/7a1SOJfcY7QMFMErKeL0jPEeysFVtMtIEBTBCyXydvbBVVb2hRFyvKQqgR8h6uUQkskOvuVuvApZbInATPu5ExgeCU3qtcQToETJZDi/uRmmONRiBL7pGAQQFm5wS2iPd8bSrF4PzRrvEKcgoqXL1KFmgnL+vKv7vylUrVoYCFKNiLu83RiWY7zt+NtcsXxsFyHOwdOaEDC0t0neuDXf8bakDaKT7NhTqPNRm8W0vg8X2kzHF/wUh8MGsAkI4AszDuwv/tW9nlEDCfNP1LVCA9UzK5PAbXOLhzIXgr2UqmSrCbahhXPw8dXuaxmyEL0LjCBAUyrsG8/2ndsz3xcKgAMWoFPJmKWevZQaDKnHoQAFKg73OmTuaGWr7s3SVyktwDSjO8Cx9tK55zGH4IjSOAEGh4PcJ5x9mBgO9hSxnr1CAAt8ZSqSYOtgxUchy/gqnoDzjSZebNahKdeGL0CgApb11i1S+3B+8JYCgIwEkgASQABJAAkgACSABJIAEnCbwL/J3jAfPFh69AAAAAElFTkSuQmCC;" parent="1" vertex="1">
                    <mxGeometry x="420" y="120" width="40" height="40" as="geometry"/>
                </mxCell>
                <mxCell id="81" value="" style="shape=image;verticalLabelPosition=bottom;labelBackgroundColor=#ffffff;verticalAlign=top;aspect=fixed;imageAspect=0;image=data:image/png,iVBORw0KGgoAAAANSUhEUgAAAGAAAABgCAYAAADimHc4AAAABmJLR0QA/wD/AP+gvaeTAAAID0lEQVRYCe1ZW2wVRRj+Zk9bkJBoCGjkxUgCSk9LITY+KLfTnhYRMWCgQHxoIqbG+CDeQB+MmBgiSsTog4gYDEQw1CiYyKXdQyO20YcKYru9BEO0okEopSKhLT274z+9wMFed3Z3zm67J/+c3Z2d/5/5v29u+w8Q/kIEQgRCBEIEQgRCBEIEQgRCBEIEQgRCBEIExhMCbEw4q9c9D7D3nfnCmhHBYsSi553Zsaet2Svuw9K6UUbgb3fYsgaYyYWqwRdtDvYI0OvWEPj7yBH5jsTQBM4XI577N9lRLsElIGEsJeAOEWKZlGTlLCLmIsTyzskacKoXTAIqjflg/Bg5P4mSrPwGzhahKNoia8ANveARUGnMA0MVwG+XB4D92bfg/ipvwx1NzR0ziqzojbOo5x91Bj7+gsVitOCmHXyBWnAIqGiaDphHqNF3UpKV89DMAhRnn5E14LZeMAg4akxBpFvM+TMcAHCJRs4SFOQ1O7DhumrEdYtuG6wyJtO0U0HbzXkOTLfRtBNHUc5pBzY8UdU8seqW0cNnJsDkh8jcg5Rk5TKYVoTi6M+yBrzU8y8BVVUZyOr8gpwvoCQr/wLWMhRmn5Q14LWe5nUFUvY5ZzCn7aJpZ4WUfq/SVVhYivicH3of/fmf4ctmJYy3qV2llCSFdRB5K2m3UyNpQJma/0ZAon4Teb+Rkqx0glkrEM/WZQ2o1PPXl7BulNFWcQcBINuuLur5BH70KNkIhMg66r5zziObSdqulqAw92v3G+edRX8Q4DyymaSevw7x6JfeQeWN5fSvASKyybkALlPSRQsc64MIvvA3vSPAeWTTAmPrURj9DAH9pW8E6I1OI5ucFuyyIIMv+kx6CHAlssk30DHip8KJICf1BLgR2eR4kcD/IMjA97dd7ZewiGya/AgdBeb0N8D2leN1imput63nUwV1i3BtbSbaJ35FODxGyYGwn2i/Xw5ulVOc56wDQ75QVUOAiGyaU8tpr+4kuDYYYA3gvBwRrRwFUWOwAn7P854AEdlMGLsJiFJKXkogyfCeAL1+K6HuJLhG6rYlMGR4T8DxXx6Apa0mCEWaQVfF4u81w3sCUuE+bkRhWqvp61WQkZ36StG970aGWgJSUQ7J6EEjfQT0VN/3N47J8AcBfTz0XMYZGf4joIeFvr9xQIa/CejjoeeSzt0UY5sp6vpmTztc/mMu21NjTt3ISPYc9hTl7PHKsWASkIqGd2R0AdpaxLMPplbn9n3wCUhFxD0yrtG3yiqado6kmvfifmwR0I+QbrxGp2Vb+h9tXq/CYitQHE3Y1JMqPvYIcBZ7ukBnFY+gKHpKCk0JJbUHMhINtKVSabxLPf9lWzo3C7dAM4tRkNd8M8v7u7EzAvS6bXTe8JIcZKyZdjvF1PNb5PTltTR5VR9pJurfkwcfp2AmF6YDfIFgsAkQhz2V9dup974gnJFI1eCdMSzJuyCh64pKcAkQ4CfqPwLDBkkkjqCjcwmK8v+R1HdFLeKKFdVGNnMNprGDpp1npKpm/ADatDV4Ym6nlL6LSukZAXrjLGkfRM9fYNCCizIpG5zthdb6JEqi16X0XVZKDwEwd6OiabptX0TPTxg7Hcz571BooRSxWNJ23R4pqCfggJFFvuSDdb9F19GLAH9+wyek8DQl+8LwKuI5myjEwO0re6ehnoAp1v3kThYBUYqKuny6H1kE+A/X76KPrKdGLjyghAXGn0VhztYBb3yQkZGGNszpq1NDRBNz+WIM96uqyqAFdy8tuGuHKzbEu27aJZWiMHf/EO/Tnq2pb4HWTwB1aL4IibqVQ7ahB/xpBD4kwGcd4Hwl9Xzfgi/8Vk8A53mi4huJs204fGbCjef+GwG+NfVzepQAH1doiqOgWu63pO9rUU8Aw60EADOQdf25W1AS4JvT9lFksuSW/NE8MHYRmlWAwuwToyme7jJqg3F63V00l58fxOl2RDJnInZfK2prM9E+cR+VWUXJrvwB0yrGkjlNdhXTVV5TXPHN+f/Wiu9AsvuNPvD30ysZ8M+AaQuCBD75CcW7IC2XVl5R78DE6Mu2/bZ76f2ygS9HzGlEhGL5sZxzI5b0WQG1I4Bj7jD+Z0mBz1GDSPdDiOUFDnyBhVoC2P92QKIFztIxdHYWIzav3ZmZ9GmrI6A3BDHbRVfL0cYex/L8ay7aVG5KHQG9IYhMlzzchbaGdX6JaDrxKcOJsi1dsf93IwwmPtzi2RvBctywZssFLwqrGwGWNtQWdPR+iYhmUfQV+sodE+ALx9URwDhtQUWV0ul3MPOgtLZPFdURgGG3oKOB5x5YkQZUGntwtOHu0SgEoQxT0sihQxCy1Yudz4e4PmELHp15RdaIH/TUjACxALvr7SQytwlZXY3QjTIcOBCh50CKGgIA5wvw4PDSuTL/GFOy65CoXz54EX/nqiHAjR3Q8DjOBsc30OsqUWHMHb6ov96q+Q5wvgMaDjWxJW2ks4MT0HCC4kIXhyvst3feL8IiBDGFXyXH3foK7qKg3ffU42vAItWI8B8Riwr7VEXwxPsRMJXPhgUH4NPZLiwCm+mwWA06O04GPf6T2k28J4BzWoBtDbTL1ECdenkNNF4Nduk0YrEk5Y1J8Z4AsQAzMU0PiV8rvamio0qd5vAatBpNKCkxKW9ciPcEDPwGaKEF8zswVAOmjvics+MC6SGczBgi383syWRsZ++iaVWPd8AJi1BCBEIEQgRCBEIEQgRCBEIEQgRCBEIEQgRCBMYxAv8BkGFLunIZEOcAAAAASUVORK5CYII=;" parent="1" vertex="1">
                    <mxGeometry x="630" y="130" width="20" height="20" as="geometry"/>
                </mxCell>
                <mxCell id="82" value="&lt;span style=&quot;font-size: 12px ; font-weight: 700&quot;&gt;connecting new module&lt;/span&gt;" style="rounded=0;whiteSpace=wrap;html=1;fontFamily=Helvetica;fontSize=11;fillColor=#dae8fc;strokeColor=#6c8ebf;" parent="1" vertex="1">
                    <mxGeometry x="560" y="170" width="160" height="20" as="geometry"/>
                </mxCell>
                <mxCell id="83" value="" style="shape=image;verticalLabelPosition=bottom;labelBackgroundColor=#ffffff;verticalAlign=top;aspect=fixed;imageAspect=0;image=data:image/png,iVBORw0KGgoAAAANSUhEUgAAAGAAAABgCAYAAADimHc4AAAABmJLR0QA/wD/AP+gvaeTAAAJZUlEQVRYCe2ZbXBUVxnHn+fui6AtJuHFcUZntIU6piFModZYLYRSUosIZJNo2SZUxw/OdGiS7WhlqEy36lQ76mQD+MUPapsEPoRsGMvwMrRQWqylVDokKUESWj8ytgmbF4aE7N7j8ywsXTe7d+/d+5Ld5Ow8z+6995zznHN+/3te7l0A+ZEEJAFJQBKQBCQBSUASkAQkAUlAEpAEJAFJQBKYKwRwrnTUyn62tHWtRMTnJydd9b/4yeYxM7GlAAbp7W7vqlABj1GxBeTn3DGo2v6kb4iOczIlp1JztFAKfKawMqrg8b0vhxfySS4uBdBJLQ38myVR3Bd1wWt/2PfqopsXjH3LKUgHr4zwk8oKgPMxxfPIz/zf/yTpctZDOQKyIOIFl+b8w5SN53z6SW90J69wi6l96VMzX5UCZGYDfOfTbuckZSkmz2ZXRAyasmVKTSfhUi/JcybA8OnOT+x2+JKWXxEqPBzY5uvXypQubdYJEGrv+iEAdlBnXeTZDWFH8xO+l5IztuwLfwtVOErXNKcdSmfLGT4XnlVTUKi9u94QfCYg4Hc0zwfh1ifU0bUaVXGcTnXBdynq2lzufIoft1kzAlraurciijbqlYvcsAkhXkAFToAAWnDxczoCXGH4T/trL+rImzHLrBDA8LSTEQd8SEl3kWezYRJsfaCh5ly2jNnSC16AUFvXJkA8QB31kJs3hP/QKPgKZP5YcucnwiuJg3z+DQaDadsZag9vJPid1HZr4FMghi+ARODj6W4pfA6f03zJBZ3yTc8+e+fQmDhR+s2HvnDhzFunE/W2dhzYQAtumM695JYaTQtFCPgRBU3e/1sOn+JDXgvA8L0T7qPU0AfJ15EIN1iEllfCD9Odf5CuzSO3y4qTRLAFPjecxOaf/PMU+LcbWHTHnb8vK/3aT+nCAnL7DfGCosTqG7fWvm9HZWnnVjsqMhIzE3yOERkf+/nQ8NV/8bEjLkRpLIqb7aor70aAFvxkCF9fevfJhSXFa5Ov2XlM284XaNsZBIs/eTcCPJNufi3Ac75mV/sHL1dGIhF+V6OZz6pEein3fPITs1Vx806AGHp3IsBZHR3EDwYuPxoZGXlbR15LsrAIlgRKCpJ3AhwMBSNTirdKjwg0LUDfvwceHIpcPZnUp4I6nHEB6gKB+bVP73y5LrBjaYKcERG4TP+ly2uHIpE3oAA/MyoAL7igzj8OCNuEiv+oCey6N8HQuAiDlYUowowJwPA/M+k+IgR8Ow5d4BJUoyfmmggzIgDDpyfcw7fhxxWgrzkoguMC1D0VvIPhE+7vkE83y0QYeQMK4OO4AMI9tZ+4pIdPCXFjEWKxo+YW5gFaE/JfBOcFQLGXIE+QZ7Mv8cJc3bizLJHR+MKc/yI4LkBX64vHBMIWgppdBBoJLhSvz2YRHBeAwAOLsGTxkkYFFUdEuDgwWBkZHX2H6zbpwmT5acVnRAB+n3/PV7/c8sB95QMutzkRqEfvkmta/In54qWK4auRU5oZtROjiODXzmI8FY0XMVci1BZeTw9eBynKZ8khGo32nu3pWRaLqvP4XNNR/DcmcF337hf7Evm2NAeL3OoNfin3QOKa1m/psqWnSoqL1mjlSZM2JUD4A/U1B9Kkmbrk6AgItXVtota+Sh6HT7/gdruX31++fNDMSIgq3kcp1rvkWe3CwOAagyNhgkZQtR3wubGOjYCWjrAPBeynSr3k02wqOtX3Xk/v0jwbCdepzb6mBt/RaQ226IIjAoTau+sBxN8AtP+DzjMRxhUFNjb6faeo3baZ7VNQa3v4ST3wuYcet6fM8ekoMvIm153io6jAY3bD5zoV/rLLQ+1dTwmAv1J8F7kuc1yESwOrh/9fhGFVVdc1+X2ndTXYZCY0WT5j8VBHuBEEhChDTnU4Ph3ds+zNkqLPlyoutapxa+371G5HzL4RIGAX9SAn+FQOeCSsKivvU1w4weeanuGJGSdiVVRO1+6of2BwdW//xVechE9tA/sE4Ogm3et13/+NFeU5b1E7//zSiF4RaKsJI2Pjz9Q17nzOZLMNFc9rAbgnPBLMLMxGROD6BMBvnBQh7wVgKDdFMDcSPB7v9yhWD3lWIxHW1NXV6d44ZA2okaEgBOD2e9xu2qLmLsL+PwY/oeloNcXSXhME/B1LvBs7OztjlNd2KxgBmMRtEVzKdT7X9DQLc9bpiOEv9NZ1BoM3NGNbmFhQAnC/4yKsKL/sslqEGYDP/Sk4AbjRuYhQt33Xci7LPm0kzBB8bktBCsAN/1QEl67pSCix11NFuLUw/wnd1x93ctrh9ic85welRIBMv6H28MeUtojcVpuKRvveO997dywWm6+joo9Rda3r3PvrXh15Hcli3wigfzCc6AGPhFXlZf2KomNhBlicOhKcaKNWHbYJgIr6I3oXNKlVuVVpXo9nJT0xf+RyufTsXharSmyHVXWbjWObAE1P1B4mEXxOieDxuEtJhAESIcuagIeUEu+PzYKzqjxaFShTnNaOAxuEigcB0ZMpj5XXo9HYB2fP99yVfk3AQ1jiqZmpBTddP20bAYnKUOAwIEQT53b/ut2uLy5ZVLKd6kkZCfkHn9po79vQ3e1dFSrgMQDUs0Ph9pj1IRWUyj3PBf6CCJsB4JYIeOiaGK3Npzuf2hY32144fQofFsRrsv9rWCA+8kx9dfyF24Uzb314b8VD/N5n/jUx9viRPXsm7W+C8RpsWQNmAP4oqEpV87YtZ4wjmNkSlgvQ2tG9iv7cOE7dKiZ3wsaFAlUBv++fTlRmdR2WTkF859O79NeokUXk2iZwjBZnvgFMtEFcQwUfa/b73tauLH9TLdsFMfybC66uOX9YgFqJqFabeE6YAIHVTX7f6fzFm71llghgGL4Q6wMNNedyflgTMAmobmlu8PFUl72XeZyDpwBTzcsVfnKlrW3dPxAofpt8TetYCPxloKF6v1aeQkkzJYAV8AsFlF3tzFkACd8aSXISQMK3Bj5HMSyAhM/YrHO30VAq4q9o66jn9cI4KrC52V9zzmgdcym/4W2oIubVEqB3yLVsmJ6G1xT6Hl2rg1alGZ6CuOLd7YcXqDBxjI4ryFON4cf3+akJ8nw6gZwE4DAZRJDwGY4Bz1kAriNFBAmfoRh0w2tAcvzG+g2jE97od+naEZrz5bRDIKRJApKAJCAJSAKSgCQgCUgCkoAkIAlIApKAJCAJSAKZCPwPhj01sAoS/vwAAAAASUVORK5CYII=;" parent="1" vertex="1">
                    <mxGeometry x="630" y="210" width="20" height="20" as="geometry"/>
                </mxCell>
                <mxCell id="84" style="edgeStyle=orthogonalEdgeStyle;rounded=1;jumpStyle=none;html=1;" parent="1" source="83" target="86" edge="1">
                    <mxGeometry relative="1" as="geometry"/>
                </mxCell>
                <mxCell id="85" style="edgeStyle=orthogonalEdgeStyle;shape=connector;rounded=1;jumpStyle=none;orthogonalLoop=1;jettySize=auto;html=1;exitX=1;exitY=0.5;exitDx=0;exitDy=0;labelBackgroundColor=default;strokeColor=default;fontFamily=Helvetica;fontSize=11;fontColor=default;endArrow=classic;" parent="1" source="86" target="100" edge="1">
                    <mxGeometry relative="1" as="geometry"/>
                </mxCell>
                <mxCell id="86" value="" style="shape=image;verticalLabelPosition=bottom;labelBackgroundColor=#ffffff;verticalAlign=top;aspect=fixed;imageAspect=0;image=data:image/png,iVBORw0KGgoAAAANSUhEUgAAAGAAAABgCAYAAADimHc4AAAABmJLR0QA/wD/AP+gvaeTAAAOiklEQVRYCe1ZCXSU1RW+9/9nEkhmJiQEFaFCQogWFK1U0IMolsqi4lalnnpcjigxkzYttXWpbaWnrdbWqsUEyHFrq7XnQFUKokJw1wooixsCQiYgQYHIkpmAmcz8r98Dp04m82/DbElnzr3zv3fvfe/dd7//rT9R7peLQC4CuQjkIpCLQC4CuQj8P0ZAtdrpsVOnegZVjFw4aNiIDS1bN+6yWi5nZxwBNlYf0Y6ZeFl/dmgrkDsNfIAFTV65/N+rkM7RUUbAFIDR06aVOoJKI9qRwcfjMKUFhMqGttJOoXyLBI0iIU5CyyfB4RJB1A/pYnBfsAY+APaD24m4iUg0CcFbkd+kOIJvN1WVSD2y2Ufoj75TR4LPePP51DhWSQdh8P2ir6OPf7IieIpgnoRAlsVp164ozEzvAcTXSVEai7mgcU0Vd9qtJFX2rFfx+KlXDghqHY14o+IFP1IsKSCU1fnPIUXciLYuRcVucCrpC2J6RtPon9v2uF6j2aylsjGzunUBOHPyJSsw1CeaVQD9F5rG332ncdF6pC3T8Q2iIC/UfhOzqEGh4eAMEDcLQQ8eOhh4ZNfPj8P0lX4XdAEYO+VizLv8ElwqBZuR5ZEwukE492rttSTET1Hp8eBsoM8x3d2vhtxzttRyRzod0gVAOpFsEMrnt18gNO0h1F0OzjpCMFqweP/C5y18gjA00+Eg2jRuJhkgDK0PHMck7sPc+wO0ZtombDJNy9SQeuOW2oIdqXbEUjCOBoSh8wKTWYgn0RErUxnMsob2ChIzmr2eRan0yBIA0gG7IAjOm7r7kscm4dD2a5RXwInSZyj4AeboD7GV3ICKPhaq2EMc3h3Z35/46B534FB+noPUIczacFaoEmVGw/5sPPuDEyemuQX9XbM+ms7BxCvRL2kZAFmFBEE4Pe9x0C+zhizUvND+cXc6OouHGdrFUWLzRWsF0xJByuJt1YXr4thYE2FCr6gPjMBBYCqxuAqFRoNtExx6mTpC32ueVbzfdmGTArYAkHUN/8NHovite8gSCM6+tP+s28kiCAG8sX9lVZvTdHPRJ7KtZPOw+gMVGnM1zhszUbcLbIc+VIR6wdaagk/tFDKztQ1A2Vy/cLRtJ3sg3AYQKvR82UeC72ZH8OHIlKJnmCz5oLq2/vkK1+LNllthy0AgWC0hCp+z3duvKVm+oE57VUkAZIkkgKDhja8TwdBdqRja0kczHvzIgRJnh3IXdmfyMKia2R/WM+0QFBrfXF3cTEn4JQyAbDtxELhZE+KGbTXuV2Q9meby+razseY8ialpiBVfELQNDlWcu7nK02rF3sgGmwojtbEu5DmB9o27g0Se+fUNdx6ifm/fS3m733sjTKHTsyX4sodNNZ43RUf4NIzIBTJvxoJoRGeYn5kwWzjMbM30RwWArNw+CH8aNXDJNSfKstnEchr01bi/j73/7fALMca/MY3fdoz/HmMTc+1RAyCbsAMC7ItIU5aNnTrtTKSzjnDwuhdrwlVw7EuwCfEt5fX+y02MDNVJAUC2YBMETzaD4Kt2L2DSrkC/OsFGxFg7Hh3S0D7QyMhIlzQAZCO9CYQmb9FSJr6eiDSwEfVTwtpfjAyMdIqRMhFd7wLB9RTOKLdZiMOVZfVt0yzYdTNJOgCyhd4EAq6m/2xpd8RcVzFH5Mv+2+GUACAd6DUg4LtAAR2aARA2yn4Z8AmaGphhoI+rShkAsrXeAsJHNccESNGuQ58M1wMsyL8cfL/oCzvLlFIApBe9BQRfddFqnJQfl30y4IGOvoFrDfTdVCkHQLaYCAhjplx2liybTRzUNLkgtxn5pAiqNdLH6tICgGzULggstMYzJl18jiybLdzyQ88X+MD0gJE/AtcUw+a1jTOyidbhXik6m/q0/KiDrd1LaKkUbEbtuLS74J3li183M0yXvrxhb5EIO31orxgclwTx481e1w1xlTFCJSaf8uyqFxe/j69TE9GQlZvEQoX5+WwaCfKbBTP9Hf7rEpO4wupirOjWkkJFTwdBCDEP4RFgPXI78tvP1VNGyzMCgHQgERDOmnqZpU7J+lPJPq9nE84FK43aYNbON9JHdBkDQDpgFwRN05ZmCwiYRp+VfdBnltOsvvorTUYBkD70VBA0VldI/w14lPz2bKA/rMo4ANKLngjCtpsL1sP3z8F6xE6VT9FTRuRZAYB0pseBgDsifLhZJX3XYwT3m3q6iBw2kWTmnz0OBEEfGEVNCBpppJe6rAJAOtSTQMDnsA3SZ10WVKmr+0qRdQBIv3oMCCp/Iv3VZSbT035WAiA7lAgIZ065dAKl8RfSOvcaN8e61xWRclkLgHTQLgg4oT6XThDCmnJA+gkW4H1gCUgTMluRXoMrCR+ehpT2yzhDb3SUdi/wmPmilS8uepV6wK9HACDj2FtBMAWgrO7QEEUNucNhrVBRVDeGeT/BXKgIUaixcAdV90M7q/igDFKquTeCYA7AXL+cz8r1ghum8LDt3n5Nevpky3sbCIpZgHD3vd/IxknOYiN9snXZvjDb7a8pADjNyZVdt94wa8N1lSlS9CYQTAHAvfdGozjiG6npcduofKK63gKCOQAKbYoTpN1E4kV8+7wHi/ELcfRpEfUGEEwX4SHz285SNL5dMK1lIdapIcfaLbUFO9ISYYuN9OSF2RQAizHIuFm6QThhvn+EqtEsXEk3OhXx8uYqT2siQeg1AMjOpxOE8nr/bMwKd8l2v2K5FZdfyVaIjlBj86xiw93jV2XIfA2IWPaAZzrXBAT/spiQlCM/E7yA8x2fASAv0qakmFr0MINEQBg7+eLz7HSzfH77t2E/CqxHfQQLw481kYK9DgDZMbsgEPFzdkAQmnY9Gf9afaXu/xibHNEmBYCyeQfGlNX7nxxU19b/SLWZ/7cJQoFVEIY0tA9E72aA9UnQUzSdw/oGX2sSBmDCbOEoqw9cWzbXv5aEsgq7gavzFOW2r6vOfCoVIHBI1KJnfcC6pAnlb7rKGAXH5E2zIxeIvEOt/qs14ltQOPYUHCAnV/hucu0yrSiNBjZ3R7jZFRetWrb4lVgXh9Uf/IbG4U2Q9wXHJyHe9dV4zoiv7C61NQLK5gdOPdga8OEE/Fic4MvaXdSp/VEmsomTNRLCHBpt1i/E5j4zm2i9LQDUYKG8FwpFV9A9zdeUzQ2M6i7PrCQZIDR7PYtCYaUC1zBPxOsNXsoNzXtcC+Pp9GS2ANhSyx3M4jd6lTFRC/QX+7yu9/VsMilPBgif/qhwp8/ruRYgXIKFu5mifkLwvTSbtSiRadIWALK2YsUt0d8s09EsiJ4RTh7dVO15LlqebelkgCD7BBAWl6iFlQj6T5APkJz7vYUyNshaJ7y01o0jlmVz28YD/deQZ+x+djArVU03Fz6PfI+hZC3MssPldW2V5FA9iMG7Mm+H2Y5xtO3Quf5/oHCA1c5bm6pKDkTreko6mSAk2mfEMLGiFXNEvlwTEiudPaUyDULCANgJ4eFdkRCVvhr3v+yUS5dtJkGwvQjbDcrh+VGI5VgrFgytb7vVbvl02CeyMI+ZNO07yfAtpSMAi/WJWKxfh6PHgCO0XFOV67dVFX4WEWTDc/AjB0oKdm15vt/KB8Zy0G/FpYNCaNNWL1/yshVjPRtFT3G08qH1geMQ/CWoJzr4yNIkVdOew7YtpeDLhiwx9pG4z5rpDCqfdBZXjt037g4SeW4rRQuw+1tytCNBtdKSXRsZfBzIXke54eBuBN3MfWf06XaW6GaYYkFFnX9k0ZqgXJdq0NTh+x0tv4iCx46iPjtXE4eDEBuSk5mvHDSscmXL1s0+Q0sdpaIjT1gshzICvAwVxA0+7koez4rDGt78MJMMPs408DaKQp4TKF0jIekA9DnoLEBf4taLOadFo9At0Gee8JYIEvfqOZIuEBATPRcSl5c37C0SIedC7HzOj6pFaKRcuM1b+EKUrFtySF376YoSno9vDAsUCi/aWlO0pZtRsgQLhFreGnhfEI3Qq9LRtp2K3/hdJ4cOOvVsouS2F+aUACAdkh9sth/b/nshxM+QVwDGw75q90ykDal8nv9BIejHESM42KIJfqK5xnVHRBb7rJjzhadTzRvkIFGsMYIp+BRmOgVtLmyqds+LtY/Ol9f7LxdMT0fLotIa0neXLr/haeVQsBHpUrAZ2QIh7lRh1oIV/auzOdRU7bpNkDYO9ss6FJe8tEJSn+TpGsG/JtoCb+cgBPLYaFlsOqzmX6owbdCY38LO62HY16LceahrSqxtbL7J63oWZVbHypHfSQpP8Xndv3pn0cL1xGIiZK1gM7K1O0oZABEvm71FK9GJKTur+GBEpvcMOfxToSsBdyFM12u7CGIyTCIQI4pkzzbd7qJyjLI7IwXkE+A9Fabwyb6bXY0yL9nuYc3qFjXlAEjnrTN3efsj5RRNGAJAzG0R25hnSXld+8kxsm5ZjIIVEC4jQW8Ta2Obve6rt3v77YOsC6UChKwBoLKhrRRv4kVdenwkEzrkcK8/koz/r1FYbwSQpopx8UvFSJ18nW+Aa7yvuijedPQ/42SDkDUAhEI8Hb3MA3chTAebzKYvTVH0RgCmdzqnS4U6Gd9Nrl00ncM66i5iCYLQhJwuu42SLoZHMgXEym+RxPuF/xjKGgCEQv3hW7dAYn5fB7khOdihOwIUYQ0AwwbiKFc3Ln4XC/MEImoF6xPTu8EOvhAGeJfwH0NZAwC2qL8tKHUNEMxTMBfPgZ8y8GEWivH8D8OgGtQFAL0eOKShfSDMkk5yJACEiag4PggIfseXfP76Vxfth01cijss4lpmQCj396GwojTPKtbtgHRrdINw7g0HNiLtB7eBP8be/iNMKOvz+n65btOMAVIOcWoo7vcEC8GX3mQ1ANLBnsIxIKxxOkLnv7l06T4z/1Uzg5zeWgRatmzaNXj4icuw6pcj+JdYCb61mnNWuQjkIpCLQC4CuQjkIpCLQG+MwH8BaH0IvqfTRtMAAAAASUVORK5CYII=;" parent="1" vertex="1">
                    <mxGeometry x="930" y="250" width="20" height="20" as="geometry"/>
                </mxCell>
                <mxCell id="87" value="&lt;span style=&quot;font-size: 12px;&quot;&gt;module in initial state&lt;/span&gt;" style="rounded=0;whiteSpace=wrap;html=1;fontFamily=Helvetica;fontSize=11;fontColor=default;fillColor=none;strokeColor=none;align=right;" parent="1" vertex="1">
                    <mxGeometry x="740" y="240" width="120" height="20" as="geometry"/>
                </mxCell>
                <mxCell id="88" value="" style="shape=image;verticalLabelPosition=bottom;labelBackgroundColor=default;verticalAlign=top;aspect=fixed;imageAspect=0;image=data:image/png,iVBORw0KGgoAAAANSUhEUgAAAGAAAABgCAYAAADimHc4AAAABmJLR0QA/wD/AP+gvaeTAAAFKklEQVRYCe2Z329URRTHv7O/7rbbCi0oRoISJbxUAaGRJyWQhWKiJRIxISa+NMEQfzyJRkz8E2ygkJiYEo0v6oOJFvlRSTXBXxGIJQYqIWKs0VQlgOL+6u7d8cymTe5DX3rv7M7M3tPM6c5cOjPnfD6de8suwF9MgAkwASbABJgAE2ACTIAJxI2A0FVwZWKyT/oYgsQOCKygdZdTuNyuU/IzVM+4SNRHvfzGyzTW3iILkOfPpys3U29RZvspkhTt2HwIecRb6h8Q/f1VnQVGEiA/upSp9FTHKKEdFHFop7ye2qBOCYko1Aj+IZofF/hUKnZWbqWGVUdXhD4Bc/f8i5RIu952qLQFmy/gP+Rt3zS14L8u8mLoE0AP3Odpr7jBp5KRlEjtUx0dEVoAIPI6EnBzDamt9ggC5Co34WnJ+j4tq9AiEQSgi+bHtXXrKjyKAF05xHodFmBYPwtgAYYJGN6eTwALMEzA8PZ8AliAYQKGt+cTwAIMEzC8PZ8AFmCYgOHt+QSwgJAEpET5w69CTrZnmpMnQBYrKAx/gsr4D/aQDJlJKuQ8Y9PqMzdROHwc9T9vGctB58ZOCahd+R2loydQL5R1MjC6ljMCql9PofTeF5C+bxSY7s3tF0AP29IHZzF75qLu2q1Yz2oBsjyL4tunUPvxVytgNSMJawXUb/yH4uEx+L9db0bd1qxppYDaL3+hODIG+U/RGlDNSsQ6AbPfXUH53QnIaq1ZNVu1rj0C6GFb+fQcymPfA9S3ilITk7FCgJytoXTsDKrnrjaxVDuXFmHTKn8+KcPODc6T/xZRGPkM/rWZ4GVn+yumRxfF1OgJ8Kf/JvjHIekvHmeJR0zcmIDq5DWU3hmHLFcjluD2dCMCKicvoPzxt0Bdy13MaQOtFeDXUXr/S8yeveQ0NJ3Jt0yAvF1G4Sg9bK/+oTN/59dq4QcyfLtZ6LelZQJEdwe6DuxGZtu6hfKI7bWWCWgQTgp0PLsFHc9tA6jfuBbzbwkT9We29CH38iBER8bE9lbtaUSAIpB68F7kXn8aiWV3qGFsw5gARTy5chm63nwGybUr1TCWsaj3LYKEdL0XpNaUNb/xeW/1myk1XFQsGX1pUT+v64ez2zeEZhfMwegJmE9EpJLoHMoju/dRQGipa35p61+tEDBPyctvQOf+nRCZlv3/cH5rY69WCVAU0pvWIHdwD0Rvtxq2fVgnQBFPrlqO7jf2ILn6LjVs67BSgCIuluaQe3U30g8/oIZtG9YKUMSFl0bnC48jO7hZDdsyrBbQIE5/FXm7HkHHvgGIdPs9nO0X0LAAZDavRe6Vp6De1Ju71BYvzghQtJNr7kaXejjf06uGbRFOCVDEE3cuQY4kpNevRjt8OSdAQRfZDDpffAKZ/Ho1dDqcFNAgnqDPFvY+1ui6/M1dAS5TD+TOAgIwTHRZgAnqgT1ZQACGiS4LMEE9sCcLCMAw0WUBJqgH9mQBARgmuizABPXAniwgAMNElwWYoB7YkwUEYJjosgAT1AN7RhFQCKwTt+5tXQVHECCmdSXh3DoS2mpPhC5eypOh57o+UYgTukoILUAk6qOURI0ibq0m6uKYrqJDC/DyGy9TEiMUMWti2BtY95OuokMLUAl4PbXX6PU0RTwa3Xa91I2DOouNJED091dJwpOU0BEKn6Jdmw8hD3m9/i6xdavW267QRawyMdknfQzRegMU91NkKVxuZUj8TAWcVs+7uVsuDbkxASbABJgAE2ACTIAJMAEmwASiEfgf6ZsVh8Ca6qkAAAAASUVORK5CYII=;" parent="1" vertex="1">
                    <mxGeometry x="60" y="1000" width="20" height="20" as="geometry"/>
                </mxCell>
                <mxCell id="89" value="" style="shape=image;verticalLabelPosition=bottom;labelBackgroundColor=default;verticalAlign=top;aspect=fixed;imageAspect=0;image=data:image/png,iVBORw0KGgoAAAANSUhEUgAAAGAAAABgCAYAAADimHc4AAAABmJLR0QA/wD/AP+gvaeTAAAE2ElEQVRYCe2Z32scVRTHv2e3iVESuoHgL1qLjZZCUGi6hYpPjdFKbeMP0MQ3aUtEq49S8A/wV8EQzJMS8UHtL+xL0RixQQpWiUEQayrFtFELplobo8bEJpvjmcDSdWk2szM3e7PZ73IPM3Pn3HvO/XznzEwmAH8kQAIkQAIkQAIkQAIkQAKVRkBcLVgHB5qQ1D1QfcDmvMmswayc2yVAxgD9BAn0SnPr8FIsJrYAOjRUBRl/HSrPWIJJs5XYMraoHiD1gqTTM7bvrMUSQL87Uo2p+uN2pQRXvbOklu1Eio8hqTaXIiRiLXaqvrti4AegBA9C/+gKdl1Z5AqYv+cn5r6xRFbqbceWds2Wgehdsvn+M9c8W2Rn9ApI6NMWq9Lg25KRxBw6gx0XFl0AaKuLBMpyDkk4W3sMAbC2LOE5SVrXOZnGJokjQK2Nr9RW52rhcQRwlUNFz0MBPMtPASiAZwKew7MCKIBnAp7DswIogGcCnsOzAiiAZwKew7MCKIBnAp7DswIogGcCn30AqHpLghXwVT9wtBuY/seLCBQgwP7jMPDuS8DlseCopEYBsrjHfwXeexX4+Wy2pyRbCpCLeXrSbkddwOlTub1Luk8B8vFmMkDfO8CJQyV5OFMALPD7egA41gNcmV7AwU03BSjE8dy3wPuvAX9eLuQV6xwFWAzfbxfsDellYGwUS/GjAGGoTk5YJRwAzgyG8S7KhwKExZWZAT7sBU4dd/pwXhU2Pv2MQPDJ4nMT4PdfoI+vuV6OXpiy3lhNoo7WoU+jfUA50Bk15DIbJ18iMfeIHDx/MU5ivAVFpqdbkZEh7bhjU+QpbCAFMAiRm2ANdO6kdtzeFnUOChCV3NVxtVA5ph3r91/tCr9HAcKzKuSZhOIVbW98Szs3VxVyzD9HAfKJxDrWvZgYP6FPbmgIOw0FCEtqifwogFOw0oOLt7XIwbOXwk7LP8TCkirsNwuRfXJo5E1gpLBn3lkKkAckwuGEvYq2y+FR++dy8aMpQPHMckecB6RNjoyezu0sZp/PgGJo/d/3JK5Ub5HDI5HhB9OV/ltQEHU5WZRvU01bgS8Ga6Tvh3/jLoUVUAxBseu1pR3YsRsu4Aeh+QwIKISxqup58NjQHMY7tA8FCIOqrh547DngxrVhvIvyoQCL4bp5HfDoPqA2tZhnpPMUoBC2OzcBD+0Gqq4r5BXrHAVYCN+9u4B7dtprvj14F/Jx0E8B8iEm7WvyjqeAjVtQih8FyKV8Q53d758Fbm3M7V3SfQqQxdtwi73pPA+sbsj2lGRLAQLMjXcDO/cC1TXBUUltVUmjLcdgzS1AyxP2sE14yY4C3NfhBXw2qB/Zs9G5BQXwfBFQAArgmYDn8KwACuCZgOfwrAAK4JmA5/CsAArgmYDn8KwACuCZgOfwrIAyFmDSc+4+w//lKnicCvjJVRJlOI+ztSdiLL4vxtjyHqr4yNUCoguQQK8lMWtWaW0Wknnb1aIjCyDNrcMQecNVImUzj6JL0tu/d5VvZAHmE9DV+23bb1YZTdCHv5MvulxsLAEknZ4BUrsg2mNJZcxWagvW1g1NPSzbtjm97YorYjo40ISk7oHqdptzvVmNWTm3aUt+xKzf/nHbO3/LtQM2EiABEiABEiABEiABEiABEohL4D/YHuY1rKwR1QAAAABJRU5ErkJggg==;flipH=0;" parent="1" vertex="1">
                    <mxGeometry x="60" y="1020" width="20" height="20" as="geometry"/>
                </mxCell>
                <mxCell id="90" value="" style="shape=image;verticalLabelPosition=bottom;labelBackgroundColor=default;verticalAlign=top;aspect=fixed;imageAspect=0;image=data:image/png,iVBORw0KGgoAAAANSUhEUgAAAGAAAABgCAYAAADimHc4AAAACXBIWXMAABJ0AAASdAHeZh94AAACsElEQVR42u3dTYtSURzHcRczReuC3kJPm15Fu15GbyHEjY+IDppoEpiK4GZw4UoqUReFKAOiomP4RJuWbaIJWszA6X8iYVpYMDD9j97vD377e87He6/ee+T4fIQQQgghhBByxczn84fL5TK9WCxOpV+kZsdrxzCVpmRcD5yd+NVqdSgHmJMDvdiDSd9WO7aMHatTk79er2/IgTX3eOL/qJzlb51CkIN65ZXJv4Tw0plr/p5fdrZejuSSe9+FT3/Wg5O/OQteuADw0asA9tuRCwBnHgb45gKA8XIBAAAAAAAAAAAAAAAAAAAAAAAAAAAAAAAAdqu1Ws2+YAFAq5FIxBQKBTOdTgHQArDNZDJmMBgAoAVgm0gkTLfbBUALwDYWi5lmswmAFsCmx8fHf705A3DNALbFYtHMZjMAtABsc7mcGY1GAGgB2B4dHZl+vw+AFsDm5txqtQDQArCNRqOmXq//ujkDoACwaaVSMaFQ6NZOAlxlwI62L2fEXQAUGw6HPwvCYwB0eyYITwHQ7YUgPAdAv6/T6fQhALr9IL8Z7gAAgCcBcn6//4BL0P/vudyEn3ET1ulX+T3whK+hOv0kfcQPMZ2+DwaDt3kYp/AwrlqtmkAgcJOnoQqPoxuNBu8DNADi8bjpdDq8kNEASKVS5uTkhFeSGgD5fN6Mx2NeymsAlMtllqVoAWze/bIwS2FpYrvdZmmiBkAymTS9Xo/FuRoA2WzWDIdDlqdrAJRKpa03WwCuuf9aBQ0Af9IDAAAAAAAAAAAAAAAAAAAAAAAAAAAAAAC0Ab6zgYMugJe3MDl1ASDl4U18kuoAdns/OZhzDwLYMd/zuZDfe0fy6deK3dZPDuqdVyZfPnBvJpPJgc+lsJmnI7m0ne1M+mMPJt2OwW7N6/Z2toQQQgghhJCdy0+jfsNTfAIN1QAAAABJRU5ErkJggg==;" parent="1" vertex="1">
                    <mxGeometry x="100" y="1020" width="20" height="20" as="geometry"/>
                </mxCell>
                <mxCell id="91" value="" style="shape=image;verticalLabelPosition=bottom;labelBackgroundColor=default;verticalAlign=top;aspect=fixed;imageAspect=0;image=data:image/png,iVBORw0KGgoAAAANSUhEUgAAAGAAAABgCAYAAADimHc4AAAACXBIWXMAABJ0AAASdAHeZh94AAAC0UlEQVR42u3dS2saURjGcRdtP0sv3yoJIlESCCIhZBFRCAimphbqwoUgSAJBEMRaFRG8xGiiubUbP0J3baGLCG/PhLT0kjQm6JzjzP+BZz/n/RnHzIXj8RBCCCGEEELII3N2dvZqOBzuqF6qflaVOa+1hgvV+Onp6UtjBz8ajZ6qg0yqjh0w9Ls6VggJa61GDb/b7T5TB/fBwYP/u++NQlAH9M5Fw7+u+kt4a9J3/thtADdrfmHCp/+NC4f/s69NAPjkYoALEwC+uhjgiwkA4uYCAAAAAAAAAAAAAAAAAAAAAAAAAAAAAAAA2NPBYCDJZBIAHe12u7K1tSULCwsA2N16vS5ra2vXwwfA5haLRVleXv41fABsbC6Xk6WlpT+GD4BNJ9vd3d1/Bg+ADYs8OjqScDh85/ABmGGbzaaEQqH/Dh+AGbVcLksgELh3+ADMoHt7e+L1eicaPgBTPtmmUilZXFycePgATKn9fl+2t7cfNHgAprSQdrstGxsbjxq+iZ0rgEqlIisrK44Z/lwB5PN58fl8jhr+3ACk0+kHn2wBmALAycmJxONxRw7eeIBOpyObm5uOHj4AANz/FZRIJADQfRLOZrO3XtsHwMafoYVCgZ+huv8Rq9Vqsrq6CoDOSxGHh4eOOjnP5cW44+NjicViXIzTfT8gk8lwOVr3DZmDgwNuyOi+JVmtVie+SgrAjNpqtWR9fR0AnY+l9Ho9iUajAOh+MMu6VwyA5kcT9/f3bz05A2BjS6WS+P1+AHQ+nt5oNCQYDAKg8wUN65nRSCQCgO5XlKynpgHgJT0AAAAAAAAAAAAAAAAAAAAAAAAAAAAAAMDpAN/YwEEvgJu3MLk0ASDuYoCYdgBrez91IFcuHP7VYDB47jEhN3tH8unXlZt9JMtuGb765JfOz8+feEwKm3kakt+2s/2o+t0BQ7fWYG3Na/Z2toQQQgghhJC5yw8R5tFFAYEFRAAAAABJRU5ErkJggg==;" parent="1" vertex="1">
                    <mxGeometry x="100" y="1000" width="20" height="20" as="geometry"/>
                </mxCell>
                <mxCell id="92" value="&lt;span style=&quot;font-size: 12px;&quot;&gt;input buffer&lt;/span&gt;" style="rounded=0;whiteSpace=wrap;html=1;fontFamily=Helvetica;fontSize=11;fontColor=default;fillColor=none;strokeColor=none;align=left;" parent="1" vertex="1">
                    <mxGeometry x="120" y="1000" width="140" height="20" as="geometry"/>
                </mxCell>
                <mxCell id="93" value="&lt;span style=&quot;font-size: 12px;&quot;&gt;output buffer&lt;/span&gt;" style="rounded=0;whiteSpace=wrap;html=1;fontFamily=Helvetica;fontSize=11;fontColor=default;fillColor=none;strokeColor=none;align=left;" parent="1" vertex="1">
                    <mxGeometry x="120" y="1020" width="140" height="20" as="geometry"/>
                </mxCell>
                <mxCell id="94" value="&lt;span style=&quot;font-size: 12px;&quot;&gt;empty&lt;/span&gt;" style="rounded=0;whiteSpace=wrap;html=1;fontFamily=Helvetica;fontSize=11;fontColor=default;fillColor=none;strokeColor=none;align=right;rotation=-90;" parent="1" vertex="1">
                    <mxGeometry x="80" y="1050" width="40" height="20" as="geometry"/>
                </mxCell>
                <mxCell id="95" value="&lt;span style=&quot;font-size: 12px;&quot;&gt;filled&lt;/span&gt;" style="rounded=0;whiteSpace=wrap;html=1;fontFamily=Helvetica;fontSize=11;fontColor=default;fillColor=none;strokeColor=none;align=right;rotation=-90;" parent="1" vertex="1">
                    <mxGeometry x="40" y="1050" width="40" height="20" as="geometry"/>
                </mxCell>
                <mxCell id="96" value="" style="shape=image;verticalLabelPosition=bottom;labelBackgroundColor=default;verticalAlign=top;aspect=fixed;imageAspect=0;image=data:image/png,iVBORw0KGgoAAAANSUhEUgAAAGAAAABgCAYAAADimHc4AAAABmJLR0QA/wD/AP+gvaeTAAAFKklEQVRYCe2Z329URRTHv7O/7rbbCi0oRoISJbxUAaGRJyWQhWKiJRIxISa+NMEQfzyJRkz8E2ygkJiYEo0v6oOJFvlRSTXBXxGIJQYqIWKs0VQlgOL+6u7d8cymTe5DX3rv7M7M3tPM6c5cOjPnfD6de8suwF9MgAkwASbABJgAE2ACTIAJxI2A0FVwZWKyT/oYgsQOCKygdZdTuNyuU/IzVM+4SNRHvfzGyzTW3iILkOfPpys3U29RZvspkhTt2HwIecRb6h8Q/f1VnQVGEiA/upSp9FTHKKEdFHFop7ye2qBOCYko1Aj+IZofF/hUKnZWbqWGVUdXhD4Bc/f8i5RIu952qLQFmy/gP+Rt3zS14L8u8mLoE0AP3Odpr7jBp5KRlEjtUx0dEVoAIPI6EnBzDamt9ggC5Co34WnJ+j4tq9AiEQSgi+bHtXXrKjyKAF05xHodFmBYPwtgAYYJGN6eTwALMEzA8PZ8AliAYQKGt+cTwAIMEzC8PZ8AFmCYgOHt+QSwgJAEpET5w69CTrZnmpMnQBYrKAx/gsr4D/aQDJlJKuQ8Y9PqMzdROHwc9T9vGctB58ZOCahd+R2loydQL5R1MjC6ljMCql9PofTeF5C+bxSY7s3tF0AP29IHZzF75qLu2q1Yz2oBsjyL4tunUPvxVytgNSMJawXUb/yH4uEx+L9db0bd1qxppYDaL3+hODIG+U/RGlDNSsQ6AbPfXUH53QnIaq1ZNVu1rj0C6GFb+fQcymPfA9S3ilITk7FCgJytoXTsDKrnrjaxVDuXFmHTKn8+KcPODc6T/xZRGPkM/rWZ4GVn+yumRxfF1OgJ8Kf/JvjHIekvHmeJR0zcmIDq5DWU3hmHLFcjluD2dCMCKicvoPzxt0Bdy13MaQOtFeDXUXr/S8yeveQ0NJ3Jt0yAvF1G4Sg9bK/+oTN/59dq4QcyfLtZ6LelZQJEdwe6DuxGZtu6hfKI7bWWCWgQTgp0PLsFHc9tA6jfuBbzbwkT9We29CH38iBER8bE9lbtaUSAIpB68F7kXn8aiWV3qGFsw5gARTy5chm63nwGybUr1TCWsaj3LYKEdL0XpNaUNb/xeW/1myk1XFQsGX1pUT+v64ez2zeEZhfMwegJmE9EpJLoHMoju/dRQGipa35p61+tEDBPyctvQOf+nRCZlv3/cH5rY69WCVAU0pvWIHdwD0Rvtxq2fVgnQBFPrlqO7jf2ILn6LjVs67BSgCIuluaQe3U30g8/oIZtG9YKUMSFl0bnC48jO7hZDdsyrBbQIE5/FXm7HkHHvgGIdPs9nO0X0LAAZDavRe6Vp6De1Ju71BYvzghQtJNr7kaXejjf06uGbRFOCVDEE3cuQY4kpNevRjt8OSdAQRfZDDpffAKZ/Ho1dDqcFNAgnqDPFvY+1ui6/M1dAS5TD+TOAgIwTHRZgAnqgT1ZQACGiS4LMEE9sCcLCMAw0WUBJqgH9mQBARgmuizABPXAniwgAMNElwWYoB7YkwUEYJjosgAT1AN7RhFQCKwTt+5tXQVHECCmdSXh3DoS2mpPhC5eypOh57o+UYgTukoILUAk6qOURI0ibq0m6uKYrqJDC/DyGy9TEiMUMWti2BtY95OuokMLUAl4PbXX6PU0RTwa3Xa91I2DOouNJED091dJwpOU0BEKn6Jdmw8hD3m9/i6xdavW267QRawyMdknfQzRegMU91NkKVxuZUj8TAWcVs+7uVsuDbkxASbABJgAE2ACTIAJMAEmwASiEfgf6ZsVh8Ca6qkAAAAASUVORK5CYII=;flipH=1;" parent="1" vertex="1">
                    <mxGeometry x="40" y="1000" width="20" height="20" as="geometry"/>
                </mxCell>
                <mxCell id="97" value="" style="shape=image;verticalLabelPosition=bottom;labelBackgroundColor=default;verticalAlign=top;aspect=fixed;imageAspect=0;image=data:image/png,iVBORw0KGgoAAAANSUhEUgAAAGAAAABgCAYAAADimHc4AAAABmJLR0QA/wD/AP+gvaeTAAAE2ElEQVRYCe2Z32scVRTHv2e3iVESuoHgL1qLjZZCUGi6hYpPjdFKbeMP0MQ3aUtEq49S8A/wV8EQzJMS8UHtL+xL0RixQQpWiUEQayrFtFELplobo8bEJpvjmcDSdWk2szM3e7PZ73IPM3Pn3HvO/XznzEwmAH8kQAIkQAIkQAIkQAIkQAKVRkBcLVgHB5qQ1D1QfcDmvMmswayc2yVAxgD9BAn0SnPr8FIsJrYAOjRUBRl/HSrPWIJJs5XYMraoHiD1gqTTM7bvrMUSQL87Uo2p+uN2pQRXvbOklu1Eio8hqTaXIiRiLXaqvrti4AegBA9C/+gKdl1Z5AqYv+cn5r6xRFbqbceWds2Wgehdsvn+M9c8W2Rn9ApI6NMWq9Lg25KRxBw6gx0XFl0AaKuLBMpyDkk4W3sMAbC2LOE5SVrXOZnGJokjQK2Nr9RW52rhcQRwlUNFz0MBPMtPASiAZwKew7MCKIBnAp7DswIogGcCnsOzAiiAZwKew7MCKIBnAp7DswIogGcCn30AqHpLghXwVT9wtBuY/seLCBQgwP7jMPDuS8DlseCopEYBsrjHfwXeexX4+Wy2pyRbCpCLeXrSbkddwOlTub1Luk8B8vFmMkDfO8CJQyV5OFMALPD7egA41gNcmV7AwU03BSjE8dy3wPuvAX9eLuQV6xwFWAzfbxfsDellYGwUS/GjAGGoTk5YJRwAzgyG8S7KhwKExZWZAT7sBU4dd/pwXhU2Pv2MQPDJ4nMT4PdfoI+vuV6OXpiy3lhNoo7WoU+jfUA50Bk15DIbJ18iMfeIHDx/MU5ivAVFpqdbkZEh7bhjU+QpbCAFMAiRm2ANdO6kdtzeFnUOChCV3NVxtVA5ph3r91/tCr9HAcKzKuSZhOIVbW98Szs3VxVyzD9HAfKJxDrWvZgYP6FPbmgIOw0FCEtqifwogFOw0oOLt7XIwbOXwk7LP8TCkirsNwuRfXJo5E1gpLBn3lkKkAckwuGEvYq2y+FR++dy8aMpQPHMckecB6RNjoyezu0sZp/PgGJo/d/3JK5Ub5HDI5HhB9OV/ltQEHU5WZRvU01bgS8Ga6Tvh3/jLoUVUAxBseu1pR3YsRsu4Aeh+QwIKISxqup58NjQHMY7tA8FCIOqrh547DngxrVhvIvyoQCL4bp5HfDoPqA2tZhnpPMUoBC2OzcBD+0Gqq4r5BXrHAVYCN+9u4B7dtprvj14F/Jx0E8B8iEm7WvyjqeAjVtQih8FyKV8Q53d758Fbm3M7V3SfQqQxdtwi73pPA+sbsj2lGRLAQLMjXcDO/cC1TXBUUltVUmjLcdgzS1AyxP2sE14yY4C3NfhBXw2qB/Zs9G5BQXwfBFQAArgmYDn8KwACuCZgOfwrAAK4JmA5/CsAArgmYDn8KwACuCZgOfwrIAyFmDSc+4+w//lKnicCvjJVRJlOI+ztSdiLL4vxtjyHqr4yNUCoguQQK8lMWtWaW0Wknnb1aIjCyDNrcMQecNVImUzj6JL0tu/d5VvZAHmE9DV+23bb1YZTdCHv5MvulxsLAEknZ4BUrsg2mNJZcxWagvW1g1NPSzbtjm97YorYjo40ISk7oHqdptzvVmNWTm3aUt+xKzf/nHbO3/LtQM2EiABEiABEiABEiABEiABEohL4D/YHuY1rKwR1QAAAABJRU5ErkJggg==;flipH=1;" parent="1" vertex="1">
                    <mxGeometry x="40" y="1020" width="20" height="20" as="geometry"/>
                </mxCell>
                <mxCell id="98" value="" style="shape=image;verticalLabelPosition=bottom;labelBackgroundColor=default;verticalAlign=top;aspect=fixed;imageAspect=0;image=data:image/png,iVBORw0KGgoAAAANSUhEUgAAAGAAAABgCAYAAADimHc4AAAACXBIWXMAABJ0AAASdAHeZh94AAACsElEQVR42u3dTYtSURzHcRczReuC3kJPm15Fu15GbyHEjY+IDppoEpiK4GZw4UoqUReFKAOiomP4RJuWbaIJWszA6X8iYVpYMDD9j97vD377e87He6/ee+T4fIQQQgghhBByxczn84fL5TK9WCxOpV+kZsdrxzCVpmRcD5yd+NVqdSgHmJMDvdiDSd9WO7aMHatTk79er2/IgTX3eOL/qJzlb51CkIN65ZXJv4Tw0plr/p5fdrZejuSSe9+FT3/Wg5O/OQteuADw0asA9tuRCwBnHgb45gKA8XIBAAAAAAAAAAAAAAAAAAAAAAAAAAAAAAAAdqu1Ws2+YAFAq5FIxBQKBTOdTgHQArDNZDJmMBgAoAVgm0gkTLfbBUALwDYWi5lmswmAFsCmx8fHf705A3DNALbFYtHMZjMAtABsc7mcGY1GAGgB2B4dHZl+vw+AFsDm5txqtQDQArCNRqOmXq//ujkDoACwaaVSMaFQ6NZOAlxlwI62L2fEXQAUGw6HPwvCYwB0eyYITwHQ7YUgPAdAv6/T6fQhALr9IL8Z7gAAgCcBcn6//4BL0P/vudyEn3ET1ulX+T3whK+hOv0kfcQPMZ2+DwaDt3kYp/AwrlqtmkAgcJOnoQqPoxuNBu8DNADi8bjpdDq8kNEASKVS5uTkhFeSGgD5fN6Mx2NeymsAlMtllqVoAWze/bIwS2FpYrvdZmmiBkAymTS9Xo/FuRoA2WzWDIdDlqdrAJRKpa03WwCuuf9aBQ0Af9IDAAAAAAAAAAAAAAAAAAAAAAAAAAAAAAC0Ab6zgYMugJe3MDl1ASDl4U18kuoAdns/OZhzDwLYMd/zuZDfe0fy6deK3dZPDuqdVyZfPnBvJpPJgc+lsJmnI7m0ne1M+mMPJt2OwW7N6/Z2toQQQgghhJCdy0+jfsNTfAIN1QAAAABJRU5ErkJggg==;flipH=1;" parent="1" vertex="1">
                    <mxGeometry x="80" y="1020" width="20" height="20" as="geometry"/>
                </mxCell>
                <mxCell id="99" value="" style="shape=image;verticalLabelPosition=bottom;labelBackgroundColor=default;verticalAlign=top;aspect=fixed;imageAspect=0;image=data:image/png,iVBORw0KGgoAAAANSUhEUgAAAGAAAABgCAYAAADimHc4AAAACXBIWXMAABJ0AAASdAHeZh94AAAC0UlEQVR42u3dS2saURjGcRdtP0sv3yoJIlESCCIhZBFRCAimphbqwoUgSAJBEMRaFRG8xGiiubUbP0J3baGLCG/PhLT0kjQm6JzjzP+BZz/n/RnHzIXj8RBCCCGEEELII3N2dvZqOBzuqF6qflaVOa+1hgvV+Onp6UtjBz8ajZ6qg0yqjh0w9Ls6VggJa61GDb/b7T5TB/fBwYP/u++NQlAH9M5Fw7+u+kt4a9J3/thtADdrfmHCp/+NC4f/s69NAPjkYoALEwC+uhjgiwkA4uYCAAAAAAAAAAAAAAAAAAAAAAAAAAAAAAAA2NPBYCDJZBIAHe12u7K1tSULCwsA2N16vS5ra2vXwwfA5haLRVleXv41fABsbC6Xk6WlpT+GD4BNJ9vd3d1/Bg+ADYs8OjqScDh85/ABmGGbzaaEQqH/Dh+AGbVcLksgELh3+ADMoHt7e+L1eicaPgBTPtmmUilZXFycePgATKn9fl+2t7cfNHgAprSQdrstGxsbjxq+iZ0rgEqlIisrK44Z/lwB5PN58fl8jhr+3ACk0+kHn2wBmALAycmJxONxRw7eeIBOpyObm5uOHj4AANz/FZRIJADQfRLOZrO3XtsHwMafoYVCgZ+huv8Rq9Vqsrq6CoDOSxGHh4eOOjnP5cW44+NjicViXIzTfT8gk8lwOVr3DZmDgwNuyOi+JVmtVie+SgrAjNpqtWR9fR0AnY+l9Ho9iUajAOh+MMu6VwyA5kcT9/f3bz05A2BjS6WS+P1+AHQ+nt5oNCQYDAKg8wUN65nRSCQCgO5XlKynpgHgJT0AAAAAAAAAAAAAAAAAAAAAAAAAAAAAAMDpAN/YwEEvgJu3MLk0ASDuYoCYdgBrez91IFcuHP7VYDB47jEhN3tH8unXlZt9JMtuGb765JfOz8+feEwKm3kakt+2s/2o+t0BQ7fWYG3Na/Z2toQQQgghhJC5yw8R5tFFAYEFRAAAAABJRU5ErkJggg==;flipH=1;" parent="1" vertex="1">
                    <mxGeometry x="80" y="1000" width="20" height="20" as="geometry"/>
                </mxCell>
                <mxCell id="100" value="&lt;span style=&quot;font-size: 12px;&quot;&gt;initializeModule&lt;/span&gt;" style="rounded=0;whiteSpace=wrap;html=1;fontFamily=Helvetica;fontSize=11;fontColor=default;fillColor=none;strokeColor=none;align=left;" parent="1" vertex="1">
                    <mxGeometry x="960" y="280" width="100" height="20" as="geometry"/>
                </mxCell>
                <mxCell id="101" value="" style="shape=image;verticalLabelPosition=bottom;labelBackgroundColor=default;verticalAlign=top;aspect=fixed;imageAspect=0;image=data:image/png,iVBORw0KGgoAAAANSUhEUgAAAGAAAABgCAYAAADimHc4AAAACXBIWXMAABJ0AAASdAHeZh94AAACsElEQVR42u3dTYtSURzHcRczReuC3kJPm15Fu15GbyHEjY+IDppoEpiK4GZw4UoqUReFKAOiomP4RJuWbaIJWszA6X8iYVpYMDD9j97vD377e87He6/ee+T4fIQQQgghhBByxczn84fL5TK9WCxOpV+kZsdrxzCVpmRcD5yd+NVqdSgHmJMDvdiDSd9WO7aMHatTk79er2/IgTX3eOL/qJzlb51CkIN65ZXJv4Tw0plr/p5fdrZejuSSe9+FT3/Wg5O/OQteuADw0asA9tuRCwBnHgb45gKA8XIBAAAAAAAAAAAAAAAAAAAAAAAAAAAAAAAAdqu1Ws2+YAFAq5FIxBQKBTOdTgHQArDNZDJmMBgAoAVgm0gkTLfbBUALwDYWi5lmswmAFsCmx8fHf705A3DNALbFYtHMZjMAtABsc7mcGY1GAGgB2B4dHZl+vw+AFsDm5txqtQDQArCNRqOmXq//ujkDoACwaaVSMaFQ6NZOAlxlwI62L2fEXQAUGw6HPwvCYwB0eyYITwHQ7YUgPAdAv6/T6fQhALr9IL8Z7gAAgCcBcn6//4BL0P/vudyEn3ET1ulX+T3whK+hOv0kfcQPMZ2+DwaDt3kYp/AwrlqtmkAgcJOnoQqPoxuNBu8DNADi8bjpdDq8kNEASKVS5uTkhFeSGgD5fN6Mx2NeymsAlMtllqVoAWze/bIwS2FpYrvdZmmiBkAymTS9Xo/FuRoA2WzWDIdDlqdrAJRKpa03WwCuuf9aBQ0Af9IDAAAAAAAAAAAAAAAAAAAAAAAAAAAAAAC0Ab6zgYMugJe3MDl1ASDl4U18kuoAdns/OZhzDwLYMd/zuZDfe0fy6deK3dZPDuqdVyZfPnBvJpPJgc+lsJmnI7m0ne1M+mMPJt2OwW7N6/Z2toQQQgghhJCdy0+jfsNTfAIN1QAAAABJRU5ErkJggg==;" parent="1" vertex="1">
                    <mxGeometry x="320" y="660" width="20" height="20" as="geometry"/>
                </mxCell>
                <mxCell id="102" value="" style="shape=image;verticalLabelPosition=bottom;labelBackgroundColor=default;verticalAlign=top;aspect=fixed;imageAspect=0;image=data:image/png,iVBORw0KGgoAAAANSUhEUgAAAGAAAABgCAYAAADimHc4AAAACXBIWXMAABJ0AAASdAHeZh94AAAC0UlEQVR42u3dS2saURjGcRdtP0sv3yoJIlESCCIhZBFRCAimphbqwoUgSAJBEMRaFRG8xGiiubUbP0J3baGLCG/PhLT0kjQm6JzjzP+BZz/n/RnHzIXj8RBCCCGEEELII3N2dvZqOBzuqF6qflaVOa+1hgvV+Onp6UtjBz8ajZ6qg0yqjh0w9Ls6VggJa61GDb/b7T5TB/fBwYP/u++NQlAH9M5Fw7+u+kt4a9J3/thtADdrfmHCp/+NC4f/s69NAPjkYoALEwC+uhjgiwkA4uYCAAAAAAAAAAAAAAAAAAAAAAAAAAAAAAAA2NPBYCDJZBIAHe12u7K1tSULCwsA2N16vS5ra2vXwwfA5haLRVleXv41fABsbC6Xk6WlpT+GD4BNJ9vd3d1/Bg+ADYs8OjqScDh85/ABmGGbzaaEQqH/Dh+AGbVcLksgELh3+ADMoHt7e+L1eicaPgBTPtmmUilZXFycePgATKn9fl+2t7cfNHgAprSQdrstGxsbjxq+iZ0rgEqlIisrK44Z/lwB5PN58fl8jhr+3ACk0+kHn2wBmALAycmJxONxRw7eeIBOpyObm5uOHj4AANz/FZRIJADQfRLOZrO3XtsHwMafoYVCgZ+huv8Rq9Vqsrq6CoDOSxGHh4eOOjnP5cW44+NjicViXIzTfT8gk8lwOVr3DZmDgwNuyOi+JVmtVie+SgrAjNpqtWR9fR0AnY+l9Ho9iUajAOh+MMu6VwyA5kcT9/f3bz05A2BjS6WS+P1+AHQ+nt5oNCQYDAKg8wUN65nRSCQCgO5XlKynpgHgJT0AAAAAAAAAAAAAAAAAAAAAAAAAAAAAAMDpAN/YwEEvgJu3MLk0ASDuYoCYdgBrez91IFcuHP7VYDB47jEhN3tH8unXlZt9JMtuGb765JfOz8+feEwKm3kakt+2s/2o+t0BQ7fWYG3Na/Z2toQQQgghhJC5yw8R5tFFAYEFRAAAAABJRU5ErkJggg==;" parent="1" vertex="1">
                    <mxGeometry x="320" y="640" width="20" height="20" as="geometry"/>
                </mxCell>
                <mxCell id="103" value="" style="rounded=0;whiteSpace=wrap;html=1;fontFamily=Helvetica;fontSize=11;fontColor=default;" parent="1" vertex="1">
                    <mxGeometry x="420" y="280" width="440" height="40" as="geometry"/>
                </mxCell>
                <mxCell id="104" value="" style="shape=image;verticalLabelPosition=bottom;labelBackgroundColor=#ffffff;verticalAlign=top;aspect=fixed;imageAspect=0;image=data:image/png,iVBORw0KGgoAAAANSUhEUgAAAGAAAABgCAYAAADimHc4AAAABmJLR0QA/wD/AP+gvaeTAAAGG0lEQVRYCe2ZW2gcVRjHz5ndpCUbsUiRQtGCoi+Fim2iUdvsbAJN4u6SvXTrDUVB90l9bIq+5MVifLP0xSBU8KGatJnE7m42hdTZJKUpXSIR+qIoVCnEJLRFCSTtzjl+J6vdXHZ3LjuzSZpv+L7JnOu38/vnXGaGEDyQABJAAkgACSABJIAEkAASQAJVInAonq3xhlKnqxRu04aRNuKXtUSS++rnZicJ5R9tRPzNFLPqAvhCw60aJ1lC+MHNBGKjfktVBWgOJ7oYZWm42d3gaEDADe64HT064lnyaF/Df/3rjgfbYgEcF6AllHp6ieYGgMsBcLQ1BBydgnzhZKdG+RTEPACOVoSAMyOgu1uSp184xQg/QQih4GglCNgugBxSdvHp2m854YESMTF7BQFbBfBF0/sZ0xTo/xlwNAMEbFsD5EjqGGO5SYiJ8AGCUat4BMRifa65XP1nnIv5nuJ8b5T8f/UqAvZyeOTxGqJ9D/t7meBRlEBG8ZdlbHkEeCPDjYTnLkDUJ8DRLBKwtAZ4w8n3CGdjEBPhA4RKzNQIEK+Q6+dnzxDO45UExbYFAoYFkGPJPXxuph+eqw4XmuNVpQQkIx3AFrOJ58QrZIrwjQAzUUdXAG8oEYctpkoI2QuOZjMBXQEIpTshpn49qIRmnoAuWNjHnoaPKE3Q9U1wNJsJ6Aog4o0PBKdojjXAC7ZRkUa3j4AhAUQ49WJwXrrjaaeE9og0uj0EDAsgwqmqL6cqr54knLwJb/kXRB56ZQRMCfB/qMyg/5zE2SuQ/h0crQIClgQQ8X5UgtP33K5GzumISKNbI0CtNVvZitPmcPIErA2nINe0oLDLsuE3QOQtaqaBrb9PyseUQA9Q7ISyu+BoJgjYIEA+mqr4ExohL8K3gRv5HDwbIWCbACLYhOL/JadpL4EI50UaXZ+ArQKIcFd+6PwH5vXj8NB2EtIwKOCMVpKA7QLkIz1YFwKQvg2OVoKAQwLko8G6kNbc7Hl4cMvmc/C8loCjAohgE/3BP+iuuiPw5PwNwWMdAdg9rstzLEN8W4DX22cgQA34ssF6UdXfsBx0E50cHwEr7zUzGOgljLdC3gw4GhCoqgAQj2SGAuMuN2uA60nwbW9VF0AQv9wfvFW3SGWYjnpFGh0JIAEkgASQABLYhgS84eSXh+LZB88l1UawIbugat+kTryP6+dmJ1siyX069RwpRgGWsfKDGidZX2i4dTlZxRMKUIC9m1GWbg4nugpZzl9t6/cwAi+sAVz8XePndiy4P7h0qW1hTb7tSRwBxZG+seTJXTkcTTxVvNi+XMm+rh66np5zMXrdF020OXlnKEB5uo8xRoflcOpz0t3tCCtHOi1/T1uulML37S7vdOOQHFJ22f3rUQDjRAOc1l7zRdP7jTfRr4kC6DNaWeNZxrSrciR1bGVmJdcogHl6j3DO+8S6EIv1ucw3X91C9zmgxD55dS/bN5W+53a9dbW//bZVBDgCrJLLt2uvva/9JEeTDfmk+TMKYJ7Z6haUPMkZGZdDyXeJhQMFsACtSJOdnJKz3kjqK7OvtlGAIjQtZ3Eer5/7a1SOJfcY7QMFMErKeL0jPEeysFVtMtIEBTBCyXydvbBVVb2hRFyvKQqgR8h6uUQkskOvuVuvApZbInATPu5ExgeCU3qtcQToETJZDi/uRmmONRiBL7pGAQQFm5wS2iPd8bSrF4PzRrvEKcgoqXL1KFmgnL+vKv7vylUrVoYCFKNiLu83RiWY7zt+NtcsXxsFyHOwdOaEDC0t0neuDXf8bakDaKT7NhTqPNRm8W0vg8X2kzHF/wUh8MGsAkI4AszDuwv/tW9nlEDCfNP1LVCA9UzK5PAbXOLhzIXgr2UqmSrCbahhXPw8dXuaxmyEL0LjCBAUyrsG8/2ndsz3xcKgAMWoFPJmKWevZQaDKnHoQAFKg73OmTuaGWr7s3SVyktwDSjO8Cx9tK55zGH4IjSOAEGh4PcJ5x9mBgO9hSxnr1CAAt8ZSqSYOtgxUchy/gqnoDzjSZebNahKdeGL0CgApb11i1S+3B+8JYCgIwEkgASQABJAAkgACSABJIAEnCbwL/J3jAfPFh69AAAAAElFTkSuQmCC;" parent="1" vertex="1">
                    <mxGeometry x="820" y="280" width="40" height="40" as="geometry"/>
                </mxCell>
                <mxCell id="105" value="" style="shape=image;verticalLabelPosition=bottom;labelBackgroundColor=#ffffff;verticalAlign=top;aspect=fixed;imageAspect=0;image=data:image/png,iVBORw0KGgoAAAANSUhEUgAAAGAAAABgCAYAAADimHc4AAAABmJLR0QA/wD/AP+gvaeTAAAFKElEQVRYCe2ZQWgcVRjH3xu2qzWzIaUtLYoms5ZexFMvRqSFoGIOSkXwoNWD4CFrU9pDaQUPBXtIT6U1TgWlglYPglhESEAI1IM9SE/ipZDd9FAhxWDZzKQau/P8XjI1083Ozps3b2YT+y/vy7x573vfN/P773Tmm2EM/0AABEAABEAABEAABEAABEAABEAABB5AAo67+CETghd96lbRCTdwvg8c1/vyqW9EuchjhABR2py96f/hTe05v9AfHc6zDwHa6NL/QSOtUnnG+dTb1TaVyy4E6Ix1H/uHXa1ONvd2njY3CgFiWQpHcP7Tk66/L9bFwAQE6AaRs10BE1cGXX+0m1uWOQiQSE/0WSy4XHW9NxJdNRwggBq0smDi0pDbPKHmru4FAdRZcc74hPPx4jl2ShjjZiyQ+nlsck/Ojjg7vS9MFWwQQOf3YLBgo7pD7QjoXYno5tmoVe6LZdq/W+6ezQl2dVmIl28e7l/QPQZcAbrk5DrOhsuW9UuWgg0CSJCZLFvBBgEywQ8XZyjYIEDIMPtGr2CDANnJRyOkLtggQBSfoT4XvKQaStlRNeAD7vcXlcuH6rXKt6ocIIAqqWS/psXZq7NjlZlk1zUPCLDGIkvvd97iL82O27+mDYJ7QFpi6/2vB63Wc3UN+DIUBJAUdE2+igjEszfGBxq6Ie57f6Mb5P+wLundVYdzvCL+vntw7ti22x3mlIdwBSijWnMUgl8cvGU/nxW+jIibsKSQwuijzJlGre/9Oc5FimWxrrgCYtGsmwjol3+0XrNPMkPwZQZcAZJCsq0UWI2arVxgJYdc9YAAqxy6/dUqsLoFjM5BgCiN9X3tAmt9qM4juAd05iJHMxVYMoCKQYBOlAwUWJ3CdhqDAG1UOBNTS0v+CzcP9y+0TeWyCwEiWOkx8+ITtyqvzB/f7UeG0S2CQNX1JhgpUEQu5AABEAABEACB3hCgG51zYfF0b5JvvKyFfpAZ+lw8zO94lwjDa41apdDclHNDtlJRR7Xn/EL/3Tved5RvhAwtJFCIAI9/5D/aKgXT9Anj6TAvNiGB3AWoTjb3CktMM8GcMCc2EQJWpG+8O/hJc1hY/GfGBODH0M1NgEHXH7UC60fKu50MLYZALgJULzTfsVjwPf3y+2LyYjgkYFyAIbd5gh71P6P4ud9fKMemb+YgnRKWs9M7S0SOkKEpEjAiQLTAUswLt5BAZgFQYIUkNTdcc93Ksscmm9vLFv+Bdp4h21St/VWI4y6KbieQ1T8utvYVsFpgWdP0pOPEBcd4MgGtpyAUWMlgVT1SC4ACSxWtml8qAVBgqUFN46UsAAqsNFjVfZUF4IxvUQ8LT1UCygLQY9hpzvlbFHiZDM0QAWUBZL76mP2Vxdko9ZtkaAYIpBJA5psdq8xYzBqhDyzzch+WjUBqAWS62VrftSBoDVP/OhlaBgJaAsh8N8YHGmwL30/9a2RomgS45rr/lg2d/XOAP1S6TAMHyJQb3dQz51ZOtoEdta+Ae+c0d2zb7Ud22C8Kxr6+N4atOoHMAshUv73Ol+fG7ENUK5yR+zB1AkYEWEnHuajX7JP0OfIo7QdkaAoEzAkQJpt7zz5HBdvbtLtMhpZAwLgAMh8KNklBzXIRQKZGwSYpJFtuAsjUKNgkhe6WqwAyNQo2SSHechdApm68a88v+f4BzsSU3IetEShEAJlu/vhuf+uOykEUbJJGL40KharrTfTyEJAbBEAABEAABEAABEAABEAABEAABECgVwT+Bbu7ZeBbIGIFAAAAAElFTkSuQmCC;flipV=1;" parent="1" vertex="1">
                    <mxGeometry x="620" y="280" width="40" height="40" as="geometry"/>
                </mxCell>
                <mxCell id="106" value="" style="shape=image;verticalLabelPosition=bottom;labelBackgroundColor=#ffffff;verticalAlign=top;aspect=fixed;imageAspect=0;image=data:image/png,iVBORw0KGgoAAAANSUhEUgAAAGAAAABgCAYAAADimHc4AAAABmJLR0QA/wD/AP+gvaeTAAAGG0lEQVRYCe2ZW2gcVRjHz5ndpCUbsUiRQtGCoi+Fim2iUdvsbAJN4u6SvXTrDUVB90l9bIq+5MVifLP0xSBU8KGatJnE7m42hdTZJKUpXSIR+qIoVCnEJLRFCSTtzjl+J6vdXHZ3LjuzSZpv+L7JnOu38/vnXGaGEDyQABJAAkgACSABJIAEkAASQAJVInAonq3xhlKnqxRu04aRNuKXtUSS++rnZicJ5R9tRPzNFLPqAvhCw60aJ1lC+MHNBGKjfktVBWgOJ7oYZWm42d3gaEDADe64HT064lnyaF/Df/3rjgfbYgEcF6AllHp6ieYGgMsBcLQ1BBydgnzhZKdG+RTEPACOVoSAMyOgu1uSp184xQg/QQih4GglCNgugBxSdvHp2m854YESMTF7BQFbBfBF0/sZ0xTo/xlwNAMEbFsD5EjqGGO5SYiJ8AGCUat4BMRifa65XP1nnIv5nuJ8b5T8f/UqAvZyeOTxGqJ9D/t7meBRlEBG8ZdlbHkEeCPDjYTnLkDUJ8DRLBKwtAZ4w8n3CGdjEBPhA4RKzNQIEK+Q6+dnzxDO45UExbYFAoYFkGPJPXxuph+eqw4XmuNVpQQkIx3AFrOJ58QrZIrwjQAzUUdXAG8oEYctpkoI2QuOZjMBXQEIpTshpn49qIRmnoAuWNjHnoaPKE3Q9U1wNJsJ6Aog4o0PBKdojjXAC7ZRkUa3j4AhAUQ49WJwXrrjaaeE9og0uj0EDAsgwqmqL6cqr54knLwJb/kXRB56ZQRMCfB/qMyg/5zE2SuQ/h0crQIClgQQ8X5UgtP33K5GzumISKNbI0CtNVvZitPmcPIErA2nINe0oLDLsuE3QOQtaqaBrb9PyseUQA9Q7ISyu+BoJgjYIEA+mqr4ExohL8K3gRv5HDwbIWCbACLYhOL/JadpL4EI50UaXZ+ArQKIcFd+6PwH5vXj8NB2EtIwKOCMVpKA7QLkIz1YFwKQvg2OVoKAQwLko8G6kNbc7Hl4cMvmc/C8loCjAohgE/3BP+iuuiPw5PwNwWMdAdg9rstzLEN8W4DX22cgQA34ssF6UdXfsBx0E50cHwEr7zUzGOgljLdC3gw4GhCoqgAQj2SGAuMuN2uA60nwbW9VF0AQv9wfvFW3SGWYjnpFGh0JIAEkgASQABLYhgS84eSXh+LZB88l1UawIbugat+kTryP6+dmJ1siyX069RwpRgGWsfKDGidZX2i4dTlZxRMKUIC9m1GWbg4nugpZzl9t6/cwAi+sAVz8XePndiy4P7h0qW1hTb7tSRwBxZG+seTJXTkcTTxVvNi+XMm+rh66np5zMXrdF020OXlnKEB5uo8xRoflcOpz0t3tCCtHOi1/T1uulML37S7vdOOQHFJ22f3rUQDjRAOc1l7zRdP7jTfRr4kC6DNaWeNZxrSrciR1bGVmJdcogHl6j3DO+8S6EIv1ucw3X91C9zmgxD55dS/bN5W+53a9dbW//bZVBDgCrJLLt2uvva/9JEeTDfmk+TMKYJ7Z6haUPMkZGZdDyXeJhQMFsACtSJOdnJKz3kjqK7OvtlGAIjQtZ3Eer5/7a1SOJfcY7QMFMErKeL0jPEeysFVtMtIEBTBCyXydvbBVVb2hRFyvKQqgR8h6uUQkskOvuVuvApZbInATPu5ExgeCU3qtcQToETJZDi/uRmmONRiBL7pGAQQFm5wS2iPd8bSrF4PzRrvEKcgoqXL1KFmgnL+vKv7vylUrVoYCFKNiLu83RiWY7zt+NtcsXxsFyHOwdOaEDC0t0neuDXf8bakDaKT7NhTqPNRm8W0vg8X2kzHF/wUh8MGsAkI4AszDuwv/tW9nlEDCfNP1LVCA9UzK5PAbXOLhzIXgr2UqmSrCbahhXPw8dXuaxmyEL0LjCBAUyrsG8/2ndsz3xcKgAMWoFPJmKWevZQaDKnHoQAFKg73OmTuaGWr7s3SVyktwDSjO8Cx9tK55zGH4IjSOAEGh4PcJ5x9mBgO9hSxnr1CAAt8ZSqSYOtgxUchy/gqnoDzjSZebNahKdeGL0CgApb11i1S+3B+8JYCgIwEkgASQABJAAkgACSABJIAEnCbwL/J3jAfPFh69AAAAAElFTkSuQmCC;" parent="1" vertex="1">
                    <mxGeometry x="420" y="280" width="40" height="40" as="geometry"/>
                </mxCell>
                <mxCell id="107" style="edgeStyle=orthogonalEdgeStyle;shape=connector;rounded=1;jumpStyle=none;html=1;exitX=0;exitY=0.5;exitDx=0;exitDy=0;entryX=0;entryY=0.5;entryDx=0;entryDy=0;labelBackgroundColor=default;fontFamily=Helvetica;fontSize=11;fontColor=default;endArrow=classic;strokeColor=default;" parent="1" source="109" target="111" edge="1">
                    <mxGeometry relative="1" as="geometry">
                        <Array as="points">
                            <mxPoint x="440" y="290"/>
                            <mxPoint x="440" y="310"/>
                        </Array>
                    </mxGeometry>
                </mxCell>
                <mxCell id="108" style="edgeStyle=orthogonalEdgeStyle;shape=connector;rounded=1;jumpStyle=none;orthogonalLoop=1;jettySize=auto;html=1;exitX=0;exitY=0.5;exitDx=0;exitDy=0;entryX=1;entryY=0.5;entryDx=0;entryDy=0;labelBackgroundColor=default;strokeColor=default;fontFamily=Helvetica;fontSize=11;fontColor=default;endArrow=classic;" parent="1" source="109" target="115" edge="1">
                    <mxGeometry relative="1" as="geometry"/>
                </mxCell>
                <mxCell id="109" value="&lt;span style=&quot;font-size: 12px ; text-align: right&quot;&gt;initializeModule&lt;/span&gt;" style="rounded=0;whiteSpace=wrap;html=1;fontFamily=Helvetica;fontSize=11;fontColor=default;fillColor=none;strokeColor=none;" parent="1" vertex="1">
                    <mxGeometry x="470" y="280" width="140" height="20" as="geometry"/>
                </mxCell>
                <mxCell id="110" value="&lt;span style=&quot;font-size: 12px ; text-align: right&quot;&gt;initializeModule&lt;/span&gt;" style="rounded=0;whiteSpace=wrap;html=1;fontFamily=Helvetica;fontSize=11;fontColor=default;fillColor=none;strokeColor=none;" parent="1" vertex="1">
                    <mxGeometry x="670" y="280" width="140" height="20" as="geometry"/>
                </mxCell>
                <mxCell id="111" value="&lt;span style=&quot;font-size: 12px ; text-align: right&quot;&gt;initializeModuleAck&lt;/span&gt;" style="rounded=0;whiteSpace=wrap;html=1;fontFamily=Helvetica;fontSize=11;fontColor=default;fillColor=none;strokeColor=none;" parent="1" vertex="1">
                    <mxGeometry x="470" y="300" width="140" height="20" as="geometry"/>
                </mxCell>
                <mxCell id="112" style="edgeStyle=orthogonalEdgeStyle;shape=connector;rounded=1;jumpStyle=none;orthogonalLoop=1;jettySize=auto;html=1;exitX=1;exitY=0.5;exitDx=0;exitDy=0;entryX=0;entryY=0.5;entryDx=0;entryDy=0;labelBackgroundColor=default;strokeColor=default;fontFamily=Helvetica;fontSize=11;fontColor=default;endArrow=classic;" parent="1" source="113" target="119" edge="1">
                    <mxGeometry relative="1" as="geometry"/>
                </mxCell>
                <mxCell id="113" value="&lt;span style=&quot;font-size: 12px ; text-align: right&quot;&gt;initializeModuleAck&lt;/span&gt;" style="rounded=0;whiteSpace=wrap;html=1;fontFamily=Helvetica;fontSize=11;fontColor=default;fillColor=none;strokeColor=none;" parent="1" vertex="1">
                    <mxGeometry x="670" y="300" width="140" height="20" as="geometry"/>
                </mxCell>
                <mxCell id="114" value="initializeModule" style="shape=display;whiteSpace=wrap;html=1;fontFamily=Helvetica;fontSize=11;fillColor=#d5e8d4;size=0.16666666666666666;strokeColor=#82b366;" parent="1" vertex="1">
                    <mxGeometry x="60" y="320" width="120" height="40" as="geometry"/>
                </mxCell>
                <mxCell id="115" value="" style="shape=image;verticalLabelPosition=bottom;labelBackgroundColor=default;verticalAlign=top;aspect=fixed;imageAspect=0;image=data:image/png,iVBORw0KGgoAAAANSUhEUgAAAGAAAABgCAYAAADimHc4AAAABmJLR0QA/wD/AP+gvaeTAAAFKklEQVRYCe2Z329URRTHv7O/7rbbCi0oRoISJbxUAaGRJyWQhWKiJRIxISa+NMEQfzyJRkz8E2ygkJiYEo0v6oOJFvlRSTXBXxGIJQYqIWKs0VQlgOL+6u7d8cymTe5DX3rv7M7M3tPM6c5cOjPnfD6de8suwF9MgAkwASbABJgAE2ACTIAJxI2A0FVwZWKyT/oYgsQOCKygdZdTuNyuU/IzVM+4SNRHvfzGyzTW3iILkOfPpys3U29RZvspkhTt2HwIecRb6h8Q/f1VnQVGEiA/upSp9FTHKKEdFHFop7ye2qBOCYko1Aj+IZofF/hUKnZWbqWGVUdXhD4Bc/f8i5RIu952qLQFmy/gP+Rt3zS14L8u8mLoE0AP3Odpr7jBp5KRlEjtUx0dEVoAIPI6EnBzDamt9ggC5Co34WnJ+j4tq9AiEQSgi+bHtXXrKjyKAF05xHodFmBYPwtgAYYJGN6eTwALMEzA8PZ8AliAYQKGt+cTwAIMEzC8PZ8AFmCYgOHt+QSwgJAEpET5w69CTrZnmpMnQBYrKAx/gsr4D/aQDJlJKuQ8Y9PqMzdROHwc9T9vGctB58ZOCahd+R2loydQL5R1MjC6ljMCql9PofTeF5C+bxSY7s3tF0AP29IHZzF75qLu2q1Yz2oBsjyL4tunUPvxVytgNSMJawXUb/yH4uEx+L9db0bd1qxppYDaL3+hODIG+U/RGlDNSsQ6AbPfXUH53QnIaq1ZNVu1rj0C6GFb+fQcymPfA9S3ilITk7FCgJytoXTsDKrnrjaxVDuXFmHTKn8+KcPODc6T/xZRGPkM/rWZ4GVn+yumRxfF1OgJ8Kf/JvjHIekvHmeJR0zcmIDq5DWU3hmHLFcjluD2dCMCKicvoPzxt0Bdy13MaQOtFeDXUXr/S8yeveQ0NJ3Jt0yAvF1G4Sg9bK/+oTN/59dq4QcyfLtZ6LelZQJEdwe6DuxGZtu6hfKI7bWWCWgQTgp0PLsFHc9tA6jfuBbzbwkT9We29CH38iBER8bE9lbtaUSAIpB68F7kXn8aiWV3qGFsw5gARTy5chm63nwGybUr1TCWsaj3LYKEdL0XpNaUNb/xeW/1myk1XFQsGX1pUT+v64ez2zeEZhfMwegJmE9EpJLoHMoju/dRQGipa35p61+tEDBPyctvQOf+nRCZlv3/cH5rY69WCVAU0pvWIHdwD0Rvtxq2fVgnQBFPrlqO7jf2ILn6LjVs67BSgCIuluaQe3U30g8/oIZtG9YKUMSFl0bnC48jO7hZDdsyrBbQIE5/FXm7HkHHvgGIdPs9nO0X0LAAZDavRe6Vp6De1Ju71BYvzghQtJNr7kaXejjf06uGbRFOCVDEE3cuQY4kpNevRjt8OSdAQRfZDDpffAKZ/Ho1dDqcFNAgnqDPFvY+1ui6/M1dAS5TD+TOAgIwTHRZgAnqgT1ZQACGiS4LMEE9sCcLCMAw0WUBJqgH9mQBARgmuizABPXAniwgAMNElwWYoB7YkwUEYJjosgAT1AN7RhFQCKwTt+5tXQVHECCmdSXh3DoS2mpPhC5eypOh57o+UYgTukoILUAk6qOURI0ibq0m6uKYrqJDC/DyGy9TEiMUMWti2BtY95OuokMLUAl4PbXX6PU0RTwa3Xa91I2DOouNJED091dJwpOU0BEKn6Jdmw8hD3m9/i6xdavW267QRawyMdknfQzRegMU91NkKVxuZUj8TAWcVs+7uVsuDbkxASbABJgAE2ACTIAJMAEmwASiEfgf6ZsVh8Ca6qkAAAAASUVORK5CYII=;" parent="1" vertex="1">
                    <mxGeometry x="320" y="300" width="20" height="20" as="geometry"/>
                </mxCell>
                <mxCell id="116" value="" style="shape=image;verticalLabelPosition=bottom;labelBackgroundColor=default;verticalAlign=top;aspect=fixed;imageAspect=0;image=data:image/png,iVBORw0KGgoAAAANSUhEUgAAAGAAAABgCAYAAADimHc4AAAACXBIWXMAABJ0AAASdAHeZh94AAACsElEQVR42u3dTYtSURzHcRczReuC3kJPm15Fu15GbyHEjY+IDppoEpiK4GZw4UoqUReFKAOiomP4RJuWbaIJWszA6X8iYVpYMDD9j97vD377e87He6/ee+T4fIQQQgghhBByxczn84fL5TK9WCxOpV+kZsdrxzCVpmRcD5yd+NVqdSgHmJMDvdiDSd9WO7aMHatTk79er2/IgTX3eOL/qJzlb51CkIN65ZXJv4Tw0plr/p5fdrZejuSSe9+FT3/Wg5O/OQteuADw0asA9tuRCwBnHgb45gKA8XIBAAAAAAAAAAAAAAAAAAAAAAAAAAAAAAAAdqu1Ws2+YAFAq5FIxBQKBTOdTgHQArDNZDJmMBgAoAVgm0gkTLfbBUALwDYWi5lmswmAFsCmx8fHf705A3DNALbFYtHMZjMAtABsc7mcGY1GAGgB2B4dHZl+vw+AFsDm5txqtQDQArCNRqOmXq//ujkDoACwaaVSMaFQ6NZOAlxlwI62L2fEXQAUGw6HPwvCYwB0eyYITwHQ7YUgPAdAv6/T6fQhALr9IL8Z7gAAgCcBcn6//4BL0P/vudyEn3ET1ulX+T3whK+hOv0kfcQPMZ2+DwaDt3kYp/AwrlqtmkAgcJOnoQqPoxuNBu8DNADi8bjpdDq8kNEASKVS5uTkhFeSGgD5fN6Mx2NeymsAlMtllqVoAWze/bIwS2FpYrvdZmmiBkAymTS9Xo/FuRoA2WzWDIdDlqdrAJRKpa03WwCuuf9aBQ0Af9IDAAAAAAAAAAAAAAAAAAAAAAAAAAAAAAC0Ab6zgYMugJe3MDl1ASDl4U18kuoAdns/OZhzDwLYMd/zuZDfe0fy6deK3dZPDuqdVyZfPnBvJpPJgc+lsJmnI7m0ne1M+mMPJt2OwW7N6/Z2toQQQgghhJCdy0+jfsNTfAIN1QAAAABJRU5ErkJggg==;" parent="1" vertex="1">
                    <mxGeometry x="320" y="280" width="20" height="20" as="geometry"/>
                </mxCell>
                <mxCell id="117" style="edgeStyle=orthogonalEdgeStyle;shape=connector;rounded=1;jumpStyle=none;orthogonalLoop=1;jettySize=auto;html=1;exitX=0;exitY=0.5;exitDx=0;exitDy=0;labelBackgroundColor=default;strokeColor=default;fontFamily=Helvetica;fontSize=11;fontColor=default;endArrow=classic;" parent="1" source="118" target="110" edge="1">
                    <mxGeometry relative="1" as="geometry"/>
                </mxCell>
                <mxCell id="118" value="" style="shape=image;verticalLabelPosition=bottom;labelBackgroundColor=default;verticalAlign=top;aspect=fixed;imageAspect=0;image=data:image/png,iVBORw0KGgoAAAANSUhEUgAAAGAAAABgCAYAAADimHc4AAAABmJLR0QA/wD/AP+gvaeTAAAE2ElEQVRYCe2Z32scVRTHv2e3iVESuoHgL1qLjZZCUGi6hYpPjdFKbeMP0MQ3aUtEq49S8A/wV8EQzJMS8UHtL+xL0RixQQpWiUEQayrFtFELplobo8bEJpvjmcDSdWk2szM3e7PZ73IPM3Pn3HvO/XznzEwmAH8kQAIkQAIkQAIkQAIkQAKVRkBcLVgHB5qQ1D1QfcDmvMmswayc2yVAxgD9BAn0SnPr8FIsJrYAOjRUBRl/HSrPWIJJs5XYMraoHiD1gqTTM7bvrMUSQL87Uo2p+uN2pQRXvbOklu1Eio8hqTaXIiRiLXaqvrti4AegBA9C/+gKdl1Z5AqYv+cn5r6xRFbqbceWds2Wgehdsvn+M9c8W2Rn9ApI6NMWq9Lg25KRxBw6gx0XFl0AaKuLBMpyDkk4W3sMAbC2LOE5SVrXOZnGJokjQK2Nr9RW52rhcQRwlUNFz0MBPMtPASiAZwKew7MCKIBnAp7DswIogGcCnsOzAiiAZwKew7MCKIBnAp7DswIogGcCn30AqHpLghXwVT9wtBuY/seLCBQgwP7jMPDuS8DlseCopEYBsrjHfwXeexX4+Wy2pyRbCpCLeXrSbkddwOlTub1Luk8B8vFmMkDfO8CJQyV5OFMALPD7egA41gNcmV7AwU03BSjE8dy3wPuvAX9eLuQV6xwFWAzfbxfsDellYGwUS/GjAGGoTk5YJRwAzgyG8S7KhwKExZWZAT7sBU4dd/pwXhU2Pv2MQPDJ4nMT4PdfoI+vuV6OXpiy3lhNoo7WoU+jfUA50Bk15DIbJ18iMfeIHDx/MU5ivAVFpqdbkZEh7bhjU+QpbCAFMAiRm2ANdO6kdtzeFnUOChCV3NVxtVA5ph3r91/tCr9HAcKzKuSZhOIVbW98Szs3VxVyzD9HAfKJxDrWvZgYP6FPbmgIOw0FCEtqifwogFOw0oOLt7XIwbOXwk7LP8TCkirsNwuRfXJo5E1gpLBn3lkKkAckwuGEvYq2y+FR++dy8aMpQPHMckecB6RNjoyezu0sZp/PgGJo/d/3JK5Ub5HDI5HhB9OV/ltQEHU5WZRvU01bgS8Ga6Tvh3/jLoUVUAxBseu1pR3YsRsu4Aeh+QwIKISxqup58NjQHMY7tA8FCIOqrh547DngxrVhvIvyoQCL4bp5HfDoPqA2tZhnpPMUoBC2OzcBD+0Gqq4r5BXrHAVYCN+9u4B7dtprvj14F/Jx0E8B8iEm7WvyjqeAjVtQih8FyKV8Q53d758Fbm3M7V3SfQqQxdtwi73pPA+sbsj2lGRLAQLMjXcDO/cC1TXBUUltVUmjLcdgzS1AyxP2sE14yY4C3NfhBXw2qB/Zs9G5BQXwfBFQAArgmYDn8KwACuCZgOfwrAAK4JmA5/CsAArgmYDn8KwACuCZgOfwrIAyFmDSc+4+w//lKnicCvjJVRJlOI+ztSdiLL4vxtjyHqr4yNUCoguQQK8lMWtWaW0Wknnb1aIjCyDNrcMQecNVImUzj6JL0tu/d5VvZAHmE9DV+23bb1YZTdCHv5MvulxsLAEknZ4BUrsg2mNJZcxWagvW1g1NPSzbtjm97YorYjo40ISk7oHqdptzvVmNWTm3aUt+xKzf/nHbO3/LtQM2EiABEiABEiABEiABEiABEohL4D/YHuY1rKwR1QAAAABJRU5ErkJggg==;flipH=1;" parent="1" vertex="1">
                    <mxGeometry x="940" y="280" width="20" height="20" as="geometry"/>
                </mxCell>
                <mxCell id="119" value="" style="shape=image;verticalLabelPosition=bottom;labelBackgroundColor=default;verticalAlign=top;aspect=fixed;imageAspect=0;image=data:image/png,iVBORw0KGgoAAAANSUhEUgAAAGAAAABgCAYAAADimHc4AAAABmJLR0QA/wD/AP+gvaeTAAAFKklEQVRYCe2Z329URRTHv7O/7rbbCi0oRoISJbxUAaGRJyWQhWKiJRIxISa+NMEQfzyJRkz8E2ygkJiYEo0v6oOJFvlRSTXBXxGIJQYqIWKs0VQlgOL+6u7d8cymTe5DX3rv7M7M3tPM6c5cOjPnfD6de8suwF9MgAkwASbABJgAE2ACTIAJxI2A0FVwZWKyT/oYgsQOCKygdZdTuNyuU/IzVM+4SNRHvfzGyzTW3iILkOfPpys3U29RZvspkhTt2HwIecRb6h8Q/f1VnQVGEiA/upSp9FTHKKEdFHFop7ye2qBOCYko1Aj+IZofF/hUKnZWbqWGVUdXhD4Bc/f8i5RIu952qLQFmy/gP+Rt3zS14L8u8mLoE0AP3Odpr7jBp5KRlEjtUx0dEVoAIPI6EnBzDamt9ggC5Co34WnJ+j4tq9AiEQSgi+bHtXXrKjyKAF05xHodFmBYPwtgAYYJGN6eTwALMEzA8PZ8AliAYQKGt+cTwAIMEzC8PZ8AFmCYgOHt+QSwgJAEpET5w69CTrZnmpMnQBYrKAx/gsr4D/aQDJlJKuQ8Y9PqMzdROHwc9T9vGctB58ZOCahd+R2loydQL5R1MjC6ljMCql9PofTeF5C+bxSY7s3tF0AP29IHZzF75qLu2q1Yz2oBsjyL4tunUPvxVytgNSMJawXUb/yH4uEx+L9db0bd1qxppYDaL3+hODIG+U/RGlDNSsQ6AbPfXUH53QnIaq1ZNVu1rj0C6GFb+fQcymPfA9S3ilITk7FCgJytoXTsDKrnrjaxVDuXFmHTKn8+KcPODc6T/xZRGPkM/rWZ4GVn+yumRxfF1OgJ8Kf/JvjHIekvHmeJR0zcmIDq5DWU3hmHLFcjluD2dCMCKicvoPzxt0Bdy13MaQOtFeDXUXr/S8yeveQ0NJ3Jt0yAvF1G4Sg9bK/+oTN/59dq4QcyfLtZ6LelZQJEdwe6DuxGZtu6hfKI7bWWCWgQTgp0PLsFHc9tA6jfuBbzbwkT9We29CH38iBER8bE9lbtaUSAIpB68F7kXn8aiWV3qGFsw5gARTy5chm63nwGybUr1TCWsaj3LYKEdL0XpNaUNb/xeW/1myk1XFQsGX1pUT+v64ez2zeEZhfMwegJmE9EpJLoHMoju/dRQGipa35p61+tEDBPyctvQOf+nRCZlv3/cH5rY69WCVAU0pvWIHdwD0Rvtxq2fVgnQBFPrlqO7jf2ILn6LjVs67BSgCIuluaQe3U30g8/oIZtG9YKUMSFl0bnC48jO7hZDdsyrBbQIE5/FXm7HkHHvgGIdPs9nO0X0LAAZDavRe6Vp6De1Ju71BYvzghQtJNr7kaXejjf06uGbRFOCVDEE3cuQY4kpNevRjt8OSdAQRfZDDpffAKZ/Ho1dDqcFNAgnqDPFvY+1ui6/M1dAS5TD+TOAgIwTHRZgAnqgT1ZQACGiS4LMEE9sCcLCMAw0WUBJqgH9mQBARgmuizABPXAniwgAMNElwWYoB7YkwUEYJjosgAT1AN7RhFQCKwTt+5tXQVHECCmdSXh3DoS2mpPhC5eypOh57o+UYgTukoILUAk6qOURI0ibq0m6uKYrqJDC/DyGy9TEiMUMWti2BtY95OuokMLUAl4PbXX6PU0RTwa3Xa91I2DOouNJED091dJwpOU0BEKn6Jdmw8hD3m9/i6xdavW267QRawyMdknfQzRegMU91NkKVxuZUj8TAWcVs+7uVsuDbkxASbABJgAE2ACTIAJMAEmwASiEfgf6ZsVh8Ca6qkAAAAASUVORK5CYII=;flipH=1;" parent="1" vertex="1">
                    <mxGeometry x="940" y="300" width="20" height="20" as="geometry"/>
                </mxCell>
                <mxCell id="120" value="&lt;span style=&quot;font-size: 12px;&quot;&gt;initializeModuleAck&lt;/span&gt;" style="rounded=0;whiteSpace=wrap;html=1;fontFamily=Helvetica;fontSize=11;fontColor=default;fillColor=none;strokeColor=none;align=left;" parent="1" vertex="1">
                    <mxGeometry x="960" y="300" width="140" height="20" as="geometry"/>
                </mxCell>
                <mxCell id="121" value="" style="endArrow=none;dashed=1;html=1;rounded=1;labelBackgroundColor=default;strokeColor=default;fontFamily=Helvetica;fontSize=11;fontColor=default;shape=connector;jumpStyle=none;" parent="1" edge="1">
                    <mxGeometry width="50" height="50" relative="1" as="geometry">
                        <mxPoint x="199.99999999999955" y="279.9999999999998" as="sourcePoint"/>
                        <mxPoint x="1079.9999999999995" y="279.9999999999998" as="targetPoint"/>
                    </mxGeometry>
                </mxCell>
                <mxCell id="122" value="&lt;span style=&quot;font-size: 12px;&quot;&gt;SS LOW - Communication Slot started&lt;/span&gt;" style="rounded=0;whiteSpace=wrap;html=1;fontFamily=Helvetica;fontSize=11;fontColor=default;fillColor=none;strokeColor=none;align=left;" parent="1" vertex="1">
                    <mxGeometry x="1080" y="270" width="220" height="20" as="geometry"/>
                </mxCell>
                <mxCell id="123" value="" style="endArrow=none;dashed=1;html=1;rounded=1;labelBackgroundColor=default;strokeColor=default;fontFamily=Helvetica;fontSize=11;fontColor=default;shape=connector;jumpStyle=none;" parent="1" edge="1">
                    <mxGeometry width="50" height="50" relative="1" as="geometry">
                        <mxPoint x="199.99999999999955" y="239.99999999999977" as="sourcePoint"/>
                        <mxPoint x="1079.9999999999995" y="239.99999999999977" as="targetPoint"/>
                    </mxGeometry>
                </mxCell>
                <mxCell id="124" value="&lt;span style=&quot;font-size: 12px;&quot;&gt;Power connected to module&lt;/span&gt;" style="rounded=0;whiteSpace=wrap;html=1;fontFamily=Helvetica;fontSize=11;fontColor=default;fillColor=none;strokeColor=none;align=left;" parent="1" vertex="1">
                    <mxGeometry x="1080" y="230" width="220" height="20" as="geometry"/>
                </mxCell>
                <mxCell id="125" value="" style="endArrow=none;dashed=1;html=1;rounded=1;labelBackgroundColor=default;strokeColor=default;fontFamily=Helvetica;fontSize=11;fontColor=default;shape=connector;jumpStyle=none;" parent="1" edge="1">
                    <mxGeometry width="50" height="50" relative="1" as="geometry">
                        <mxPoint x="199.99999999999955" y="319.9999999999998" as="sourcePoint"/>
                        <mxPoint x="1079.9999999999995" y="319.9999999999998" as="targetPoint"/>
                    </mxGeometry>
                </mxCell>
                <mxCell id="126" value="&lt;span style=&quot;font-size: 12px;&quot;&gt;SS HIGH - Communication Slot ended&lt;/span&gt;" style="rounded=0;whiteSpace=wrap;html=1;fontFamily=Helvetica;fontSize=11;fontColor=default;fillColor=none;strokeColor=none;align=left;" parent="1" vertex="1">
                    <mxGeometry x="1080" y="310" width="220" height="20" as="geometry"/>
                </mxCell>
                <mxCell id="127" value="&lt;span style=&quot;font-size: 12px;&quot;&gt;initializeModule&lt;/span&gt;" style="rounded=0;whiteSpace=wrap;html=1;fontFamily=Helvetica;fontSize=11;fontColor=default;fillColor=none;strokeColor=none;align=right;" parent="1" vertex="1">
                    <mxGeometry x="200" y="300" width="120" height="20" as="geometry"/>
                </mxCell>
                <mxCell id="128" style="edgeStyle=orthogonalEdgeStyle;shape=connector;rounded=1;jumpStyle=none;orthogonalLoop=1;jettySize=auto;html=1;exitX=0;exitY=0.5;exitDx=0;exitDy=0;labelBackgroundColor=default;strokeColor=default;fontFamily=Helvetica;fontSize=11;fontColor=default;endArrow=classic;" parent="1" source="129" target="114" edge="1">
                    <mxGeometry relative="1" as="geometry"/>
                </mxCell>
                <mxCell id="129" value="" style="shape=image;verticalLabelPosition=bottom;labelBackgroundColor=default;verticalAlign=top;aspect=fixed;imageAspect=0;image=data:image/png,iVBORw0KGgoAAAANSUhEUgAAAGAAAABgCAYAAADimHc4AAAABmJLR0QA/wD/AP+gvaeTAAAFKklEQVRYCe2Z329URRTHv7O/7rbbCi0oRoISJbxUAaGRJyWQhWKiJRIxISa+NMEQfzyJRkz8E2ygkJiYEo0v6oOJFvlRSTXBXxGIJQYqIWKs0VQlgOL+6u7d8cymTe5DX3rv7M7M3tPM6c5cOjPnfD6de8suwF9MgAkwASbABJgAE2ACTIAJxI2A0FVwZWKyT/oYgsQOCKygdZdTuNyuU/IzVM+4SNRHvfzGyzTW3iILkOfPpys3U29RZvspkhTt2HwIecRb6h8Q/f1VnQVGEiA/upSp9FTHKKEdFHFop7ye2qBOCYko1Aj+IZofF/hUKnZWbqWGVUdXhD4Bc/f8i5RIu952qLQFmy/gP+Rt3zS14L8u8mLoE0AP3Odpr7jBp5KRlEjtUx0dEVoAIPI6EnBzDamt9ggC5Co34WnJ+j4tq9AiEQSgi+bHtXXrKjyKAF05xHodFmBYPwtgAYYJGN6eTwALMEzA8PZ8AliAYQKGt+cTwAIMEzC8PZ8AFmCYgOHt+QSwgJAEpET5w69CTrZnmpMnQBYrKAx/gsr4D/aQDJlJKuQ8Y9PqMzdROHwc9T9vGctB58ZOCahd+R2loydQL5R1MjC6ljMCql9PofTeF5C+bxSY7s3tF0AP29IHZzF75qLu2q1Yz2oBsjyL4tunUPvxVytgNSMJawXUb/yH4uEx+L9db0bd1qxppYDaL3+hODIG+U/RGlDNSsQ6AbPfXUH53QnIaq1ZNVu1rj0C6GFb+fQcymPfA9S3ilITk7FCgJytoXTsDKrnrjaxVDuXFmHTKn8+KcPODc6T/xZRGPkM/rWZ4GVn+yumRxfF1OgJ8Kf/JvjHIekvHmeJR0zcmIDq5DWU3hmHLFcjluD2dCMCKicvoPzxt0Bdy13MaQOtFeDXUXr/S8yeveQ0NJ3Jt0yAvF1G4Sg9bK/+oTN/59dq4QcyfLtZ6LelZQJEdwe6DuxGZtu6hfKI7bWWCWgQTgp0PLsFHc9tA6jfuBbzbwkT9We29CH38iBER8bE9lbtaUSAIpB68F7kXn8aiWV3qGFsw5gARTy5chm63nwGybUr1TCWsaj3LYKEdL0XpNaUNb/xeW/1myk1XFQsGX1pUT+v64ez2zeEZhfMwegJmE9EpJLoHMoju/dRQGipa35p61+tEDBPyctvQOf+nRCZlv3/cH5rY69WCVAU0pvWIHdwD0Rvtxq2fVgnQBFPrlqO7jf2ILn6LjVs67BSgCIuluaQe3U30g8/oIZtG9YKUMSFl0bnC48jO7hZDdsyrBbQIE5/FXm7HkHHvgGIdPs9nO0X0LAAZDavRe6Vp6De1Ju71BYvzghQtJNr7kaXejjf06uGbRFOCVDEE3cuQY4kpNevRjt8OSdAQRfZDDpffAKZ/Ho1dDqcFNAgnqDPFvY+1ui6/M1dAS5TD+TOAgIwTHRZgAnqgT1ZQACGiS4LMEE9sCcLCMAw0WUBJqgH9mQBARgmuizABPXAniwgAMNElwWYoB7YkwUEYJjosgAT1AN7RhFQCKwTt+5tXQVHECCmdSXh3DoS2mpPhC5eypOh57o+UYgTukoILUAk6qOURI0ibq0m6uKYrqJDC/DyGy9TEiMUMWti2BtY95OuokMLUAl4PbXX6PU0RTwa3Xa91I2DOouNJED091dJwpOU0BEKn6Jdmw8hD3m9/i6xdavW267QRawyMdknfQzRegMU91NkKVxuZUj8TAWcVs+7uVsuDbkxASbABJgAE2ACTIAJMAEmwASiEfgf6ZsVh8Ca6qkAAAAASUVORK5CYII=;" parent="1" vertex="1">
                    <mxGeometry x="320" y="330" width="20" height="20" as="geometry"/>
                </mxCell>
                <mxCell id="130" style="edgeStyle=orthogonalEdgeStyle;shape=connector;rounded=1;jumpStyle=none;orthogonalLoop=1;jettySize=auto;html=1;exitX=1;exitY=0.5;exitDx=0;exitDy=0;entryX=0.5;entryY=0;entryDx=0;entryDy=0;labelBackgroundColor=default;strokeColor=default;fontFamily=Helvetica;fontSize=11;fontColor=default;endArrow=classic;" parent="1" source="131" target="135" edge="1">
                    <mxGeometry relative="1" as="geometry">
                        <mxPoint x="1080" y="360" as="targetPoint"/>
                    </mxGeometry>
                </mxCell>
                <mxCell id="131" value="" style="shape=image;verticalLabelPosition=bottom;labelBackgroundColor=default;verticalAlign=top;aspect=fixed;imageAspect=0;image=data:image/png,iVBORw0KGgoAAAANSUhEUgAAAGAAAABgCAYAAADimHc4AAAABmJLR0QA/wD/AP+gvaeTAAAFKklEQVRYCe2Z329URRTHv7O/7rbbCi0oRoISJbxUAaGRJyWQhWKiJRIxISa+NMEQfzyJRkz8E2ygkJiYEo0v6oOJFvlRSTXBXxGIJQYqIWKs0VQlgOL+6u7d8cymTe5DX3rv7M7M3tPM6c5cOjPnfD6de8suwF9MgAkwASbABJgAE2ACTIAJxI2A0FVwZWKyT/oYgsQOCKygdZdTuNyuU/IzVM+4SNRHvfzGyzTW3iILkOfPpys3U29RZvspkhTt2HwIecRb6h8Q/f1VnQVGEiA/upSp9FTHKKEdFHFop7ye2qBOCYko1Aj+IZofF/hUKnZWbqWGVUdXhD4Bc/f8i5RIu952qLQFmy/gP+Rt3zS14L8u8mLoE0AP3Odpr7jBp5KRlEjtUx0dEVoAIPI6EnBzDamt9ggC5Co34WnJ+j4tq9AiEQSgi+bHtXXrKjyKAF05xHodFmBYPwtgAYYJGN6eTwALMEzA8PZ8AliAYQKGt+cTwAIMEzC8PZ8AFmCYgOHt+QSwgJAEpET5w69CTrZnmpMnQBYrKAx/gsr4D/aQDJlJKuQ8Y9PqMzdROHwc9T9vGctB58ZOCahd+R2loydQL5R1MjC6ljMCql9PofTeF5C+bxSY7s3tF0AP29IHZzF75qLu2q1Yz2oBsjyL4tunUPvxVytgNSMJawXUb/yH4uEx+L9db0bd1qxppYDaL3+hODIG+U/RGlDNSsQ6AbPfXUH53QnIaq1ZNVu1rj0C6GFb+fQcymPfA9S3ilITk7FCgJytoXTsDKrnrjaxVDuXFmHTKn8+KcPODc6T/xZRGPkM/rWZ4GVn+yumRxfF1OgJ8Kf/JvjHIekvHmeJR0zcmIDq5DWU3hmHLFcjluD2dCMCKicvoPzxt0Bdy13MaQOtFeDXUXr/S8yeveQ0NJ3Jt0yAvF1G4Sg9bK/+oTN/59dq4QcyfLtZ6LelZQJEdwe6DuxGZtu6hfKI7bWWCWgQTgp0PLsFHc9tA6jfuBbzbwkT9We29CH38iBER8bE9lbtaUSAIpB68F7kXn8aiWV3qGFsw5gARTy5chm63nwGybUr1TCWsaj3LYKEdL0XpNaUNb/xeW/1myk1XFQsGX1pUT+v64ez2zeEZhfMwegJmE9EpJLoHMoju/dRQGipa35p61+tEDBPyctvQOf+nRCZlv3/cH5rY69WCVAU0pvWIHdwD0Rvtxq2fVgnQBFPrlqO7jf2ILn6LjVs67BSgCIuluaQe3U30g8/oIZtG9YKUMSFl0bnC48jO7hZDdsyrBbQIE5/FXm7HkHHvgGIdPs9nO0X0LAAZDavRe6Vp6De1Ju71BYvzghQtJNr7kaXejjf06uGbRFOCVDEE3cuQY4kpNevRjt8OSdAQRfZDDpffAKZ/Ho1dDqcFNAgnqDPFvY+1ui6/M1dAS5TD+TOAgIwTHRZgAnqgT1ZQACGiS4LMEE9sCcLCMAw0WUBJqgH9mQBARgmuizABPXAniwgAMNElwWYoB7YkwUEYJjosgAT1AN7RhFQCKwTt+5tXQVHECCmdSXh3DoS2mpPhC5eypOh57o+UYgTukoILUAk6qOURI0ibq0m6uKYrqJDC/DyGy9TEiMUMWti2BtY95OuokMLUAl4PbXX6PU0RTwa3Xa91I2DOouNJED091dJwpOU0BEKn6Jdmw8hD3m9/i6xdavW267QRawyMdknfQzRegMU91NkKVxuZUj8TAWcVs+7uVsuDbkxASbABJgAE2ACTIAJMAEmwASiEfgf6ZsVh8Ca6qkAAAAASUVORK5CYII=;flipH=1;" parent="1" vertex="1">
                    <mxGeometry x="940" y="320" width="20" height="20" as="geometry"/>
                </mxCell>
                <mxCell id="132" style="edgeStyle=orthogonalEdgeStyle;shape=connector;rounded=1;jumpStyle=none;orthogonalLoop=1;jettySize=auto;html=1;exitX=0;exitY=0.5;exitDx=0;exitDy=0;labelBackgroundColor=default;strokeColor=default;fontFamily=Helvetica;fontSize=11;fontColor=default;endArrow=classic;" parent="1" source="135" target="134" edge="1">
                    <mxGeometry relative="1" as="geometry">
                        <mxPoint x="1000" y="380" as="sourcePoint"/>
                    </mxGeometry>
                </mxCell>
                <mxCell id="133" style="edgeStyle=orthogonalEdgeStyle;shape=connector;rounded=1;jumpStyle=none;orthogonalLoop=1;jettySize=auto;html=1;exitX=1;exitY=0.5;exitDx=0;exitDy=0;labelBackgroundColor=default;strokeColor=default;fontFamily=Helvetica;fontSize=11;fontColor=default;endArrow=classic;" parent="1" source="134" target="152" edge="1">
                    <mxGeometry relative="1" as="geometry"/>
                </mxCell>
                <mxCell id="134" value="" style="shape=image;verticalLabelPosition=bottom;labelBackgroundColor=#ffffff;verticalAlign=top;aspect=fixed;imageAspect=0;image=data:image/png,iVBORw0KGgoAAAANSUhEUgAAAGAAAABgCAYAAADimHc4AAAABmJLR0QA/wD/AP+gvaeTAAAMiUlEQVRYCe1ZfXBU1RU/571dEkg2JHyJNcgmfASbsbWDo9PREaoiUzutLa10tFWrUkMgRC1Fp3840k4dahlRgSTQgtjBykinfnQc21GxSse/OlbUghIiSRBBCgTI7oZ87L7T3924DGL23rebZD/C2znn3vfu+Z1zzz3n3fvuu0vk/bwIeBHwIuBFwIuAFwEvAl4EvAh4ETjfIsC5POBgQ3gys3MFfKwi4pn9NV2EWlGZKuLMFCEBE4WBO0zi7CXmZmFqpu7orrb7y07GcTlY5FQCytfIaH9haB4JX4fgXQfnqocgZg5svI8E7WSLdkbCkX8cWTE5gracIIwxu37M3ij+jlj4+3hybyeS6+FNIXg4qQfG/0YiW1snBl6hhRzDfdYoawnof9rDdyHwyxH4iixF4EMmWV1mB555p4b7suEDp9tpsLHzwbYlJY+mql+1+Wigt7uwnpjqoTsJnAt0AP6slsLiTW13cncmHbLS7YyJf1fZEFpJbn8iXNEYuqe3p7ANg/0t1HIl+HCFLsY7Yp11OtxS0RDGUqiaMsNpzwAEU5SLLPTr/UsDK0nzm7ruZIVtWw1C/G0NLGdEGNjzvqh9b0v9mIPD7VTaMyDhGHYrD+tmQkVj5yLLtnfnS/DVuPBULoj5YnuCDaEfq/vhZPSVnvnEDEhonzsTpq+VgpgvvBryZeDB0GEsWW/D/h4i3ost6r4o9x23xNflcFTtaMj2+0bF+qJFfvKXichMh2UG8NXodA50L0CdLsEcPxo8WvTQmys5mq4Rnd6QJUB1gkHHl6PyTafG+XuslzH4b6r2FNkB/l/gZy1x3vh46dgWXKdHeO9M2xCuRnWDiHMLPs4uT8sQ0w67r3dBS/34zrT0NUpDmoD+fniNkMyHYfUE9je5KzuwnK21LN+W/TWjD7hTSQ01tSF0icV8J7a9NdAsAadC70Vj1o2fLCs6lIqSCcsmQDL5uUtQMpyL9uPYiz/mL+hZv/fuiSEX+EFDgo+fKOUCXx0M3QceD3ZJ0g7g/NYlJXtRDwlxulaGIAG9WLJWRboiq7N1NFC5sWOsRP2/wVKpkmG5jMUh4ehVbbVlbTQEv6wkANu83cLWbe21Re8OwRgGbaJiQ3geObIZhqaAzcT0gXRHrxmKQz63WTc75RohW09HIlfmSvCV262Li1/rdeQbmAkvqXsjC12KJexFdY5lxBoAmUyA2t3UYf28PVtLji4Wn9aVHEcifoB954PAYZKi1NOcjmholR5ilmYsAVjvn2tdEmgwu5RFBLO0LS35PXZxC+CF+UyIeXllU+iHwKZNGUsAtpi36L6Y0x7BMCjikPFF5OJmmDaekIrQH6av7SoHNi3KWAKUd0iC9thCYXKF99eWvIyZsBD+xMA6Ghfzx9brADpZRhOgHMmnJKiZgI+2Xym/tSx0E05Rb9BikggzngDlRz4lAZuG1fD5r2A9sayt3i6j9KAvS7OSAOVGPiVhjJz+Gf4v+Ej5reGqyPHwYo18QFHWEqC8yZck7F46KYwE1MBn7fYUO73lqc6CrCYAA8LpMuXFi7m1LrBTiJ8m/e/iyDH1P7cedLY07aOIs42cL9dTN0YutGLOXow3AE5G+1pri6tw9K2dLQnlrM+AhCP5ULfXFB3GUvSEwdcZwQ3hOQbMGbGXgDOhcHfRV+CoBIS0aIdv08rPEnoJOCsYbi4PLhrbgVmwRYfFV/SC4BYp1GESMi8BiUikUtv8lAFeavV0XWvAxMVWvPSKlCKAU9P3mOk/OiVHYtfr5AmZl4BEJFKsHUee06lYxHN08oTMS0AiEinWYtmv6VRwSnpZ+aZT43QYJfMSoKKQBrcvHrMLakfBycjyR+3ZyYSJdi8BiUikWmOrg6/Yt7VqjszUyiH0EoAgDILe1+oKzdLKIfQSgCCkTczNWl0mbwZoAzRYIbM6F9JZmawTKpk3A1QU0mRHeo/pVVl3aBdX9cVLTVHRGA4TSVEySFckUnxkxeRIMvlIbh9l2eG+mG6EYkyAixmgP9M4MvWCbp0LI1nmLwt0GsY3FAkgR9fJ7BPkIok6C/kr6/mMsBMdnP9ughfSdXHE7jRmWaefzzKrIGQauzZ2auwuEiBaI/7uUSYnVD8jkrtjTol+YKyNndJ1kQC9EfY5E5Wh85Ft5gn6cesfXqVrTgDTEQVMyi4+t5Pq5r3ArjIM4TOD3MUL1KEPdUZEZJZOPqJlhrHjPwNt7FRsjDNALNqngEmZ6atJZSNcgC2Qduw4ktbHDvExJoCZTVmcSyuRJhg7r2i72EI0lzQ/i/Wrh1K1VKFjPzvvQo6+UA5M4yvHR6oHFo3c1qnHu76G0ZWCk5HT43d2JRMm2o0JaK4pUecdHyQUBqxtmjdg+whuZCemHTPW/10HF43tMIXAmIB+A/J6fz1wKSS3DSwZua0W8x360bE2ZgldlwmgtxIKSerLpq8PnTfLUMWG8NeFDJsPZlPM4qF0lYAeO6CyqT14itpyd9zi+VDE5C7DME86BWPeMGDiYiteGopDNdyFY6fndDAWrpnWFJqkw4wE2ZR1ka8gFvfoxoLZsa3tTnZ1SuwqAfHORLbG6+TFGEfo3uTikSHx2XIfRlIITkpiGWN1RpfPXJkuRLiiKdwCWCU4GZ3E3rfq49rA/5IB8rl96sbIhVbMUX9D6g4g97XWFlcRMyaCebSWGfI5Im5QVn1+l6wqdRxak0yY7+0I/uMYgy74JMSPuA0+bJH7BABtRwNbMWU+xWVyYrp1WlPnVckB+SmpWB+6Bp4vBOvoQNGEom06wLmylBLQUs89mFerzjVyzj07wttmbuw0HNWeo5XDt9PXhiaSTX+Gi3j+UCanR3Yv5N7k4i9LUkqAUpfRxZuRhI/VtYan9MV4M+G9ocHkhwjnXDEfb8HaUm5weO+YCcVPU4q/lBOgtlcWOfe66Od7wabwQy5wOQ2pnBR+mEi+Y3RSuD7Vp1/ZNE0phRmQK5pCf8FT8aMBhWc3Mi1rrQ2sP7spX66DTaF67GWeNPkrTNvaagO3mnADyVOeAWeMxHy/xPVJsJ6E1lQ2njI/QXorGZdWNHR+F8F/zEXHHb4++wEXuAEhaSegtW50O1vWT2BVwDryC1kvYUA/14FySYYnvwZbyRfgkw+soxi+e25uqR9zUAfSydJOgDK6f3HRK1iG1qlrA9sY0IbKxvAvDLjsirFpCDZ0PoAnvwmO2GA9iTyBj8439CC9NO13QMJs9XYZ1XUsvAP3V4ONhOnyvEOxRQeWlJ4wgjMIuGh95/hRttq50U0uu31rnF08750a7nOJHxA26AQoq+WbTo3z9Vo7Yaxa3bvgA0x89/4lxa+7wA47BLu1+SzyR3Q0BWwmpg+kO3pN2/1l5negwRpiZkC4FKuPlZiP3gZ8Btgl8ctOLFrfvqy01aXCkMIqGjursDQ2YBm9LgXDzXaUrm6pDxxNQScpdMgSoHoIbuycxTF+FdfuniQAQWGcn6zrc5zHPq0rOY77YSf1lR51rBUitBR7/CL3HUo7sPNbl5SoAzlcDp548Ca+aKG8qesiP8X+jqfq0i9KjHchIt4gtvNUW03JR0Z0GoCpDaFLLFZ/pvBiqBeDU6H3ojHrxk+WFR1KRcmEHfIEqA6Dj58o5QLfC7ieS2n95N8s1jZL5NWWusDutEwoJexqpm0IV6O6QcS5BcvN5ao5ZWbaYff1LmipH9+Zsq5BYVgSoPqcu1J87ZNCOLjj5bgfTD+fQf8tIdqDf6KabbH2OY51jP2nT+6vGXcKMoon3F841rKcCSIy02GZwULVkM2BzgWo0yWY40eDR4seenMlR9M1otMbTGB0ds/IMO2/ZTE9i4bJ4HyiwzhiuBVHDG/SMP4G9SHmxq/2pYF/su27Epl+0Q0+FzCYbc/bUfuK4Q6+GivioqrMcLAxNAc9NaBTtTzgMufov+TQ0ta6wM5MeYZYZKqr/n7K18hoX0HkHvzDqd4NqWxX+w0MT3kA74rVUli8SR23D08XA1vNeAISbqgjjNPHQz8Vh1dg8LMS7RmuP2SS1WV24JnBHimk63fWEnC2w9PXh6odppuF+Q58GAVpWH/chmOHP0Vt2n5gcWDPsHblwnhOJCDhp5oVXR2RORKja5npWiRjNmQ2eDAUwwfeO0K0w3JoR5m/aGe2nvaBBpFTCTjXQbW/p0LfZdjTz8T/yzOJrVl4d1yID6syJKcUeNQoiU4gyCchOwHZIRJnLz66mrGNbLasvncT3wtxpFd4EfAi4EXAi4AXAS8CXgS8CHgR8CLgRSDLEfg/trfG2AZJ/PgAAAAASUVORK5CYII=;" parent="1" vertex="1">
                    <mxGeometry x="930" y="410" width="20" height="20" as="geometry"/>
                </mxCell>
                <mxCell id="135" value="set module to initialized&lt;br&gt;create all change events" style="rounded=1;whiteSpace=wrap;html=1;fontFamily=Helvetica;fontSize=11;fontColor=default;" parent="1" vertex="1">
                    <mxGeometry x="1000" y="350" width="160" height="40" as="geometry"/>
                </mxCell>
                <mxCell id="136" value="" style="rounded=0;whiteSpace=wrap;html=1;fontFamily=Helvetica;fontSize=11;fontColor=default;" parent="1" vertex="1">
                    <mxGeometry x="420" y="440" width="440" height="40" as="geometry"/>
                </mxCell>
                <mxCell id="137" value="" style="shape=image;verticalLabelPosition=bottom;labelBackgroundColor=#ffffff;verticalAlign=top;aspect=fixed;imageAspect=0;image=data:image/png,iVBORw0KGgoAAAANSUhEUgAAAGAAAABgCAYAAADimHc4AAAABmJLR0QA/wD/AP+gvaeTAAAGG0lEQVRYCe2ZW2gcVRjHz5ndpCUbsUiRQtGCoi+Fim2iUdvsbAJN4u6SvXTrDUVB90l9bIq+5MVifLP0xSBU8KGatJnE7m42hdTZJKUpXSIR+qIoVCnEJLRFCSTtzjl+J6vdXHZ3LjuzSZpv+L7JnOu38/vnXGaGEDyQABJAAkgACSABJIAEkAASQAJVInAonq3xhlKnqxRu04aRNuKXtUSS++rnZicJ5R9tRPzNFLPqAvhCw60aJ1lC+MHNBGKjfktVBWgOJ7oYZWm42d3gaEDADe64HT064lnyaF/Df/3rjgfbYgEcF6AllHp6ieYGgMsBcLQ1BBydgnzhZKdG+RTEPACOVoSAMyOgu1uSp184xQg/QQih4GglCNgugBxSdvHp2m854YESMTF7BQFbBfBF0/sZ0xTo/xlwNAMEbFsD5EjqGGO5SYiJ8AGCUat4BMRifa65XP1nnIv5nuJ8b5T8f/UqAvZyeOTxGqJ9D/t7meBRlEBG8ZdlbHkEeCPDjYTnLkDUJ8DRLBKwtAZ4w8n3CGdjEBPhA4RKzNQIEK+Q6+dnzxDO45UExbYFAoYFkGPJPXxuph+eqw4XmuNVpQQkIx3AFrOJ58QrZIrwjQAzUUdXAG8oEYctpkoI2QuOZjMBXQEIpTshpn49qIRmnoAuWNjHnoaPKE3Q9U1wNJsJ6Aog4o0PBKdojjXAC7ZRkUa3j4AhAUQ49WJwXrrjaaeE9og0uj0EDAsgwqmqL6cqr54knLwJb/kXRB56ZQRMCfB/qMyg/5zE2SuQ/h0crQIClgQQ8X5UgtP33K5GzumISKNbI0CtNVvZitPmcPIErA2nINe0oLDLsuE3QOQtaqaBrb9PyseUQA9Q7ISyu+BoJgjYIEA+mqr4ExohL8K3gRv5HDwbIWCbACLYhOL/JadpL4EI50UaXZ+ArQKIcFd+6PwH5vXj8NB2EtIwKOCMVpKA7QLkIz1YFwKQvg2OVoKAQwLko8G6kNbc7Hl4cMvmc/C8loCjAohgE/3BP+iuuiPw5PwNwWMdAdg9rstzLEN8W4DX22cgQA34ssF6UdXfsBx0E50cHwEr7zUzGOgljLdC3gw4GhCoqgAQj2SGAuMuN2uA60nwbW9VF0AQv9wfvFW3SGWYjnpFGh0JIAEkgASQABLYhgS84eSXh+LZB88l1UawIbugat+kTryP6+dmJ1siyX069RwpRgGWsfKDGidZX2i4dTlZxRMKUIC9m1GWbg4nugpZzl9t6/cwAi+sAVz8XePndiy4P7h0qW1hTb7tSRwBxZG+seTJXTkcTTxVvNi+XMm+rh66np5zMXrdF020OXlnKEB5uo8xRoflcOpz0t3tCCtHOi1/T1uulML37S7vdOOQHFJ22f3rUQDjRAOc1l7zRdP7jTfRr4kC6DNaWeNZxrSrciR1bGVmJdcogHl6j3DO+8S6EIv1ucw3X91C9zmgxD55dS/bN5W+53a9dbW//bZVBDgCrJLLt2uvva/9JEeTDfmk+TMKYJ7Z6haUPMkZGZdDyXeJhQMFsACtSJOdnJKz3kjqK7OvtlGAIjQtZ3Eer5/7a1SOJfcY7QMFMErKeL0jPEeysFVtMtIEBTBCyXydvbBVVb2hRFyvKQqgR8h6uUQkskOvuVuvApZbInATPu5ExgeCU3qtcQToETJZDi/uRmmONRiBL7pGAQQFm5wS2iPd8bSrF4PzRrvEKcgoqXL1KFmgnL+vKv7vylUrVoYCFKNiLu83RiWY7zt+NtcsXxsFyHOwdOaEDC0t0neuDXf8bakDaKT7NhTqPNRm8W0vg8X2kzHF/wUh8MGsAkI4AszDuwv/tW9nlEDCfNP1LVCA9UzK5PAbXOLhzIXgr2UqmSrCbahhXPw8dXuaxmyEL0LjCBAUyrsG8/2ndsz3xcKgAMWoFPJmKWevZQaDKnHoQAFKg73OmTuaGWr7s3SVyktwDSjO8Cx9tK55zGH4IjSOAEGh4PcJ5x9mBgO9hSxnr1CAAt8ZSqSYOtgxUchy/gqnoDzjSZebNahKdeGL0CgApb11i1S+3B+8JYCgIwEkgASQABJAAkgACSABJIAEnCbwL/J3jAfPFh69AAAAAElFTkSuQmCC;" parent="1" vertex="1">
                    <mxGeometry x="820" y="440" width="40" height="40" as="geometry"/>
                </mxCell>
                <mxCell id="138" value="" style="shape=image;verticalLabelPosition=bottom;labelBackgroundColor=#ffffff;verticalAlign=top;aspect=fixed;imageAspect=0;image=data:image/png,iVBORw0KGgoAAAANSUhEUgAAAGAAAABgCAYAAADimHc4AAAABmJLR0QA/wD/AP+gvaeTAAAFKElEQVRYCe2ZQWgcVRjH3xu2qzWzIaUtLYoms5ZexFMvRqSFoGIOSkXwoNWD4CFrU9pDaQUPBXtIT6U1TgWlglYPglhESEAI1IM9SE/ipZDd9FAhxWDZzKQau/P8XjI1083Ozps3b2YT+y/vy7x573vfN/P773Tmm2EM/0AABEAABEAABEAABEAABEAABEAABB5AAo67+CETghd96lbRCTdwvg8c1/vyqW9EuchjhABR2py96f/hTe05v9AfHc6zDwHa6NL/QSOtUnnG+dTb1TaVyy4E6Ix1H/uHXa1ONvd2njY3CgFiWQpHcP7Tk66/L9bFwAQE6AaRs10BE1cGXX+0m1uWOQiQSE/0WSy4XHW9NxJdNRwggBq0smDi0pDbPKHmru4FAdRZcc74hPPx4jl2ShjjZiyQ+nlsck/Ojjg7vS9MFWwQQOf3YLBgo7pD7QjoXYno5tmoVe6LZdq/W+6ezQl2dVmIl28e7l/QPQZcAbrk5DrOhsuW9UuWgg0CSJCZLFvBBgEywQ8XZyjYIEDIMPtGr2CDANnJRyOkLtggQBSfoT4XvKQaStlRNeAD7vcXlcuH6rXKt6ocIIAqqWS/psXZq7NjlZlk1zUPCLDGIkvvd97iL82O27+mDYJ7QFpi6/2vB63Wc3UN+DIUBJAUdE2+igjEszfGBxq6Ie57f6Mb5P+wLundVYdzvCL+vntw7ti22x3mlIdwBSijWnMUgl8cvGU/nxW+jIibsKSQwuijzJlGre/9Oc5FimWxrrgCYtGsmwjol3+0XrNPMkPwZQZcAZJCsq0UWI2arVxgJYdc9YAAqxy6/dUqsLoFjM5BgCiN9X3tAmt9qM4juAd05iJHMxVYMoCKQYBOlAwUWJ3CdhqDAG1UOBNTS0v+CzcP9y+0TeWyCwEiWOkx8+ITtyqvzB/f7UeG0S2CQNX1JhgpUEQu5AABEAABEACB3hCgG51zYfF0b5JvvKyFfpAZ+lw8zO94lwjDa41apdDclHNDtlJRR7Xn/EL/3Tved5RvhAwtJFCIAI9/5D/aKgXT9Anj6TAvNiGB3AWoTjb3CktMM8GcMCc2EQJWpG+8O/hJc1hY/GfGBODH0M1NgEHXH7UC60fKu50MLYZALgJULzTfsVjwPf3y+2LyYjgkYFyAIbd5gh71P6P4ud9fKMemb+YgnRKWs9M7S0SOkKEpEjAiQLTAUswLt5BAZgFQYIUkNTdcc93Ksscmm9vLFv+Bdp4h21St/VWI4y6KbieQ1T8utvYVsFpgWdP0pOPEBcd4MgGtpyAUWMlgVT1SC4ACSxWtml8qAVBgqUFN46UsAAqsNFjVfZUF4IxvUQ8LT1UCygLQY9hpzvlbFHiZDM0QAWUBZL76mP2Vxdko9ZtkaAYIpBJA5psdq8xYzBqhDyzzch+WjUBqAWS62VrftSBoDVP/OhlaBgJaAsh8N8YHGmwL30/9a2RomgS45rr/lg2d/XOAP1S6TAMHyJQb3dQz51ZOtoEdta+Ae+c0d2zb7Ud22C8Kxr6+N4atOoHMAshUv73Ol+fG7ENUK5yR+zB1AkYEWEnHuajX7JP0OfIo7QdkaAoEzAkQJpt7zz5HBdvbtLtMhpZAwLgAMh8KNklBzXIRQKZGwSYpJFtuAsjUKNgkhe6WqwAyNQo2SSHechdApm68a88v+f4BzsSU3IetEShEAJlu/vhuf+uOykEUbJJGL40KharrTfTyEJAbBEAABEAABEAABEAABEAABEAABECgVwT+Bbu7ZeBbIGIFAAAAAElFTkSuQmCC;flipV=1;" parent="1" vertex="1">
                    <mxGeometry x="620" y="440" width="40" height="40" as="geometry"/>
                </mxCell>
                <mxCell id="139" value="" style="shape=image;verticalLabelPosition=bottom;labelBackgroundColor=#ffffff;verticalAlign=top;aspect=fixed;imageAspect=0;image=data:image/png,iVBORw0KGgoAAAANSUhEUgAAAGAAAABgCAYAAADimHc4AAAABmJLR0QA/wD/AP+gvaeTAAAGG0lEQVRYCe2ZW2gcVRjHz5ndpCUbsUiRQtGCoi+Fim2iUdvsbAJN4u6SvXTrDUVB90l9bIq+5MVifLP0xSBU8KGatJnE7m42hdTZJKUpXSIR+qIoVCnEJLRFCSTtzjl+J6vdXHZ3LjuzSZpv+L7JnOu38/vnXGaGEDyQABJAAkgACSABJIAEkAASQAJVInAonq3xhlKnqxRu04aRNuKXtUSS++rnZicJ5R9tRPzNFLPqAvhCw60aJ1lC+MHNBGKjfktVBWgOJ7oYZWm42d3gaEDADe64HT064lnyaF/Df/3rjgfbYgEcF6AllHp6ieYGgMsBcLQ1BBydgnzhZKdG+RTEPACOVoSAMyOgu1uSp184xQg/QQih4GglCNgugBxSdvHp2m854YESMTF7BQFbBfBF0/sZ0xTo/xlwNAMEbFsD5EjqGGO5SYiJ8AGCUat4BMRifa65XP1nnIv5nuJ8b5T8f/UqAvZyeOTxGqJ9D/t7meBRlEBG8ZdlbHkEeCPDjYTnLkDUJ8DRLBKwtAZ4w8n3CGdjEBPhA4RKzNQIEK+Q6+dnzxDO45UExbYFAoYFkGPJPXxuph+eqw4XmuNVpQQkIx3AFrOJ58QrZIrwjQAzUUdXAG8oEYctpkoI2QuOZjMBXQEIpTshpn49qIRmnoAuWNjHnoaPKE3Q9U1wNJsJ6Aog4o0PBKdojjXAC7ZRkUa3j4AhAUQ49WJwXrrjaaeE9og0uj0EDAsgwqmqL6cqr54knLwJb/kXRB56ZQRMCfB/qMyg/5zE2SuQ/h0crQIClgQQ8X5UgtP33K5GzumISKNbI0CtNVvZitPmcPIErA2nINe0oLDLsuE3QOQtaqaBrb9PyseUQA9Q7ISyu+BoJgjYIEA+mqr4ExohL8K3gRv5HDwbIWCbACLYhOL/JadpL4EI50UaXZ+ArQKIcFd+6PwH5vXj8NB2EtIwKOCMVpKA7QLkIz1YFwKQvg2OVoKAQwLko8G6kNbc7Hl4cMvmc/C8loCjAohgE/3BP+iuuiPw5PwNwWMdAdg9rstzLEN8W4DX22cgQA34ssF6UdXfsBx0E50cHwEr7zUzGOgljLdC3gw4GhCoqgAQj2SGAuMuN2uA60nwbW9VF0AQv9wfvFW3SGWYjnpFGh0JIAEkgASQABLYhgS84eSXh+LZB88l1UawIbugat+kTryP6+dmJ1siyX069RwpRgGWsfKDGidZX2i4dTlZxRMKUIC9m1GWbg4nugpZzl9t6/cwAi+sAVz8XePndiy4P7h0qW1hTb7tSRwBxZG+seTJXTkcTTxVvNi+XMm+rh66np5zMXrdF020OXlnKEB5uo8xRoflcOpz0t3tCCtHOi1/T1uulML37S7vdOOQHFJ22f3rUQDjRAOc1l7zRdP7jTfRr4kC6DNaWeNZxrSrciR1bGVmJdcogHl6j3DO+8S6EIv1ucw3X91C9zmgxD55dS/bN5W+53a9dbW//bZVBDgCrJLLt2uvva/9JEeTDfmk+TMKYJ7Z6haUPMkZGZdDyXeJhQMFsACtSJOdnJKz3kjqK7OvtlGAIjQtZ3Eer5/7a1SOJfcY7QMFMErKeL0jPEeysFVtMtIEBTBCyXydvbBVVb2hRFyvKQqgR8h6uUQkskOvuVuvApZbInATPu5ExgeCU3qtcQToETJZDi/uRmmONRiBL7pGAQQFm5wS2iPd8bSrF4PzRrvEKcgoqXL1KFmgnL+vKv7vylUrVoYCFKNiLu83RiWY7zt+NtcsXxsFyHOwdOaEDC0t0neuDXf8bakDaKT7NhTqPNRm8W0vg8X2kzHF/wUh8MGsAkI4AszDuwv/tW9nlEDCfNP1LVCA9UzK5PAbXOLhzIXgr2UqmSrCbahhXPw8dXuaxmyEL0LjCBAUyrsG8/2ndsz3xcKgAMWoFPJmKWevZQaDKnHoQAFKg73OmTuaGWr7s3SVyktwDSjO8Cx9tK55zGH4IjSOAEGh4PcJ5x9mBgO9hSxnr1CAAt8ZSqSYOtgxUchy/gqnoDzjSZebNahKdeGL0CgApb11i1S+3B+8JYCgIwEkgASQABJAAkgACSABJIAEnCbwL/J3jAfPFh69AAAAAElFTkSuQmCC;" parent="1" vertex="1">
                    <mxGeometry x="420" y="440" width="40" height="40" as="geometry"/>
                </mxCell>
                <mxCell id="140" value="&lt;span style=&quot;font-size: 12px ; text-align: right&quot;&gt;all READ events&lt;/span&gt;" style="rounded=0;whiteSpace=wrap;html=1;fontFamily=Helvetica;fontSize=11;fontColor=default;fillColor=none;strokeColor=none;" parent="1" vertex="1">
                    <mxGeometry x="670" y="440" width="140" height="20" as="geometry"/>
                </mxCell>
                <mxCell id="141" style="edgeStyle=orthogonalEdgeStyle;shape=connector;rounded=1;jumpStyle=none;orthogonalLoop=1;jettySize=auto;html=1;exitX=0;exitY=0.5;exitDx=0;exitDy=0;entryX=1;entryY=0.5;entryDx=0;entryDy=0;labelBackgroundColor=default;strokeColor=default;fontFamily=Helvetica;fontSize=11;fontColor=default;endArrow=classic;" parent="1" source="143" target="157" edge="1">
                    <mxGeometry relative="1" as="geometry"/>
                </mxCell>
                <mxCell id="142" style="edgeStyle=orthogonalEdgeStyle;shape=connector;rounded=1;jumpStyle=none;orthogonalLoop=1;jettySize=auto;html=1;exitX=0;exitY=0.5;exitDx=0;exitDy=0;entryX=0;entryY=0.5;entryDx=0;entryDy=0;labelBackgroundColor=default;strokeColor=default;fontFamily=Helvetica;fontSize=11;fontColor=default;endArrow=classic;" parent="1" source="143" target="145" edge="1">
                    <mxGeometry relative="1" as="geometry">
                        <Array as="points">
                            <mxPoint x="440" y="450"/>
                            <mxPoint x="440" y="470"/>
                        </Array>
                    </mxGeometry>
                </mxCell>
                <mxCell id="143" value="&lt;span style=&quot;font-size: 12px ; text-align: right&quot;&gt;all READ events&lt;/span&gt;" style="rounded=0;whiteSpace=wrap;html=1;fontFamily=Helvetica;fontSize=11;fontColor=default;fillColor=none;strokeColor=none;" parent="1" vertex="1">
                    <mxGeometry x="470" y="440" width="140" height="20" as="geometry"/>
                </mxCell>
                <mxCell id="144" value="READ events" style="shape=display;whiteSpace=wrap;html=1;fontFamily=Helvetica;fontSize=11;fillColor=#d5e8d4;size=0.16666666666666666;strokeColor=#82b366;" parent="1" vertex="1">
                    <mxGeometry x="60" y="480" width="120" height="40" as="geometry"/>
                </mxCell>
                <mxCell id="145" value="&lt;span style=&quot;font-size: 12px ; text-align: right&quot;&gt;all READ eventAcks&lt;/span&gt;" style="rounded=0;whiteSpace=wrap;html=1;fontFamily=Helvetica;fontSize=11;fontColor=default;fillColor=none;strokeColor=none;" parent="1" vertex="1">
                    <mxGeometry x="470" y="460" width="140" height="20" as="geometry"/>
                </mxCell>
                <mxCell id="146" style="edgeStyle=orthogonalEdgeStyle;shape=connector;rounded=1;jumpStyle=none;orthogonalLoop=1;jettySize=auto;html=1;exitX=1;exitY=0.5;exitDx=0;exitDy=0;entryX=0;entryY=0.5;entryDx=0;entryDy=0;labelBackgroundColor=default;strokeColor=default;fontFamily=Helvetica;fontSize=11;fontColor=default;endArrow=classic;" parent="1" source="147" target="155" edge="1">
                    <mxGeometry relative="1" as="geometry"/>
                </mxCell>
                <mxCell id="147" value="&lt;span style=&quot;font-size: 12px ; text-align: right&quot;&gt;all READ eventAcks&lt;/span&gt;" style="rounded=0;whiteSpace=wrap;html=1;fontFamily=Helvetica;fontSize=11;fontColor=default;fillColor=none;strokeColor=none;" parent="1" vertex="1">
                    <mxGeometry x="670" y="460" width="140" height="20" as="geometry"/>
                </mxCell>
                <mxCell id="148" value="" style="endArrow=none;dashed=1;html=1;rounded=1;labelBackgroundColor=default;strokeColor=default;fontFamily=Helvetica;fontSize=11;fontColor=default;shape=connector;jumpStyle=none;" parent="1" edge="1">
                    <mxGeometry width="50" height="50" relative="1" as="geometry">
                        <mxPoint x="199.99999999999955" y="439.9999999999998" as="sourcePoint"/>
                        <mxPoint x="1079.9999999999995" y="439.9999999999998" as="targetPoint"/>
                    </mxGeometry>
                </mxCell>
                <mxCell id="149" value="" style="endArrow=none;dashed=1;html=1;rounded=1;labelBackgroundColor=default;strokeColor=default;fontFamily=Helvetica;fontSize=11;fontColor=default;shape=connector;jumpStyle=none;" parent="1" edge="1">
                    <mxGeometry width="50" height="50" relative="1" as="geometry">
                        <mxPoint x="199.99999999999955" y="479.9999999999998" as="sourcePoint"/>
                        <mxPoint x="1079.9999999999995" y="479.9999999999998" as="targetPoint"/>
                    </mxGeometry>
                </mxCell>
                <mxCell id="150" value="&lt;span style=&quot;font-size: 12px;&quot;&gt;SS LOW - Communication Slot started&lt;/span&gt;" style="rounded=0;whiteSpace=wrap;html=1;fontFamily=Helvetica;fontSize=11;fontColor=default;fillColor=none;strokeColor=none;align=left;" parent="1" vertex="1">
                    <mxGeometry x="1080" y="430" width="220" height="20" as="geometry"/>
                </mxCell>
                <mxCell id="151" value="&lt;span style=&quot;font-size: 12px;&quot;&gt;SS HIGH - Communication Slot ended&lt;/span&gt;" style="rounded=0;whiteSpace=wrap;html=1;fontFamily=Helvetica;fontSize=11;fontColor=default;fillColor=none;strokeColor=none;align=left;" parent="1" vertex="1">
                    <mxGeometry x="1080" y="470" width="220" height="20" as="geometry"/>
                </mxCell>
                <mxCell id="152" value="&lt;span style=&quot;font-size: 12px;&quot;&gt;[readEvent1, ...]&lt;/span&gt;" style="rounded=0;whiteSpace=wrap;html=1;fontFamily=Helvetica;fontSize=11;fontColor=default;fillColor=none;strokeColor=none;align=left;" parent="1" vertex="1">
                    <mxGeometry x="960" y="440" width="100" height="20" as="geometry"/>
                </mxCell>
                <mxCell id="153" style="edgeStyle=orthogonalEdgeStyle;shape=connector;rounded=1;jumpStyle=none;orthogonalLoop=1;jettySize=auto;html=1;exitX=0;exitY=0.5;exitDx=0;exitDy=0;labelBackgroundColor=default;strokeColor=default;fontFamily=Helvetica;fontSize=11;fontColor=default;endArrow=classic;" parent="1" source="154" target="140" edge="1">
                    <mxGeometry relative="1" as="geometry"/>
                </mxCell>
                <mxCell id="154" value="" style="shape=image;verticalLabelPosition=bottom;labelBackgroundColor=default;verticalAlign=top;aspect=fixed;imageAspect=0;image=data:image/png,iVBORw0KGgoAAAANSUhEUgAAAGAAAABgCAYAAADimHc4AAAABmJLR0QA/wD/AP+gvaeTAAAE2ElEQVRYCe2Z32scVRTHv2e3iVESuoHgL1qLjZZCUGi6hYpPjdFKbeMP0MQ3aUtEq49S8A/wV8EQzJMS8UHtL+xL0RixQQpWiUEQayrFtFELplobo8bEJpvjmcDSdWk2szM3e7PZ73IPM3Pn3HvO/XznzEwmAH8kQAIkQAIkQAIkQAIkQAKVRkBcLVgHB5qQ1D1QfcDmvMmswayc2yVAxgD9BAn0SnPr8FIsJrYAOjRUBRl/HSrPWIJJs5XYMraoHiD1gqTTM7bvrMUSQL87Uo2p+uN2pQRXvbOklu1Eio8hqTaXIiRiLXaqvrti4AegBA9C/+gKdl1Z5AqYv+cn5r6xRFbqbceWds2Wgehdsvn+M9c8W2Rn9ApI6NMWq9Lg25KRxBw6gx0XFl0AaKuLBMpyDkk4W3sMAbC2LOE5SVrXOZnGJokjQK2Nr9RW52rhcQRwlUNFz0MBPMtPASiAZwKew7MCKIBnAp7DswIogGcCnsOzAiiAZwKew7MCKIBnAp7DswIogGcCn30AqHpLghXwVT9wtBuY/seLCBQgwP7jMPDuS8DlseCopEYBsrjHfwXeexX4+Wy2pyRbCpCLeXrSbkddwOlTub1Luk8B8vFmMkDfO8CJQyV5OFMALPD7egA41gNcmV7AwU03BSjE8dy3wPuvAX9eLuQV6xwFWAzfbxfsDellYGwUS/GjAGGoTk5YJRwAzgyG8S7KhwKExZWZAT7sBU4dd/pwXhU2Pv2MQPDJ4nMT4PdfoI+vuV6OXpiy3lhNoo7WoU+jfUA50Bk15DIbJ18iMfeIHDx/MU5ivAVFpqdbkZEh7bhjU+QpbCAFMAiRm2ANdO6kdtzeFnUOChCV3NVxtVA5ph3r91/tCr9HAcKzKuSZhOIVbW98Szs3VxVyzD9HAfKJxDrWvZgYP6FPbmgIOw0FCEtqifwogFOw0oOLt7XIwbOXwk7LP8TCkirsNwuRfXJo5E1gpLBn3lkKkAckwuGEvYq2y+FR++dy8aMpQPHMckecB6RNjoyezu0sZp/PgGJo/d/3JK5Ub5HDI5HhB9OV/ltQEHU5WZRvU01bgS8Ga6Tvh3/jLoUVUAxBseu1pR3YsRsu4Aeh+QwIKISxqup58NjQHMY7tA8FCIOqrh547DngxrVhvIvyoQCL4bp5HfDoPqA2tZhnpPMUoBC2OzcBD+0Gqq4r5BXrHAVYCN+9u4B7dtprvj14F/Jx0E8B8iEm7WvyjqeAjVtQih8FyKV8Q53d758Fbm3M7V3SfQqQxdtwi73pPA+sbsj2lGRLAQLMjXcDO/cC1TXBUUltVUmjLcdgzS1AyxP2sE14yY4C3NfhBXw2qB/Zs9G5BQXwfBFQAArgmYDn8KwACuCZgOfwrAAK4JmA5/CsAArgmYDn8KwACuCZgOfwrIAyFmDSc+4+w//lKnicCvjJVRJlOI+ztSdiLL4vxtjyHqr4yNUCoguQQK8lMWtWaW0Wknnb1aIjCyDNrcMQecNVImUzj6JL0tu/d5VvZAHmE9DV+23bb1YZTdCHv5MvulxsLAEknZ4BUrsg2mNJZcxWagvW1g1NPSzbtjm97YorYjo40ISk7oHqdptzvVmNWTm3aUt+xKzf/nHbO3/LtQM2EiABEiABEiABEiABEiABEohL4D/YHuY1rKwR1QAAAABJRU5ErkJggg==;flipH=1;" parent="1" vertex="1">
                    <mxGeometry x="940" y="440" width="20" height="20" as="geometry"/>
                </mxCell>
                <mxCell id="155" value="" style="shape=image;verticalLabelPosition=bottom;labelBackgroundColor=default;verticalAlign=top;aspect=fixed;imageAspect=0;image=data:image/png,iVBORw0KGgoAAAANSUhEUgAAAGAAAABgCAYAAADimHc4AAAABmJLR0QA/wD/AP+gvaeTAAAFKklEQVRYCe2Z329URRTHv7O/7rbbCi0oRoISJbxUAaGRJyWQhWKiJRIxISa+NMEQfzyJRkz8E2ygkJiYEo0v6oOJFvlRSTXBXxGIJQYqIWKs0VQlgOL+6u7d8cymTe5DX3rv7M7M3tPM6c5cOjPnfD6de8suwF9MgAkwASbABJgAE2ACTIAJxI2A0FVwZWKyT/oYgsQOCKygdZdTuNyuU/IzVM+4SNRHvfzGyzTW3iILkOfPpys3U29RZvspkhTt2HwIecRb6h8Q/f1VnQVGEiA/upSp9FTHKKEdFHFop7ye2qBOCYko1Aj+IZofF/hUKnZWbqWGVUdXhD4Bc/f8i5RIu952qLQFmy/gP+Rt3zS14L8u8mLoE0AP3Odpr7jBp5KRlEjtUx0dEVoAIPI6EnBzDamt9ggC5Co34WnJ+j4tq9AiEQSgi+bHtXXrKjyKAF05xHodFmBYPwtgAYYJGN6eTwALMEzA8PZ8AliAYQKGt+cTwAIMEzC8PZ8AFmCYgOHt+QSwgJAEpET5w69CTrZnmpMnQBYrKAx/gsr4D/aQDJlJKuQ8Y9PqMzdROHwc9T9vGctB58ZOCahd+R2loydQL5R1MjC6ljMCql9PofTeF5C+bxSY7s3tF0AP29IHZzF75qLu2q1Yz2oBsjyL4tunUPvxVytgNSMJawXUb/yH4uEx+L9db0bd1qxppYDaL3+hODIG+U/RGlDNSsQ6AbPfXUH53QnIaq1ZNVu1rj0C6GFb+fQcymPfA9S3ilITk7FCgJytoXTsDKrnrjaxVDuXFmHTKn8+KcPODc6T/xZRGPkM/rWZ4GVn+yumRxfF1OgJ8Kf/JvjHIekvHmeJR0zcmIDq5DWU3hmHLFcjluD2dCMCKicvoPzxt0Bdy13MaQOtFeDXUXr/S8yeveQ0NJ3Jt0yAvF1G4Sg9bK/+oTN/59dq4QcyfLtZ6LelZQJEdwe6DuxGZtu6hfKI7bWWCWgQTgp0PLsFHc9tA6jfuBbzbwkT9We29CH38iBER8bE9lbtaUSAIpB68F7kXn8aiWV3qGFsw5gARTy5chm63nwGybUr1TCWsaj3LYKEdL0XpNaUNb/xeW/1myk1XFQsGX1pUT+v64ez2zeEZhfMwegJmE9EpJLoHMoju/dRQGipa35p61+tEDBPyctvQOf+nRCZlv3/cH5rY69WCVAU0pvWIHdwD0Rvtxq2fVgnQBFPrlqO7jf2ILn6LjVs67BSgCIuluaQe3U30g8/oIZtG9YKUMSFl0bnC48jO7hZDdsyrBbQIE5/FXm7HkHHvgGIdPs9nO0X0LAAZDavRe6Vp6De1Ju71BYvzghQtJNr7kaXejjf06uGbRFOCVDEE3cuQY4kpNevRjt8OSdAQRfZDDpffAKZ/Ho1dDqcFNAgnqDPFvY+1ui6/M1dAS5TD+TOAgIwTHRZgAnqgT1ZQACGiS4LMEE9sCcLCMAw0WUBJqgH9mQBARgmuizABPXAniwgAMNElwWYoB7YkwUEYJjosgAT1AN7RhFQCKwTt+5tXQVHECCmdSXh3DoS2mpPhC5eypOh57o+UYgTukoILUAk6qOURI0ibq0m6uKYrqJDC/DyGy9TEiMUMWti2BtY95OuokMLUAl4PbXX6PU0RTwa3Xa91I2DOouNJED091dJwpOU0BEKn6Jdmw8hD3m9/i6xdavW267QRawyMdknfQzRegMU91NkKVxuZUj8TAWcVs+7uVsuDbkxASbABJgAE2ACTIAJMAEmwASiEfgf6ZsVh8Ca6qkAAAAASUVORK5CYII=;flipH=1;" parent="1" vertex="1">
                    <mxGeometry x="940" y="460" width="20" height="20" as="geometry"/>
                </mxCell>
                <mxCell id="156" value="&lt;span style=&quot;font-size: 12px;&quot;&gt;[readEventAck1, ...]&lt;/span&gt;" style="rounded=0;whiteSpace=wrap;html=1;fontFamily=Helvetica;fontSize=11;fontColor=default;fillColor=none;strokeColor=none;align=left;" parent="1" vertex="1">
                    <mxGeometry x="960" y="460" width="120" height="20" as="geometry"/>
                </mxCell>
                <mxCell id="157" value="" style="shape=image;verticalLabelPosition=bottom;labelBackgroundColor=default;verticalAlign=top;aspect=fixed;imageAspect=0;image=data:image/png,iVBORw0KGgoAAAANSUhEUgAAAGAAAABgCAYAAADimHc4AAAABmJLR0QA/wD/AP+gvaeTAAAFKklEQVRYCe2Z329URRTHv7O/7rbbCi0oRoISJbxUAaGRJyWQhWKiJRIxISa+NMEQfzyJRkz8E2ygkJiYEo0v6oOJFvlRSTXBXxGIJQYqIWKs0VQlgOL+6u7d8cymTe5DX3rv7M7M3tPM6c5cOjPnfD6de8suwF9MgAkwASbABJgAE2ACTIAJxI2A0FVwZWKyT/oYgsQOCKygdZdTuNyuU/IzVM+4SNRHvfzGyzTW3iILkOfPpys3U29RZvspkhTt2HwIecRb6h8Q/f1VnQVGEiA/upSp9FTHKKEdFHFop7ye2qBOCYko1Aj+IZofF/hUKnZWbqWGVUdXhD4Bc/f8i5RIu952qLQFmy/gP+Rt3zS14L8u8mLoE0AP3Odpr7jBp5KRlEjtUx0dEVoAIPI6EnBzDamt9ggC5Co34WnJ+j4tq9AiEQSgi+bHtXXrKjyKAF05xHodFmBYPwtgAYYJGN6eTwALMEzA8PZ8AliAYQKGt+cTwAIMEzC8PZ8AFmCYgOHt+QSwgJAEpET5w69CTrZnmpMnQBYrKAx/gsr4D/aQDJlJKuQ8Y9PqMzdROHwc9T9vGctB58ZOCahd+R2loydQL5R1MjC6ljMCql9PofTeF5C+bxSY7s3tF0AP29IHZzF75qLu2q1Yz2oBsjyL4tunUPvxVytgNSMJawXUb/yH4uEx+L9db0bd1qxppYDaL3+hODIG+U/RGlDNSsQ6AbPfXUH53QnIaq1ZNVu1rj0C6GFb+fQcymPfA9S3ilITk7FCgJytoXTsDKrnrjaxVDuXFmHTKn8+KcPODc6T/xZRGPkM/rWZ4GVn+yumRxfF1OgJ8Kf/JvjHIekvHmeJR0zcmIDq5DWU3hmHLFcjluD2dCMCKicvoPzxt0Bdy13MaQOtFeDXUXr/S8yeveQ0NJ3Jt0yAvF1G4Sg9bK/+oTN/59dq4QcyfLtZ6LelZQJEdwe6DuxGZtu6hfKI7bWWCWgQTgp0PLsFHc9tA6jfuBbzbwkT9We29CH38iBER8bE9lbtaUSAIpB68F7kXn8aiWV3qGFsw5gARTy5chm63nwGybUr1TCWsaj3LYKEdL0XpNaUNb/xeW/1myk1XFQsGX1pUT+v64ez2zeEZhfMwegJmE9EpJLoHMoju/dRQGipa35p61+tEDBPyctvQOf+nRCZlv3/cH5rY69WCVAU0pvWIHdwD0Rvtxq2fVgnQBFPrlqO7jf2ILn6LjVs67BSgCIuluaQe3U30g8/oIZtG9YKUMSFl0bnC48jO7hZDdsyrBbQIE5/FXm7HkHHvgGIdPs9nO0X0LAAZDavRe6Vp6De1Ju71BYvzghQtJNr7kaXejjf06uGbRFOCVDEE3cuQY4kpNevRjt8OSdAQRfZDDpffAKZ/Ho1dDqcFNAgnqDPFvY+1ui6/M1dAS5TD+TOAgIwTHRZgAnqgT1ZQACGiS4LMEE9sCcLCMAw0WUBJqgH9mQBARgmuizABPXAniwgAMNElwWYoB7YkwUEYJjosgAT1AN7RhFQCKwTt+5tXQVHECCmdSXh3DoS2mpPhC5eypOh57o+UYgTukoILUAk6qOURI0ibq0m6uKYrqJDC/DyGy9TEiMUMWti2BtY95OuokMLUAl4PbXX6PU0RTwa3Xa91I2DOouNJED091dJwpOU0BEKn6Jdmw8hD3m9/i6xdavW267QRawyMdknfQzRegMU91NkKVxuZUj8TAWcVs+7uVsuDbkxASbABJgAE2ACTIAJMAEmwASiEfgf6ZsVh8Ca6qkAAAAASUVORK5CYII=;" parent="1" vertex="1">
                    <mxGeometry x="320" y="460" width="20" height="20" as="geometry"/>
                </mxCell>
                <mxCell id="158" value="" style="shape=image;verticalLabelPosition=bottom;labelBackgroundColor=default;verticalAlign=top;aspect=fixed;imageAspect=0;image=data:image/png,iVBORw0KGgoAAAANSUhEUgAAAGAAAABgCAYAAADimHc4AAAACXBIWXMAABJ0AAASdAHeZh94AAACsElEQVR42u3dTYtSURzHcRczReuC3kJPm15Fu15GbyHEjY+IDppoEpiK4GZw4UoqUReFKAOiomP4RJuWbaIJWszA6X8iYVpYMDD9j97vD377e87He6/ee+T4fIQQQgghhBByxczn84fL5TK9WCxOpV+kZsdrxzCVpmRcD5yd+NVqdSgHmJMDvdiDSd9WO7aMHatTk79er2/IgTX3eOL/qJzlb51CkIN65ZXJv4Tw0plr/p5fdrZejuSSe9+FT3/Wg5O/OQteuADw0asA9tuRCwBnHgb45gKA8XIBAAAAAAAAAAAAAAAAAAAAAAAAAAAAAAAAdqu1Ws2+YAFAq5FIxBQKBTOdTgHQArDNZDJmMBgAoAVgm0gkTLfbBUALwDYWi5lmswmAFsCmx8fHf705A3DNALbFYtHMZjMAtABsc7mcGY1GAGgB2B4dHZl+vw+AFsDm5txqtQDQArCNRqOmXq//ujkDoACwaaVSMaFQ6NZOAlxlwI62L2fEXQAUGw6HPwvCYwB0eyYITwHQ7YUgPAdAv6/T6fQhALr9IL8Z7gAAgCcBcn6//4BL0P/vudyEn3ET1ulX+T3whK+hOv0kfcQPMZ2+DwaDt3kYp/AwrlqtmkAgcJOnoQqPoxuNBu8DNADi8bjpdDq8kNEASKVS5uTkhFeSGgD5fN6Mx2NeymsAlMtllqVoAWze/bIwS2FpYrvdZmmiBkAymTS9Xo/FuRoA2WzWDIdDlqdrAJRKpa03WwCuuf9aBQ0Af9IDAAAAAAAAAAAAAAAAAAAAAAAAAAAAAAC0Ab6zgYMugJe3MDl1ASDl4U18kuoAdns/OZhzDwLYMd/zuZDfe0fy6deK3dZPDuqdVyZfPnBvJpPJgc+lsJmnI7m0ne1M+mMPJt2OwW7N6/Z2toQQQgghhJCdy0+jfsNTfAIN1QAAAABJRU5ErkJggg==;" parent="1" vertex="1">
                    <mxGeometry x="320" y="440" width="20" height="20" as="geometry"/>
                </mxCell>
                <mxCell id="159" value="&lt;span style=&quot;font-size: 12px; text-align: left;&quot;&gt;[readEvent1, ...]&lt;/span&gt;" style="rounded=0;whiteSpace=wrap;html=1;fontFamily=Helvetica;fontSize=11;fontColor=default;fillColor=none;strokeColor=none;align=right;" parent="1" vertex="1">
                    <mxGeometry x="200" y="460" width="120" height="20" as="geometry"/>
                </mxCell>
                <mxCell id="160" style="edgeStyle=orthogonalEdgeStyle;shape=connector;rounded=1;jumpStyle=none;orthogonalLoop=1;jettySize=auto;html=1;labelBackgroundColor=default;strokeColor=default;fontFamily=Helvetica;fontSize=11;fontColor=default;endArrow=classic;" parent="1" source="161" target="144" edge="1">
                    <mxGeometry relative="1" as="geometry"/>
                </mxCell>
                <mxCell id="161" value="" style="shape=image;verticalLabelPosition=bottom;labelBackgroundColor=default;verticalAlign=top;aspect=fixed;imageAspect=0;image=data:image/png,iVBORw0KGgoAAAANSUhEUgAAAGAAAABgCAYAAADimHc4AAAABmJLR0QA/wD/AP+gvaeTAAAFKklEQVRYCe2Z329URRTHv7O/7rbbCi0oRoISJbxUAaGRJyWQhWKiJRIxISa+NMEQfzyJRkz8E2ygkJiYEo0v6oOJFvlRSTXBXxGIJQYqIWKs0VQlgOL+6u7d8cymTe5DX3rv7M7M3tPM6c5cOjPnfD6de8suwF9MgAkwASbABJgAE2ACTIAJxI2A0FVwZWKyT/oYgsQOCKygdZdTuNyuU/IzVM+4SNRHvfzGyzTW3iILkOfPpys3U29RZvspkhTt2HwIecRb6h8Q/f1VnQVGEiA/upSp9FTHKKEdFHFop7ye2qBOCYko1Aj+IZofF/hUKnZWbqWGVUdXhD4Bc/f8i5RIu952qLQFmy/gP+Rt3zS14L8u8mLoE0AP3Odpr7jBp5KRlEjtUx0dEVoAIPI6EnBzDamt9ggC5Co34WnJ+j4tq9AiEQSgi+bHtXXrKjyKAF05xHodFmBYPwtgAYYJGN6eTwALMEzA8PZ8AliAYQKGt+cTwAIMEzC8PZ8AFmCYgOHt+QSwgJAEpET5w69CTrZnmpMnQBYrKAx/gsr4D/aQDJlJKuQ8Y9PqMzdROHwc9T9vGctB58ZOCahd+R2loydQL5R1MjC6ljMCql9PofTeF5C+bxSY7s3tF0AP29IHZzF75qLu2q1Yz2oBsjyL4tunUPvxVytgNSMJawXUb/yH4uEx+L9db0bd1qxppYDaL3+hODIG+U/RGlDNSsQ6AbPfXUH53QnIaq1ZNVu1rj0C6GFb+fQcymPfA9S3ilITk7FCgJytoXTsDKrnrjaxVDuXFmHTKn8+KcPODc6T/xZRGPkM/rWZ4GVn+yumRxfF1OgJ8Kf/JvjHIekvHmeJR0zcmIDq5DWU3hmHLFcjluD2dCMCKicvoPzxt0Bdy13MaQOtFeDXUXr/S8yeveQ0NJ3Jt0yAvF1G4Sg9bK/+oTN/59dq4QcyfLtZ6LelZQJEdwe6DuxGZtu6hfKI7bWWCWgQTgp0PLsFHc9tA6jfuBbzbwkT9We29CH38iBER8bE9lbtaUSAIpB68F7kXn8aiWV3qGFsw5gARTy5chm63nwGybUr1TCWsaj3LYKEdL0XpNaUNb/xeW/1myk1XFQsGX1pUT+v64ez2zeEZhfMwegJmE9EpJLoHMoju/dRQGipa35p61+tEDBPyctvQOf+nRCZlv3/cH5rY69WCVAU0pvWIHdwD0Rvtxq2fVgnQBFPrlqO7jf2ILn6LjVs67BSgCIuluaQe3U30g8/oIZtG9YKUMSFl0bnC48jO7hZDdsyrBbQIE5/FXm7HkHHvgGIdPs9nO0X0LAAZDavRe6Vp6De1Ju71BYvzghQtJNr7kaXejjf06uGbRFOCVDEE3cuQY4kpNevRjt8OSdAQRfZDDpffAKZ/Ho1dDqcFNAgnqDPFvY+1ui6/M1dAS5TD+TOAgIwTHRZgAnqgT1ZQACGiS4LMEE9sCcLCMAw0WUBJqgH9mQBARgmuizABPXAniwgAMNElwWYoB7YkwUEYJjosgAT1AN7RhFQCKwTt+5tXQVHECCmdSXh3DoS2mpPhC5eypOh57o+UYgTukoILUAk6qOURI0ibq0m6uKYrqJDC/DyGy9TEiMUMWti2BtY95OuokMLUAl4PbXX6PU0RTwa3Xa91I2DOouNJED091dJwpOU0BEKn6Jdmw8hD3m9/i6xdavW267QRawyMdknfQzRegMU91NkKVxuZUj8TAWcVs+7uVsuDbkxASbABJgAE2ACTIAJMAEmwASiEfgf6ZsVh8Ca6qkAAAAASUVORK5CYII=;" parent="1" vertex="1">
                    <mxGeometry x="320" y="490" width="20" height="20" as="geometry"/>
                </mxCell>
                <mxCell id="162" style="edgeStyle=orthogonalEdgeStyle;shape=connector;rounded=1;jumpStyle=none;orthogonalLoop=1;jettySize=auto;html=1;exitX=1;exitY=0.5;exitDx=0;exitDy=0;entryX=0.5;entryY=0;entryDx=0;entryDy=0;labelBackgroundColor=default;strokeColor=default;fontFamily=Helvetica;fontSize=11;fontColor=default;endArrow=classic;" parent="1" source="163" target="165" edge="1">
                    <mxGeometry relative="1" as="geometry">
                        <mxPoint x="1080" y="520" as="targetPoint"/>
                    </mxGeometry>
                </mxCell>
                <mxCell id="163" value="" style="shape=image;verticalLabelPosition=bottom;labelBackgroundColor=default;verticalAlign=top;aspect=fixed;imageAspect=0;image=data:image/png,iVBORw0KGgoAAAANSUhEUgAAAGAAAABgCAYAAADimHc4AAAABmJLR0QA/wD/AP+gvaeTAAAFKklEQVRYCe2Z329URRTHv7O/7rbbCi0oRoISJbxUAaGRJyWQhWKiJRIxISa+NMEQfzyJRkz8E2ygkJiYEo0v6oOJFvlRSTXBXxGIJQYqIWKs0VQlgOL+6u7d8cymTe5DX3rv7M7M3tPM6c5cOjPnfD6de8suwF9MgAkwASbABJgAE2ACTIAJxI2A0FVwZWKyT/oYgsQOCKygdZdTuNyuU/IzVM+4SNRHvfzGyzTW3iILkOfPpys3U29RZvspkhTt2HwIecRb6h8Q/f1VnQVGEiA/upSp9FTHKKEdFHFop7ye2qBOCYko1Aj+IZofF/hUKnZWbqWGVUdXhD4Bc/f8i5RIu952qLQFmy/gP+Rt3zS14L8u8mLoE0AP3Odpr7jBp5KRlEjtUx0dEVoAIPI6EnBzDamt9ggC5Co34WnJ+j4tq9AiEQSgi+bHtXXrKjyKAF05xHodFmBYPwtgAYYJGN6eTwALMEzA8PZ8AliAYQKGt+cTwAIMEzC8PZ8AFmCYgOHt+QSwgJAEpET5w69CTrZnmpMnQBYrKAx/gsr4D/aQDJlJKuQ8Y9PqMzdROHwc9T9vGctB58ZOCahd+R2loydQL5R1MjC6ljMCql9PofTeF5C+bxSY7s3tF0AP29IHZzF75qLu2q1Yz2oBsjyL4tunUPvxVytgNSMJawXUb/yH4uEx+L9db0bd1qxppYDaL3+hODIG+U/RGlDNSsQ6AbPfXUH53QnIaq1ZNVu1rj0C6GFb+fQcymPfA9S3ilITk7FCgJytoXTsDKrnrjaxVDuXFmHTKn8+KcPODc6T/xZRGPkM/rWZ4GVn+yumRxfF1OgJ8Kf/JvjHIekvHmeJR0zcmIDq5DWU3hmHLFcjluD2dCMCKicvoPzxt0Bdy13MaQOtFeDXUXr/S8yeveQ0NJ3Jt0yAvF1G4Sg9bK/+oTN/59dq4QcyfLtZ6LelZQJEdwe6DuxGZtu6hfKI7bWWCWgQTgp0PLsFHc9tA6jfuBbzbwkT9We29CH38iBER8bE9lbtaUSAIpB68F7kXn8aiWV3qGFsw5gARTy5chm63nwGybUr1TCWsaj3LYKEdL0XpNaUNb/xeW/1myk1XFQsGX1pUT+v64ez2zeEZhfMwegJmE9EpJLoHMoju/dRQGipa35p61+tEDBPyctvQOf+nRCZlv3/cH5rY69WCVAU0pvWIHdwD0Rvtxq2fVgnQBFPrlqO7jf2ILn6LjVs67BSgCIuluaQe3U30g8/oIZtG9YKUMSFl0bnC48jO7hZDdsyrBbQIE5/FXm7HkHHvgGIdPs9nO0X0LAAZDavRe6Vp6De1Ju71BYvzghQtJNr7kaXejjf06uGbRFOCVDEE3cuQY4kpNevRjt8OSdAQRfZDDpffAKZ/Ho1dDqcFNAgnqDPFvY+1ui6/M1dAS5TD+TOAgIwTHRZgAnqgT1ZQACGiS4LMEE9sCcLCMAw0WUBJqgH9mQBARgmuizABPXAniwgAMNElwWYoB7YkwUEYJjosgAT1AN7RhFQCKwTt+5tXQVHECCmdSXh3DoS2mpPhC5eypOh57o+UYgTukoILUAk6qOURI0ibq0m6uKYrqJDC/DyGy9TEiMUMWti2BtY95OuokMLUAl4PbXX6PU0RTwa3Xa91I2DOouNJED091dJwpOU0BEKn6Jdmw8hD3m9/i6xdavW267QRawyMdknfQzRegMU91NkKVxuZUj8TAWcVs+7uVsuDbkxASbABJgAE2ACTIAJMAEmwASiEfgf6ZsVh8Ca6qkAAAAASUVORK5CYII=;flipH=1;" parent="1" vertex="1">
                    <mxGeometry x="940" y="480" width="20" height="20" as="geometry"/>
                </mxCell>
                <mxCell id="164" style="edgeStyle=orthogonalEdgeStyle;shape=connector;rounded=1;jumpStyle=none;orthogonalLoop=1;jettySize=auto;html=1;exitX=0;exitY=0.5;exitDx=0;exitDy=0;labelBackgroundColor=default;strokeColor=default;fontFamily=Helvetica;fontSize=11;fontColor=default;endArrow=classic;" parent="1" source="165" edge="1">
                    <mxGeometry relative="1" as="geometry">
                        <mxPoint x="1000" y="540" as="sourcePoint"/>
                        <mxPoint x="940.0344827586214" y="569.9999999999998" as="targetPoint"/>
                    </mxGeometry>
                </mxCell>
                <mxCell id="165" value="remove acknowledged&lt;br&gt;events" style="rounded=1;whiteSpace=wrap;html=1;fontFamily=Helvetica;fontSize=11;fontColor=default;" parent="1" vertex="1">
                    <mxGeometry x="1000" y="510" width="160" height="40" as="geometry"/>
                </mxCell>
                <mxCell id="166" value="" style="shape=image;verticalLabelPosition=bottom;labelBackgroundColor=#ffffff;verticalAlign=top;aspect=fixed;imageAspect=0;image=data:image/png,iVBORw0KGgoAAAANSUhEUgAAAGAAAABgCAYAAADimHc4AAAABmJLR0QA/wD/AP+gvaeTAAAMs0lEQVRYCe1ZDXBU1RU+571NgmR3k/CbVoRNjKCmrVZl2qmdyqiltR1QaVVwxqqtkr+ajq3odDq1cexQHeof5odMQWurTkVHi86oU6aWkTJO66hIqxZIsiEiAgkEsrshJPve7XdJNmx29923u9lsfng75+y795xz7z33O+/+PiLn5yDgIOAg4CDgIOAg4CDgIOAg4CBwpiHAE7nDZeuPeI3cvK+RoK+ALxAkSphpNtKz4Pc08CAxhSALIRMk4s9JmLuJeY9g2kN94Z3tdxcdg25C0sQKwGahn3sk8HVB2nKAfQ1ALQdqGng0ZKLwLtT1Nmv0digYevPQmmIZLIjHn8Y/AEKwb0NoKZl0I7NYBkhmg8eSAmjyRV0zn2qt8u4Yy4aSqXvcArCkTrg65oZuEkKsgaMXgceDPmES64p0z7PvVfDAeDiQdgB8jT33tVd7H07V6UubRc5RI7gac/U9RMJHE+PXQUzrxDT3xvbbuS+bLqU9vzLxQ6UNgTpK4VfaePz7AP9jFKmfQODDHZqPNeJJ7USwpaQh+CMpyBanPQJKGgNCOsmCHmir8dSR4jevqffsXGH8HgVWKswmjAp+vuwK6z9rqZ2+f6ydSnsERBzDVu83qpFQ0tCzLEcYH6FTkwJ82S+8lSsMl7FTjliZH0tGW+lVHxkBkdJxIwFbDd+G4P2Q3w+b0QT6IKarndiafoAF8wONtDZDN0Kuk65gv6s/hLpJz3HlGgPh/BzKKTLYPA/TyUJ07ELorgAXg9Ml7BH4YV9n/q+31XE43UpU5eCnSm2tiw2AtATYp6aj0uajBcLI/TOAk9tKqUqFBYzfx6K4hQRv8Ve7dyGfNpXVB8pN5qWCzVVY+BenVRHT3/WB/hUttTN70iqvKJTRAMh2NGzrTOKrkf4qOBXqhfHTBhmPdlQXtiGdcfI195yvGdptOORVovICcCr0YdjQvvfpXfkHUilkZ5vxANg1mEAfIEGP6wY92VLr6Uygz7hocIS6ajAi7kbls8BJktgHw+/4q7278cwIcbq1JJqCUqzLBPD1A3nmA/vvKDiaYtmMmM9ddzA/f3r+GmwkfokKc8HJ0AHB4cvbq4raKQO/cQkAJvlWnWl1a5XnrQz0YdRVlDaEFmONwJpFi5KqjOk/oi/8rUxc8o1md5KUr7FG2Fa8bpKxeKKAL/1rq8l/NzevTy7QL8i8LQv6Mue5/ipP9ba2NgbZDADWPnqwvdOzDItst41fWVfv/snsgL/asxIn/F+gcRNsR1ccDQd+Z2dkp8/iFCRexeJ1rZ1DE0Ff2hi8GW/L0/DFbl2AmbjWX+N9DbZpURZHAC9XnZjT8n6MCrVVu59nTbse1feDVYQBw38sW987T2Wk0mUxADiWMSmvLVSOZlvXVpn/OtC9He3aTUczjBzjMdilRVkNgPQQW77JEwSMBHzavFf6rWRBP8Qt6lKljYUy6wGQfkymIPir3I/gWuQl6beSWawv3yxylTYJlOMSAOnHZAoCawN3CKJW6beCF53oDN6h0CdUjVsApDeTJQhtFTOOMwm5HiAO0vPEjP7cl+ooGNcAyG7A6UmxJmALvR13R09JnxU8P9QV/LFCH6fiOIkjsETA1xAsZha7YeAFW9FerBuLsHgrR0uksBZJOE97BNpr3AfxzcNuy3kePkRdYV/boIUTgEEckv7vzzPXwzgAtiaTb7FWjtQ4ARiJh21OXp0zk3ItwDS1wve0mGZbGQycAACEVAmfu5UBQH2F2sneK/G0Jc3WwjGIQ0B+p8YoeD9OESUwhXF1VNYy6QTAEhq1wjSF8tuBRpzUQuwEQI2zpVZo+lZLJRRC0MXzNh6fgaSSnAAo4bFW7qucvhPaTrAVaTlh/VIrZUTuBCCCRKpPbHVwit2hLGaKhUo9lE4AAMIoaJeyrKDzlXoonQAAhLSJeY+yLJMzApQAjVbJLO+FVLUUq5RS55J/KvY1BtdirnMxmd0mcTcJ6sanuiEOd5/T6W3fVsdhVR1TVWcMDBzRdF3RPfYolKdUtgHAPfidsJwl8FkIgcCNLHKIgjjFGrXM65kJyVHwGUdh1npylb0WtgFIZg3wqtoo8HqDKv1U1hXO8QRs+peRAJx68W0aOiPVJw9iWlD33Ba7ZEaAMsrHDgdso6z2cfJqtTzbviuxkz23XQNgFALPAEdIINGF0Hbic2LXNJ1VqxBMpzgxbcFyOAu9nA2eCy4ADxGPPgC4el1NmuhzGdRp5HGX/7P8Tqpjc6iFM/qxp8LbBQCuAw9T+WaR23Ood5YrR8w2yZw+rHASDgIOAg4CDgIOAg4CUxCB8obD7inYrax0KZlzQLwj2JuWNgYux/3QDcS8vJdEN4wuATuUIgI4TyVXYkmdcHXMCS0RQizDAfx6lDoHHEV8kb/avStKMGWTC5pDX5Cd21eR/7l8joaTuYogwhu/b07wXdyAbgX4tWgwBnyYsHkbnSE/zRAPaoa5v6QxsBV8gzx8pdv1pEdASVOgAUfuakVDvXqYfC21HtWHakXxyaFa2Nwza8DgffB2OniQmPazoKdId21qqzirY1CY3L+WnBmRyeJZG9tpYZ2utLGZ9Oqwqa1BJ06DjwxezHm4ILtfGGF/SWPPG77HugulOBnWkjGSNvsqve/g+V9wLAk0/jIbfHF7jeeFWOVUyp/zZOiLWAN/qugT8OTi9ruLjilsRqhcI3I2GRa8VrB4fsjMwMz/vNBpbXuF939Dsin9cOnm4+jgyLcfgpHEj4zMq3OsVsdoNwu9pCv4EYD/t6HxQx2Vno9jLKZstrQ+eJXQxFZ0UIVZhx52L2yp5ZOwS4pUlSWsYH7jsaKO6kK570+on4rCkj8E51K/+BA7QHnfb91Fwbf6a9x/sjaI12jxIrXkTANfosFhuhrgz5FpBX+yoDM/Mj0rzEaqUg7AyOLqnK8hWKy2mBzatir3c6agq7DbOWThMZZGsXpbHUJlYWAlHrMA+JoCtcziUzwrrBqfTPJ9NZ5/6IZ+GYLwTqzfzPxMW433n7HyZPKZD0Cd0LAXXoeDyRNwwIVnva8hcBPSk55aaqfvF9PdVxLxpqjOfO7SzDVR+ZSSKS/CqtrlAYRzXZsxX347xk4w8T1t1e5HY+STNrugqed6TfBG7Aiv81d7t6fbkYwFoLT5xHycBF+FIxeB4wiHtVY6y/2l9tu5L045SQVyd+S/0221LiTVq4wEAIvtxZjv30CLxeBE1C108Y2JfGCTdzwmmQUtFYWtiTowVjItExW7jJNtzHTAoq4+jcWyCQs+bnpxo7kaF2x7DUN/s2z9Ea9FP8ZEnJEAtNTO7NEG6LvwcDc4mvDNhm5trfLuiBZOlHTZ+t55JU2hLfCnGVwILjNz8p7AM2uUkSko4i1OyaUa6X9DpecOydb6qz2/GkpbPsrqA+Vajji0p8LbZWmUQcXZ9T0z83Tt3qGLtbi7Hbw1t7VXu5/JYJOWVbGlJk2FXJhoQMj1YI+/yr0Knyyx/ioqk1NAU/A9WCwCbzI02jBWd0zSN+4XD2BLdgvaigMesiHikCnEYuz9PxkSjNkj4wGQnsp5NOyZ0Z/MjsfX2HMdtqivyHIRxnryPrG5sq2yYG9ElolnafPRAmHkyLVKAf5wS3v1cP9lcnodloxBIiNrQKxf0ulkwCcc2nCo+W1seQyKRX3s/SxWHp3HdFd0Kg9jOaWc23C8bP6GwIWnZBZ/bRUzjuPt32KhjhWfF9bzHosVZjrvynSFqdRXMju4Avbl4BHEJLYeqODeEcKozOCbrB/F7oWoKUikMZk4/enmqZ3Y2VGmcUk2aANptCpOES/4VNfEc/HizErGZAQk5SLefryNdZTgh5f6lQTiKNFZBVGZ6GRx+WaRGy2ITeO6eDtkLWBLwrz8lxxdXNJa5XnL0ihDinELQMmc4A/Q0bi3H/3qF/0Dr+JpScIw5JYxkV4LdB2fl0gxLMOJEbRpOD8ysQejaWlbtWdVtnZk4xYAbI0qR/Z9MIeg7LD7pipIFA1ax//nsO4jm59Lo40wOQmO0E4SYrn/sPsCf6V7a0SYjaeWjUYStZE/y30N5DdiEf4XnqdJ0EunM4lTWCOspiAyTDE/canTUvl2I9BvQLJDCFq54LB7sb/G+xrVsQlZVmncFuGPbuR+9PRFvHkvlTQFvomt6M0YFTcw6a9BriahFRLuuRMaMc9PKI8R9ve5b97/cz4hxe00fr9xC8BwlzEh+4nkwrh9SZ24a1sSX5UEURHe4OEqRibYR0n8IuAnYTqmJuMfgKjuJQO+NGc2sdPhANIesKQeBCSAwHQicxDskIOAg4CDgIOAg4CDgIOAg4CDgIOAg8CEReD/Geb8m+kDBzcAAAAASUVORK5CYII=;" parent="1" vertex="1">
                    <mxGeometry x="930" y="570" width="20" height="20" as="geometry"/>
                </mxCell>
                <mxCell id="167" value="" style="rounded=0;whiteSpace=wrap;html=1;fontFamily=Helvetica;fontSize=11;fontColor=default;" parent="1" vertex="1">
                    <mxGeometry x="420" y="640" width="440" height="40" as="geometry"/>
                </mxCell>
                <mxCell id="168" value="" style="shape=image;verticalLabelPosition=bottom;labelBackgroundColor=#ffffff;verticalAlign=top;aspect=fixed;imageAspect=0;image=data:image/png,iVBORw0KGgoAAAANSUhEUgAAAGAAAABgCAYAAADimHc4AAAABmJLR0QA/wD/AP+gvaeTAAAGG0lEQVRYCe2ZW2gcVRjHz5ndpCUbsUiRQtGCoi+Fim2iUdvsbAJN4u6SvXTrDUVB90l9bIq+5MVifLP0xSBU8KGatJnE7m42hdTZJKUpXSIR+qIoVCnEJLRFCSTtzjl+J6vdXHZ3LjuzSZpv+L7JnOu38/vnXGaGEDyQABJAAkgACSABJIAEkAASQAJVInAonq3xhlKnqxRu04aRNuKXtUSS++rnZicJ5R9tRPzNFLPqAvhCw60aJ1lC+MHNBGKjfktVBWgOJ7oYZWm42d3gaEDADe64HT064lnyaF/Df/3rjgfbYgEcF6AllHp6ieYGgMsBcLQ1BBydgnzhZKdG+RTEPACOVoSAMyOgu1uSp184xQg/QQih4GglCNgugBxSdvHp2m854YESMTF7BQFbBfBF0/sZ0xTo/xlwNAMEbFsD5EjqGGO5SYiJ8AGCUat4BMRifa65XP1nnIv5nuJ8b5T8f/UqAvZyeOTxGqJ9D/t7meBRlEBG8ZdlbHkEeCPDjYTnLkDUJ8DRLBKwtAZ4w8n3CGdjEBPhA4RKzNQIEK+Q6+dnzxDO45UExbYFAoYFkGPJPXxuph+eqw4XmuNVpQQkIx3AFrOJ58QrZIrwjQAzUUdXAG8oEYctpkoI2QuOZjMBXQEIpTshpn49qIRmnoAuWNjHnoaPKE3Q9U1wNJsJ6Aog4o0PBKdojjXAC7ZRkUa3j4AhAUQ49WJwXrrjaaeE9og0uj0EDAsgwqmqL6cqr54knLwJb/kXRB56ZQRMCfB/qMyg/5zE2SuQ/h0crQIClgQQ8X5UgtP33K5GzumISKNbI0CtNVvZitPmcPIErA2nINe0oLDLsuE3QOQtaqaBrb9PyseUQA9Q7ISyu+BoJgjYIEA+mqr4ExohL8K3gRv5HDwbIWCbACLYhOL/JadpL4EI50UaXZ+ArQKIcFd+6PwH5vXj8NB2EtIwKOCMVpKA7QLkIz1YFwKQvg2OVoKAQwLko8G6kNbc7Hl4cMvmc/C8loCjAohgE/3BP+iuuiPw5PwNwWMdAdg9rstzLEN8W4DX22cgQA34ssF6UdXfsBx0E50cHwEr7zUzGOgljLdC3gw4GhCoqgAQj2SGAuMuN2uA60nwbW9VF0AQv9wfvFW3SGWYjnpFGh0JIAEkgASQABLYhgS84eSXh+LZB88l1UawIbugat+kTryP6+dmJ1siyX069RwpRgGWsfKDGidZX2i4dTlZxRMKUIC9m1GWbg4nugpZzl9t6/cwAi+sAVz8XePndiy4P7h0qW1hTb7tSRwBxZG+seTJXTkcTTxVvNi+XMm+rh66np5zMXrdF020OXlnKEB5uo8xRoflcOpz0t3tCCtHOi1/T1uulML37S7vdOOQHFJ22f3rUQDjRAOc1l7zRdP7jTfRr4kC6DNaWeNZxrSrciR1bGVmJdcogHl6j3DO+8S6EIv1ucw3X91C9zmgxD55dS/bN5W+53a9dbW//bZVBDgCrJLLt2uvva/9JEeTDfmk+TMKYJ7Z6haUPMkZGZdDyXeJhQMFsACtSJOdnJKz3kjqK7OvtlGAIjQtZ3Eer5/7a1SOJfcY7QMFMErKeL0jPEeysFVtMtIEBTBCyXydvbBVVb2hRFyvKQqgR8h6uUQkskOvuVuvApZbInATPu5ExgeCU3qtcQToETJZDi/uRmmONRiBL7pGAQQFm5wS2iPd8bSrF4PzRrvEKcgoqXL1KFmgnL+vKv7vylUrVoYCFKNiLu83RiWY7zt+NtcsXxsFyHOwdOaEDC0t0neuDXf8bakDaKT7NhTqPNRm8W0vg8X2kzHF/wUh8MGsAkI4AszDuwv/tW9nlEDCfNP1LVCA9UzK5PAbXOLhzIXgr2UqmSrCbahhXPw8dXuaxmyEL0LjCBAUyrsG8/2ndsz3xcKgAMWoFPJmKWevZQaDKnHoQAFKg73OmTuaGWr7s3SVyktwDSjO8Cx9tK55zGH4IjSOAEGh4PcJ5x9mBgO9hSxnr1CAAt8ZSqSYOtgxUchy/gqnoDzjSZebNahKdeGL0CgApb11i1S+3B+8JYCgIwEkgASQABJAAkgACSABJIAEnCbwL/J3jAfPFh69AAAAAElFTkSuQmCC;" parent="1" vertex="1">
                    <mxGeometry x="820" y="640" width="40" height="40" as="geometry"/>
                </mxCell>
                <mxCell id="169" value="" style="shape=image;verticalLabelPosition=bottom;labelBackgroundColor=#ffffff;verticalAlign=top;aspect=fixed;imageAspect=0;image=data:image/png,iVBORw0KGgoAAAANSUhEUgAAAGAAAABgCAYAAADimHc4AAAABmJLR0QA/wD/AP+gvaeTAAAFKElEQVRYCe2ZQWgcVRjH3xu2qzWzIaUtLYoms5ZexFMvRqSFoGIOSkXwoNWD4CFrU9pDaQUPBXtIT6U1TgWlglYPglhESEAI1IM9SE/ipZDd9FAhxWDZzKQau/P8XjI1083Ozps3b2YT+y/vy7x573vfN/P773Tmm2EM/0AABEAABEAABEAABEAABEAABEAABB5AAo67+CETghd96lbRCTdwvg8c1/vyqW9EuchjhABR2py96f/hTe05v9AfHc6zDwHa6NL/QSOtUnnG+dTb1TaVyy4E6Ix1H/uHXa1ONvd2njY3CgFiWQpHcP7Tk66/L9bFwAQE6AaRs10BE1cGXX+0m1uWOQiQSE/0WSy4XHW9NxJdNRwggBq0smDi0pDbPKHmru4FAdRZcc74hPPx4jl2ShjjZiyQ+nlsck/Ojjg7vS9MFWwQQOf3YLBgo7pD7QjoXYno5tmoVe6LZdq/W+6ezQl2dVmIl28e7l/QPQZcAbrk5DrOhsuW9UuWgg0CSJCZLFvBBgEywQ8XZyjYIEDIMPtGr2CDANnJRyOkLtggQBSfoT4XvKQaStlRNeAD7vcXlcuH6rXKt6ocIIAqqWS/psXZq7NjlZlk1zUPCLDGIkvvd97iL82O27+mDYJ7QFpi6/2vB63Wc3UN+DIUBJAUdE2+igjEszfGBxq6Ie57f6Mb5P+wLundVYdzvCL+vntw7ti22x3mlIdwBSijWnMUgl8cvGU/nxW+jIibsKSQwuijzJlGre/9Oc5FimWxrrgCYtGsmwjol3+0XrNPMkPwZQZcAZJCsq0UWI2arVxgJYdc9YAAqxy6/dUqsLoFjM5BgCiN9X3tAmt9qM4juAd05iJHMxVYMoCKQYBOlAwUWJ3CdhqDAG1UOBNTS0v+CzcP9y+0TeWyCwEiWOkx8+ITtyqvzB/f7UeG0S2CQNX1JhgpUEQu5AABEAABEACB3hCgG51zYfF0b5JvvKyFfpAZ+lw8zO94lwjDa41apdDclHNDtlJRR7Xn/EL/3Tved5RvhAwtJFCIAI9/5D/aKgXT9Anj6TAvNiGB3AWoTjb3CktMM8GcMCc2EQJWpG+8O/hJc1hY/GfGBODH0M1NgEHXH7UC60fKu50MLYZALgJULzTfsVjwPf3y+2LyYjgkYFyAIbd5gh71P6P4ud9fKMemb+YgnRKWs9M7S0SOkKEpEjAiQLTAUswLt5BAZgFQYIUkNTdcc93Ksscmm9vLFv+Bdp4h21St/VWI4y6KbieQ1T8utvYVsFpgWdP0pOPEBcd4MgGtpyAUWMlgVT1SC4ACSxWtml8qAVBgqUFN46UsAAqsNFjVfZUF4IxvUQ8LT1UCygLQY9hpzvlbFHiZDM0QAWUBZL76mP2Vxdko9ZtkaAYIpBJA5psdq8xYzBqhDyzzch+WjUBqAWS62VrftSBoDVP/OhlaBgJaAsh8N8YHGmwL30/9a2RomgS45rr/lg2d/XOAP1S6TAMHyJQb3dQz51ZOtoEdta+Ae+c0d2zb7Ud22C8Kxr6+N4atOoHMAshUv73Ol+fG7ENUK5yR+zB1AkYEWEnHuajX7JP0OfIo7QdkaAoEzAkQJpt7zz5HBdvbtLtMhpZAwLgAMh8KNklBzXIRQKZGwSYpJFtuAsjUKNgkhe6WqwAyNQo2SSHechdApm68a88v+f4BzsSU3IetEShEAJlu/vhuf+uOykEUbJJGL40KharrTfTyEJAbBEAABEAABEAABEAABEAABEAABECgVwT+Bbu7ZeBbIGIFAAAAAElFTkSuQmCC;flipV=1;" parent="1" vertex="1">
                    <mxGeometry x="620" y="640" width="40" height="40" as="geometry"/>
                </mxCell>
                <mxCell id="170" value="" style="shape=image;verticalLabelPosition=bottom;labelBackgroundColor=#ffffff;verticalAlign=top;aspect=fixed;imageAspect=0;image=data:image/png,iVBORw0KGgoAAAANSUhEUgAAAGAAAABgCAYAAADimHc4AAAABmJLR0QA/wD/AP+gvaeTAAAGG0lEQVRYCe2ZW2gcVRjHz5ndpCUbsUiRQtGCoi+Fim2iUdvsbAJN4u6SvXTrDUVB90l9bIq+5MVifLP0xSBU8KGatJnE7m42hdTZJKUpXSIR+qIoVCnEJLRFCSTtzjl+J6vdXHZ3LjuzSZpv+L7JnOu38/vnXGaGEDyQABJAAkgACSABJIAEkAASQAJVInAonq3xhlKnqxRu04aRNuKXtUSS++rnZicJ5R9tRPzNFLPqAvhCw60aJ1lC+MHNBGKjfktVBWgOJ7oYZWm42d3gaEDADe64HT064lnyaF/Df/3rjgfbYgEcF6AllHp6ieYGgMsBcLQ1BBydgnzhZKdG+RTEPACOVoSAMyOgu1uSp184xQg/QQih4GglCNgugBxSdvHp2m854YESMTF7BQFbBfBF0/sZ0xTo/xlwNAMEbFsD5EjqGGO5SYiJ8AGCUat4BMRifa65XP1nnIv5nuJ8b5T8f/UqAvZyeOTxGqJ9D/t7meBRlEBG8ZdlbHkEeCPDjYTnLkDUJ8DRLBKwtAZ4w8n3CGdjEBPhA4RKzNQIEK+Q6+dnzxDO45UExbYFAoYFkGPJPXxuph+eqw4XmuNVpQQkIx3AFrOJ58QrZIrwjQAzUUdXAG8oEYctpkoI2QuOZjMBXQEIpTshpn49qIRmnoAuWNjHnoaPKE3Q9U1wNJsJ6Aog4o0PBKdojjXAC7ZRkUa3j4AhAUQ49WJwXrrjaaeE9og0uj0EDAsgwqmqL6cqr54knLwJb/kXRB56ZQRMCfB/qMyg/5zE2SuQ/h0crQIClgQQ8X5UgtP33K5GzumISKNbI0CtNVvZitPmcPIErA2nINe0oLDLsuE3QOQtaqaBrb9PyseUQA9Q7ISyu+BoJgjYIEA+mqr4ExohL8K3gRv5HDwbIWCbACLYhOL/JadpL4EI50UaXZ+ArQKIcFd+6PwH5vXj8NB2EtIwKOCMVpKA7QLkIz1YFwKQvg2OVoKAQwLko8G6kNbc7Hl4cMvmc/C8loCjAohgE/3BP+iuuiPw5PwNwWMdAdg9rstzLEN8W4DX22cgQA34ssF6UdXfsBx0E50cHwEr7zUzGOgljLdC3gw4GhCoqgAQj2SGAuMuN2uA60nwbW9VF0AQv9wfvFW3SGWYjnpFGh0JIAEkgASQABLYhgS84eSXh+LZB88l1UawIbugat+kTryP6+dmJ1siyX069RwpRgGWsfKDGidZX2i4dTlZxRMKUIC9m1GWbg4nugpZzl9t6/cwAi+sAVz8XePndiy4P7h0qW1hTb7tSRwBxZG+seTJXTkcTTxVvNi+XMm+rh66np5zMXrdF020OXlnKEB5uo8xRoflcOpz0t3tCCtHOi1/T1uulML37S7vdOOQHFJ22f3rUQDjRAOc1l7zRdP7jTfRr4kC6DNaWeNZxrSrciR1bGVmJdcogHl6j3DO+8S6EIv1ucw3X91C9zmgxD55dS/bN5W+53a9dbW//bZVBDgCrJLLt2uvva/9JEeTDfmk+TMKYJ7Z6haUPMkZGZdDyXeJhQMFsACtSJOdnJKz3kjqK7OvtlGAIjQtZ3Eer5/7a1SOJfcY7QMFMErKeL0jPEeysFVtMtIEBTBCyXydvbBVVb2hRFyvKQqgR8h6uUQkskOvuVuvApZbInATPu5ExgeCU3qtcQToETJZDi/uRmmONRiBL7pGAQQFm5wS2iPd8bSrF4PzRrvEKcgoqXL1KFmgnL+vKv7vylUrVoYCFKNiLu83RiWY7zt+NtcsXxsFyHOwdOaEDC0t0neuDXf8bakDaKT7NhTqPNRm8W0vg8X2kzHF/wUh8MGsAkI4AszDuwv/tW9nlEDCfNP1LVCA9UzK5PAbXOLhzIXgr2UqmSrCbahhXPw8dXuaxmyEL0LjCBAUyrsG8/2ndsz3xcKgAMWoFPJmKWevZQaDKnHoQAFKg73OmTuaGWr7s3SVyktwDSjO8Cx9tK55zGH4IjSOAEGh4PcJ5x9mBgO9hSxnr1CAAt8ZSqSYOtgxUchy/gqnoDzjSZebNahKdeGL0CgApb11i1S+3B+8JYCgIwEkgASQABJAAkgACSABJIAEnCbwL/J3jAfPFh69AAAAAElFTkSuQmCC;" parent="1" vertex="1">
                    <mxGeometry x="420" y="640" width="40" height="40" as="geometry"/>
                </mxCell>
                <mxCell id="171" value="" style="endArrow=none;dashed=1;html=1;rounded=1;labelBackgroundColor=default;strokeColor=default;fontFamily=Helvetica;fontSize=11;fontColor=default;shape=connector;jumpStyle=none;" parent="1" edge="1">
                    <mxGeometry width="50" height="50" relative="1" as="geometry">
                        <mxPoint x="199.99999999999955" y="639.9999999999998" as="sourcePoint"/>
                        <mxPoint x="1079.9999999999995" y="639.9999999999998" as="targetPoint"/>
                    </mxGeometry>
                </mxCell>
                <mxCell id="172" value="" style="endArrow=none;dashed=1;html=1;rounded=1;labelBackgroundColor=default;strokeColor=default;fontFamily=Helvetica;fontSize=11;fontColor=default;shape=connector;jumpStyle=none;" parent="1" edge="1">
                    <mxGeometry width="50" height="50" relative="1" as="geometry">
                        <mxPoint x="199.99999999999955" y="680" as="sourcePoint"/>
                        <mxPoint x="1079.9999999999995" y="680" as="targetPoint"/>
                    </mxGeometry>
                </mxCell>
                <mxCell id="173" value="&lt;span style=&quot;font-size: 12px;&quot;&gt;SS LOW - Communication Slot started&lt;/span&gt;" style="rounded=0;whiteSpace=wrap;html=1;fontFamily=Helvetica;fontSize=11;fontColor=default;fillColor=none;strokeColor=none;align=left;" parent="1" vertex="1">
                    <mxGeometry x="1080" y="630" width="220" height="20" as="geometry"/>
                </mxCell>
                <mxCell id="174" value="&lt;span style=&quot;font-size: 12px;&quot;&gt;SS HIGH - Communication Slot ended&lt;/span&gt;" style="rounded=0;whiteSpace=wrap;html=1;fontFamily=Helvetica;fontSize=11;fontColor=default;fillColor=none;strokeColor=none;align=left;" parent="1" vertex="1">
                    <mxGeometry x="1080" y="670" width="220" height="20" as="geometry"/>
                </mxCell>
                <mxCell id="175" value="" style="shape=image;verticalLabelPosition=bottom;labelBackgroundColor=default;verticalAlign=top;aspect=fixed;imageAspect=0;image=data:image/png,iVBORw0KGgoAAAANSUhEUgAAAGAAAABgCAYAAADimHc4AAAACXBIWXMAABJ0AAASdAHeZh94AAACsElEQVR42u3dTYtSURzHcRczReuC3kJPm15Fu15GbyHEjY+IDppoEpiK4GZw4UoqUReFKAOiomP4RJuWbaIJWszA6X8iYVpYMDD9j97vD377e87He6/ee+T4fIQQQgghhBByxczn84fL5TK9WCxOpV+kZsdrxzCVpmRcD5yd+NVqdSgHmJMDvdiDSd9WO7aMHatTk79er2/IgTX3eOL/qJzlb51CkIN65ZXJv4Tw0plr/p5fdrZejuSSe9+FT3/Wg5O/OQteuADw0asA9tuRCwBnHgb45gKA8XIBAAAAAAAAAAAAAAAAAAAAAAAAAAAAAAAAdqu1Ws2+YAFAq5FIxBQKBTOdTgHQArDNZDJmMBgAoAVgm0gkTLfbBUALwDYWi5lmswmAFsCmx8fHf705A3DNALbFYtHMZjMAtABsc7mcGY1GAGgB2B4dHZl+vw+AFsDm5txqtQDQArCNRqOmXq//ujkDoACwaaVSMaFQ6NZOAlxlwI62L2fEXQAUGw6HPwvCYwB0eyYITwHQ7YUgPAdAv6/T6fQhALr9IL8Z7gAAgCcBcn6//4BL0P/vudyEn3ET1ulX+T3whK+hOv0kfcQPMZ2+DwaDt3kYp/AwrlqtmkAgcJOnoQqPoxuNBu8DNADi8bjpdDq8kNEASKVS5uTkhFeSGgD5fN6Mx2NeymsAlMtllqVoAWze/bIwS2FpYrvdZmmiBkAymTS9Xo/FuRoA2WzWDIdDlqdrAJRKpa03WwCuuf9aBQ0Af9IDAAAAAAAAAAAAAAAAAAAAAAAAAAAAAAC0Ab6zgYMugJe3MDl1ASDl4U18kuoAdns/OZhzDwLYMd/zuZDfe0fy6deK3dZPDuqdVyZfPnBvJpPJgc+lsJmnI7m0ne1M+mMPJt2OwW7N6/Z2toQQQgghhJCdy0+jfsNTfAIN1QAAAABJRU5ErkJggg==;flipH=1;" parent="1" vertex="1">
                    <mxGeometry x="940" y="640" width="20" height="20" as="geometry"/>
                </mxCell>
                <mxCell id="176" value="" style="shape=image;verticalLabelPosition=bottom;labelBackgroundColor=default;verticalAlign=top;aspect=fixed;imageAspect=0;image=data:image/png,iVBORw0KGgoAAAANSUhEUgAAAGAAAABgCAYAAADimHc4AAAACXBIWXMAABJ0AAASdAHeZh94AAAC0UlEQVR42u3dS2saURjGcRdtP0sv3yoJIlESCCIhZBFRCAimphbqwoUgSAJBEMRaFRG8xGiiubUbP0J3baGLCG/PhLT0kjQm6JzjzP+BZz/n/RnHzIXj8RBCCCGEEELII3N2dvZqOBzuqF6qflaVOa+1hgvV+Onp6UtjBz8ajZ6qg0yqjh0w9Ls6VggJa61GDb/b7T5TB/fBwYP/u++NQlAH9M5Fw7+u+kt4a9J3/thtADdrfmHCp/+NC4f/s69NAPjkYoALEwC+uhjgiwkA4uYCAAAAAAAAAAAAAAAAAAAAAAAAAAAAAAAA2NPBYCDJZBIAHe12u7K1tSULCwsA2N16vS5ra2vXwwfA5haLRVleXv41fABsbC6Xk6WlpT+GD4BNJ9vd3d1/Bg+ADYs8OjqScDh85/ABmGGbzaaEQqH/Dh+AGbVcLksgELh3+ADMoHt7e+L1eicaPgBTPtmmUilZXFycePgATKn9fl+2t7cfNHgAprSQdrstGxsbjxq+iZ0rgEqlIisrK44Z/lwB5PN58fl8jhr+3ACk0+kHn2wBmALAycmJxONxRw7eeIBOpyObm5uOHj4AANz/FZRIJADQfRLOZrO3XtsHwMafoYVCgZ+huv8Rq9Vqsrq6CoDOSxGHh4eOOjnP5cW44+NjicViXIzTfT8gk8lwOVr3DZmDgwNuyOi+JVmtVie+SgrAjNpqtWR9fR0AnY+l9Ho9iUajAOh+MMu6VwyA5kcT9/f3bz05A2BjS6WS+P1+AHQ+nt5oNCQYDAKg8wUN65nRSCQCgO5XlKynpgHgJT0AAAAAAAAAAAAAAAAAAAAAAAAAAAAAAMDpAN/YwEEvgJu3MLk0ASDuYoCYdgBrez91IFcuHP7VYDB47jEhN3tH8unXlZt9JMtuGb765JfOz8+feEwKm3kakt+2s/2o+t0BQ7fWYG3Na/Z2toQQQgghhJC5yw8R5tFFAYEFRAAAAABJRU5ErkJggg==;flipH=1;" parent="1" vertex="1">
                    <mxGeometry x="940" y="660" width="20" height="20" as="geometry"/>
                </mxCell>
                <mxCell id="177" value="&lt;span style=&quot;font-size: 12px&quot;&gt;repeats until something happens&lt;/span&gt;" style="rounded=0;whiteSpace=wrap;html=1;fontFamily=Helvetica;fontSize=11;fontColor=default;fillColor=none;strokeColor=none;align=center;" parent="1" vertex="1">
                    <mxGeometry x="510" y="610" width="260" height="20" as="geometry"/>
                </mxCell>
                <mxCell id="178" value="" style="rounded=0;whiteSpace=wrap;html=1;fontFamily=Helvetica;fontSize=11;fontColor=default;" parent="1" vertex="1">
                    <mxGeometry x="1120" y="70" width="10" height="10" as="geometry"/>
                </mxCell>
                <mxCell id="179" value="" style="rounded=0;whiteSpace=wrap;html=1;fontFamily=Helvetica;fontSize=11;fontColor=default;" parent="1" vertex="1">
                    <mxGeometry x="1120" y="90" width="10" height="10" as="geometry"/>
                </mxCell>
                <mxCell id="180" value="" style="rounded=0;whiteSpace=wrap;html=1;fontFamily=Helvetica;fontSize=11;fontColor=default;" parent="1" vertex="1">
                    <mxGeometry x="1120" y="110" width="10" height="10" as="geometry"/>
                </mxCell>
                <mxCell id="181" value="&lt;span style=&quot;font-size: 12px ; font-weight: 700&quot;&gt;connected&lt;/span&gt;" style="rounded=0;whiteSpace=wrap;html=1;fontFamily=Helvetica;fontSize=11;fillColor=#d5e8d4;strokeColor=#82b366;" parent="1" vertex="1">
                    <mxGeometry x="560" y="580" width="160" height="20" as="geometry"/>
                </mxCell>
                <mxCell id="182" style="edgeStyle=orthogonalEdgeStyle;shape=connector;rounded=1;jumpStyle=none;orthogonalLoop=1;jettySize=auto;html=1;exitX=0;exitY=0.5;exitDx=0;exitDy=0;exitPerimeter=0;labelBackgroundColor=default;strokeColor=default;fontFamily=Helvetica;fontSize=11;fontColor=default;endArrow=classic;" parent="1" source="183" target="195" edge="1">
                    <mxGeometry relative="1" as="geometry"/>
                </mxCell>
                <mxCell id="183" value="WRITE event" style="shape=display;whiteSpace=wrap;html=1;fontFamily=Helvetica;fontSize=11;fillColor=#dae8fc;size=0.16666666666666666;flipH=1;strokeColor=#6c8ebf;" parent="1" vertex="1">
                    <mxGeometry x="60" y="720" width="120" height="40" as="geometry"/>
                </mxCell>
                <mxCell id="184" value="" style="shape=image;verticalLabelPosition=bottom;labelBackgroundColor=default;verticalAlign=top;aspect=fixed;imageAspect=0;image=data:image/png,iVBORw0KGgoAAAANSUhEUgAAAGAAAABgCAYAAADimHc4AAAABmJLR0QA/wD/AP+gvaeTAAAE2ElEQVRYCe2Z32scVRTHv2e3iVESuoHgL1qLjZZCUGi6hYpPjdFKbeMP0MQ3aUtEq49S8A/wV8EQzJMS8UHtL+xL0RixQQpWiUEQayrFtFELplobo8bEJpvjmcDSdWk2szM3e7PZ73IPM3Pn3HvO/XznzEwmAH8kQAIkQAIkQAIkQAIkQAKVRkBcLVgHB5qQ1D1QfcDmvMmswayc2yVAxgD9BAn0SnPr8FIsJrYAOjRUBRl/HSrPWIJJs5XYMraoHiD1gqTTM7bvrMUSQL87Uo2p+uN2pQRXvbOklu1Eio8hqTaXIiRiLXaqvrti4AegBA9C/+gKdl1Z5AqYv+cn5r6xRFbqbceWds2Wgehdsvn+M9c8W2Rn9ApI6NMWq9Lg25KRxBw6gx0XFl0AaKuLBMpyDkk4W3sMAbC2LOE5SVrXOZnGJokjQK2Nr9RW52rhcQRwlUNFz0MBPMtPASiAZwKew7MCKIBnAp7DswIogGcCnsOzAiiAZwKew7MCKIBnAp7DswIogGcCn30AqHpLghXwVT9wtBuY/seLCBQgwP7jMPDuS8DlseCopEYBsrjHfwXeexX4+Wy2pyRbCpCLeXrSbkddwOlTub1Luk8B8vFmMkDfO8CJQyV5OFMALPD7egA41gNcmV7AwU03BSjE8dy3wPuvAX9eLuQV6xwFWAzfbxfsDellYGwUS/GjAGGoTk5YJRwAzgyG8S7KhwKExZWZAT7sBU4dd/pwXhU2Pv2MQPDJ4nMT4PdfoI+vuV6OXpiy3lhNoo7WoU+jfUA50Bk15DIbJ18iMfeIHDx/MU5ivAVFpqdbkZEh7bhjU+QpbCAFMAiRm2ANdO6kdtzeFnUOChCV3NVxtVA5ph3r91/tCr9HAcKzKuSZhOIVbW98Szs3VxVyzD9HAfKJxDrWvZgYP6FPbmgIOw0FCEtqifwogFOw0oOLt7XIwbOXwk7LP8TCkirsNwuRfXJo5E1gpLBn3lkKkAckwuGEvYq2y+FR++dy8aMpQPHMckecB6RNjoyezu0sZp/PgGJo/d/3JK5Ub5HDI5HhB9OV/ltQEHU5WZRvU01bgS8Ga6Tvh3/jLoUVUAxBseu1pR3YsRsu4Aeh+QwIKISxqup58NjQHMY7tA8FCIOqrh547DngxrVhvIvyoQCL4bp5HfDoPqA2tZhnpPMUoBC2OzcBD+0Gqq4r5BXrHAVYCN+9u4B7dtprvj14F/Jx0E8B8iEm7WvyjqeAjVtQih8FyKV8Q53d758Fbm3M7V3SfQqQxdtwi73pPA+sbsj2lGRLAQLMjXcDO/cC1TXBUUltVUmjLcdgzS1AyxP2sE14yY4C3NfhBXw2qB/Zs9G5BQXwfBFQAArgmYDn8KwACuCZgOfwrAAK4JmA5/CsAArgmYDn8KwACuCZgOfwrIAyFmDSc+4+w//lKnicCvjJVRJlOI+ztSdiLL4vxtjyHqr4yNUCoguQQK8lMWtWaW0Wknnb1aIjCyDNrcMQecNVImUzj6JL0tu/d5VvZAHmE9DV+23bb1YZTdCHv5MvulxsLAEknZ4BUrsg2mNJZcxWagvW1g1NPSzbtjm97YorYjo40ISk7oHqdptzvVmNWTm3aUt+xKzf/nHbO3/LtQM2EiABEiABEiABEiABEiABEohL4D/YHuY1rKwR1QAAAABJRU5ErkJggg==;flipH=0;" parent="1" vertex="1">
                    <mxGeometry x="320" y="780" width="20" height="20" as="geometry"/>
                </mxCell>
                <mxCell id="185" value="" style="shape=image;verticalLabelPosition=bottom;labelBackgroundColor=default;verticalAlign=top;aspect=fixed;imageAspect=0;image=data:image/png,iVBORw0KGgoAAAANSUhEUgAAAGAAAABgCAYAAADimHc4AAAACXBIWXMAABJ0AAASdAHeZh94AAAC0UlEQVR42u3dS2saURjGcRdtP0sv3yoJIlESCCIhZBFRCAimphbqwoUgSAJBEMRaFRG8xGiiubUbP0J3baGLCG/PhLT0kjQm6JzjzP+BZz/n/RnHzIXj8RBCCCGEEELII3N2dvZqOBzuqF6qflaVOa+1hgvV+Onp6UtjBz8ajZ6qg0yqjh0w9Ls6VggJa61GDb/b7T5TB/fBwYP/u++NQlAH9M5Fw7+u+kt4a9J3/thtADdrfmHCp/+NC4f/s69NAPjkYoALEwC+uhjgiwkA4uYCAAAAAAAAAAAAAAAAAAAAAAAAAAAAAAAA2NPBYCDJZBIAHe12u7K1tSULCwsA2N16vS5ra2vXwwfA5haLRVleXv41fABsbC6Xk6WlpT+GD4BNJ9vd3d1/Bg+ADYs8OjqScDh85/ABmGGbzaaEQqH/Dh+AGbVcLksgELh3+ADMoHt7e+L1eicaPgBTPtmmUilZXFycePgATKn9fl+2t7cfNHgAprSQdrstGxsbjxq+iZ0rgEqlIisrK44Z/lwB5PN58fl8jhr+3ACk0+kHn2wBmALAycmJxONxRw7eeIBOpyObm5uOHj4AANz/FZRIJADQfRLOZrO3XtsHwMafoYVCgZ+huv8Rq9Vqsrq6CoDOSxGHh4eOOjnP5cW44+NjicViXIzTfT8gk8lwOVr3DZmDgwNuyOi+JVmtVie+SgrAjNpqtWR9fR0AnY+l9Ho9iUajAOh+MMu6VwyA5kcT9/f3bz05A2BjS6WS+P1+AHQ+nt5oNCQYDAKg8wUN65nRSCQCgO5XlKynpgHgJT0AAAAAAAAAAAAAAAAAAAAAAAAAAAAAAMDpAN/YwEEvgJu3MLk0ASDuYoCYdgBrez91IFcuHP7VYDB47jEhN3tH8unXlZt9JMtuGb765JfOz8+feEwKm3kakt+2s/2o+t0BQ7fWYG3Na/Z2toQQQgghhJC5yw8R5tFFAYEFRAAAAABJRU5ErkJggg==;" parent="1" vertex="1">
                    <mxGeometry x="320" y="760" width="20" height="20" as="geometry"/>
                </mxCell>
                <mxCell id="186" value="" style="rounded=0;whiteSpace=wrap;html=1;fontFamily=Helvetica;fontSize=11;fontColor=default;" parent="1" vertex="1">
                    <mxGeometry x="420" y="760" width="440" height="40" as="geometry"/>
                </mxCell>
                <mxCell id="187" value="" style="shape=image;verticalLabelPosition=bottom;labelBackgroundColor=#ffffff;verticalAlign=top;aspect=fixed;imageAspect=0;image=data:image/png,iVBORw0KGgoAAAANSUhEUgAAAGAAAABgCAYAAADimHc4AAAABmJLR0QA/wD/AP+gvaeTAAAGG0lEQVRYCe2ZW2gcVRjHz5ndpCUbsUiRQtGCoi+Fim2iUdvsbAJN4u6SvXTrDUVB90l9bIq+5MVifLP0xSBU8KGatJnE7m42hdTZJKUpXSIR+qIoVCnEJLRFCSTtzjl+J6vdXHZ3LjuzSZpv+L7JnOu38/vnXGaGEDyQABJAAkgACSABJIAEkAASQAJVInAonq3xhlKnqxRu04aRNuKXtUSS++rnZicJ5R9tRPzNFLPqAvhCw60aJ1lC+MHNBGKjfktVBWgOJ7oYZWm42d3gaEDADe64HT064lnyaF/Df/3rjgfbYgEcF6AllHp6ieYGgMsBcLQ1BBydgnzhZKdG+RTEPACOVoSAMyOgu1uSp184xQg/QQih4GglCNgugBxSdvHp2m854YESMTF7BQFbBfBF0/sZ0xTo/xlwNAMEbFsD5EjqGGO5SYiJ8AGCUat4BMRifa65XP1nnIv5nuJ8b5T8f/UqAvZyeOTxGqJ9D/t7meBRlEBG8ZdlbHkEeCPDjYTnLkDUJ8DRLBKwtAZ4w8n3CGdjEBPhA4RKzNQIEK+Q6+dnzxDO45UExbYFAoYFkGPJPXxuph+eqw4XmuNVpQQkIx3AFrOJ58QrZIrwjQAzUUdXAG8oEYctpkoI2QuOZjMBXQEIpTshpn49qIRmnoAuWNjHnoaPKE3Q9U1wNJsJ6Aog4o0PBKdojjXAC7ZRkUa3j4AhAUQ49WJwXrrjaaeE9og0uj0EDAsgwqmqL6cqr54knLwJb/kXRB56ZQRMCfB/qMyg/5zE2SuQ/h0crQIClgQQ8X5UgtP33K5GzumISKNbI0CtNVvZitPmcPIErA2nINe0oLDLsuE3QOQtaqaBrb9PyseUQA9Q7ISyu+BoJgjYIEA+mqr4ExohL8K3gRv5HDwbIWCbACLYhOL/JadpL4EI50UaXZ+ArQKIcFd+6PwH5vXj8NB2EtIwKOCMVpKA7QLkIz1YFwKQvg2OVoKAQwLko8G6kNbc7Hl4cMvmc/C8loCjAohgE/3BP+iuuiPw5PwNwWMdAdg9rstzLEN8W4DX22cgQA34ssF6UdXfsBx0E50cHwEr7zUzGOgljLdC3gw4GhCoqgAQj2SGAuMuN2uA60nwbW9VF0AQv9wfvFW3SGWYjnpFGh0JIAEkgASQABLYhgS84eSXh+LZB88l1UawIbugat+kTryP6+dmJ1siyX069RwpRgGWsfKDGidZX2i4dTlZxRMKUIC9m1GWbg4nugpZzl9t6/cwAi+sAVz8XePndiy4P7h0qW1hTb7tSRwBxZG+seTJXTkcTTxVvNi+XMm+rh66np5zMXrdF020OXlnKEB5uo8xRoflcOpz0t3tCCtHOi1/T1uulML37S7vdOOQHFJ22f3rUQDjRAOc1l7zRdP7jTfRr4kC6DNaWeNZxrSrciR1bGVmJdcogHl6j3DO+8S6EIv1ucw3X91C9zmgxD55dS/bN5W+53a9dbW//bZVBDgCrJLLt2uvva/9JEeTDfmk+TMKYJ7Z6haUPMkZGZdDyXeJhQMFsACtSJOdnJKz3kjqK7OvtlGAIjQtZ3Eer5/7a1SOJfcY7QMFMErKeL0jPEeysFVtMtIEBTBCyXydvbBVVb2hRFyvKQqgR8h6uUQkskOvuVuvApZbInATPu5ExgeCU3qtcQToETJZDi/uRmmONRiBL7pGAQQFm5wS2iPd8bSrF4PzRrvEKcgoqXL1KFmgnL+vKv7vylUrVoYCFKNiLu83RiWY7zt+NtcsXxsFyHOwdOaEDC0t0neuDXf8bakDaKT7NhTqPNRm8W0vg8X2kzHF/wUh8MGsAkI4AszDuwv/tW9nlEDCfNP1LVCA9UzK5PAbXOLhzIXgr2UqmSrCbahhXPw8dXuaxmyEL0LjCBAUyrsG8/2ndsz3xcKgAMWoFPJmKWevZQaDKnHoQAFKg73OmTuaGWr7s3SVyktwDSjO8Cx9tK55zGH4IjSOAEGh4PcJ5x9mBgO9hSxnr1CAAt8ZSqSYOtgxUchy/gqnoDzjSZebNahKdeGL0CgApb11i1S+3B+8JYCgIwEkgASQABJAAkgACSABJIAEnCbwL/J3jAfPFh69AAAAAElFTkSuQmCC;" parent="1" vertex="1">
                    <mxGeometry x="820" y="760" width="40" height="40" as="geometry"/>
                </mxCell>
                <mxCell id="188" value="" style="shape=image;verticalLabelPosition=bottom;labelBackgroundColor=#ffffff;verticalAlign=top;aspect=fixed;imageAspect=0;image=data:image/png,iVBORw0KGgoAAAANSUhEUgAAAGAAAABgCAYAAADimHc4AAAABmJLR0QA/wD/AP+gvaeTAAAFKElEQVRYCe2ZQWgcVRjH3xu2qzWzIaUtLYoms5ZexFMvRqSFoGIOSkXwoNWD4CFrU9pDaQUPBXtIT6U1TgWlglYPglhESEAI1IM9SE/ipZDd9FAhxWDZzKQau/P8XjI1083Ozps3b2YT+y/vy7x573vfN/P773Tmm2EM/0AABEAABEAABEAABEAABEAABEAABB5AAo67+CETghd96lbRCTdwvg8c1/vyqW9EuchjhABR2py96f/hTe05v9AfHc6zDwHa6NL/QSOtUnnG+dTb1TaVyy4E6Ix1H/uHXa1ONvd2njY3CgFiWQpHcP7Tk66/L9bFwAQE6AaRs10BE1cGXX+0m1uWOQiQSE/0WSy4XHW9NxJdNRwggBq0smDi0pDbPKHmru4FAdRZcc74hPPx4jl2ShjjZiyQ+nlsck/Ojjg7vS9MFWwQQOf3YLBgo7pD7QjoXYno5tmoVe6LZdq/W+6ezQl2dVmIl28e7l/QPQZcAbrk5DrOhsuW9UuWgg0CSJCZLFvBBgEywQ8XZyjYIEDIMPtGr2CDANnJRyOkLtggQBSfoT4XvKQaStlRNeAD7vcXlcuH6rXKt6ocIIAqqWS/psXZq7NjlZlk1zUPCLDGIkvvd97iL82O27+mDYJ7QFpi6/2vB63Wc3UN+DIUBJAUdE2+igjEszfGBxq6Ie57f6Mb5P+wLundVYdzvCL+vntw7ti22x3mlIdwBSijWnMUgl8cvGU/nxW+jIibsKSQwuijzJlGre/9Oc5FimWxrrgCYtGsmwjol3+0XrNPMkPwZQZcAZJCsq0UWI2arVxgJYdc9YAAqxy6/dUqsLoFjM5BgCiN9X3tAmt9qM4juAd05iJHMxVYMoCKQYBOlAwUWJ3CdhqDAG1UOBNTS0v+CzcP9y+0TeWyCwEiWOkx8+ITtyqvzB/f7UeG0S2CQNX1JhgpUEQu5AABEAABEACB3hCgG51zYfF0b5JvvKyFfpAZ+lw8zO94lwjDa41apdDclHNDtlJRR7Xn/EL/3Tved5RvhAwtJFCIAI9/5D/aKgXT9Anj6TAvNiGB3AWoTjb3CktMM8GcMCc2EQJWpG+8O/hJc1hY/GfGBODH0M1NgEHXH7UC60fKu50MLYZALgJULzTfsVjwPf3y+2LyYjgkYFyAIbd5gh71P6P4ud9fKMemb+YgnRKWs9M7S0SOkKEpEjAiQLTAUswLt5BAZgFQYIUkNTdcc93Ksscmm9vLFv+Bdp4h21St/VWI4y6KbieQ1T8utvYVsFpgWdP0pOPEBcd4MgGtpyAUWMlgVT1SC4ACSxWtml8qAVBgqUFN46UsAAqsNFjVfZUF4IxvUQ8LT1UCygLQY9hpzvlbFHiZDM0QAWUBZL76mP2Vxdko9ZtkaAYIpBJA5psdq8xYzBqhDyzzch+WjUBqAWS62VrftSBoDVP/OhlaBgJaAsh8N8YHGmwL30/9a2RomgS45rr/lg2d/XOAP1S6TAMHyJQb3dQz51ZOtoEdta+Ae+c0d2zb7Ud22C8Kxr6+N4atOoHMAshUv73Ol+fG7ENUK5yR+zB1AkYEWEnHuajX7JP0OfIo7QdkaAoEzAkQJpt7zz5HBdvbtLtMhpZAwLgAMh8KNklBzXIRQKZGwSYpJFtuAsjUKNgkhe6WqwAyNQo2SSHechdApm68a88v+f4BzsSU3IetEShEAJlu/vhuf+uOykEUbJJGL40KharrTfTyEJAbBEAABEAABEAABEAABEAABEAABECgVwT+Bbu7ZeBbIGIFAAAAAElFTkSuQmCC;flipV=1;" parent="1" vertex="1">
                    <mxGeometry x="620" y="760" width="40" height="40" as="geometry"/>
                </mxCell>
                <mxCell id="189" value="" style="shape=image;verticalLabelPosition=bottom;labelBackgroundColor=#ffffff;verticalAlign=top;aspect=fixed;imageAspect=0;image=data:image/png,iVBORw0KGgoAAAANSUhEUgAAAGAAAABgCAYAAADimHc4AAAABmJLR0QA/wD/AP+gvaeTAAAGG0lEQVRYCe2ZW2gcVRjHz5ndpCUbsUiRQtGCoi+Fim2iUdvsbAJN4u6SvXTrDUVB90l9bIq+5MVifLP0xSBU8KGatJnE7m42hdTZJKUpXSIR+qIoVCnEJLRFCSTtzjl+J6vdXHZ3LjuzSZpv+L7JnOu38/vnXGaGEDyQABJAAkgACSABJIAEkAASQAJVInAonq3xhlKnqxRu04aRNuKXtUSS++rnZicJ5R9tRPzNFLPqAvhCw60aJ1lC+MHNBGKjfktVBWgOJ7oYZWm42d3gaEDADe64HT064lnyaF/Df/3rjgfbYgEcF6AllHp6ieYGgMsBcLQ1BBydgnzhZKdG+RTEPACOVoSAMyOgu1uSp184xQg/QQih4GglCNgugBxSdvHp2m854YESMTF7BQFbBfBF0/sZ0xTo/xlwNAMEbFsD5EjqGGO5SYiJ8AGCUat4BMRifa65XP1nnIv5nuJ8b5T8f/UqAvZyeOTxGqJ9D/t7meBRlEBG8ZdlbHkEeCPDjYTnLkDUJ8DRLBKwtAZ4w8n3CGdjEBPhA4RKzNQIEK+Q6+dnzxDO45UExbYFAoYFkGPJPXxuph+eqw4XmuNVpQQkIx3AFrOJ58QrZIrwjQAzUUdXAG8oEYctpkoI2QuOZjMBXQEIpTshpn49qIRmnoAuWNjHnoaPKE3Q9U1wNJsJ6Aog4o0PBKdojjXAC7ZRkUa3j4AhAUQ49WJwXrrjaaeE9og0uj0EDAsgwqmqL6cqr54knLwJb/kXRB56ZQRMCfB/qMyg/5zE2SuQ/h0crQIClgQQ8X5UgtP33K5GzumISKNbI0CtNVvZitPmcPIErA2nINe0oLDLsuE3QOQtaqaBrb9PyseUQA9Q7ISyu+BoJgjYIEA+mqr4ExohL8K3gRv5HDwbIWCbACLYhOL/JadpL4EI50UaXZ+ArQKIcFd+6PwH5vXj8NB2EtIwKOCMVpKA7QLkIz1YFwKQvg2OVoKAQwLko8G6kNbc7Hl4cMvmc/C8loCjAohgE/3BP+iuuiPw5PwNwWMdAdg9rstzLEN8W4DX22cgQA34ssF6UdXfsBx0E50cHwEr7zUzGOgljLdC3gw4GhCoqgAQj2SGAuMuN2uA60nwbW9VF0AQv9wfvFW3SGWYjnpFGh0JIAEkgASQABLYhgS84eSXh+LZB88l1UawIbugat+kTryP6+dmJ1siyX069RwpRgGWsfKDGidZX2i4dTlZxRMKUIC9m1GWbg4nugpZzl9t6/cwAi+sAVz8XePndiy4P7h0qW1hTb7tSRwBxZG+seTJXTkcTTxVvNi+XMm+rh66np5zMXrdF020OXlnKEB5uo8xRoflcOpz0t3tCCtHOi1/T1uulML37S7vdOOQHFJ22f3rUQDjRAOc1l7zRdP7jTfRr4kC6DNaWeNZxrSrciR1bGVmJdcogHl6j3DO+8S6EIv1ucw3X91C9zmgxD55dS/bN5W+53a9dbW//bZVBDgCrJLLt2uvva/9JEeTDfmk+TMKYJ7Z6haUPMkZGZdDyXeJhQMFsACtSJOdnJKz3kjqK7OvtlGAIjQtZ3Eer5/7a1SOJfcY7QMFMErKeL0jPEeysFVtMtIEBTBCyXydvbBVVb2hRFyvKQqgR8h6uUQkskOvuVuvApZbInATPu5ExgeCU3qtcQToETJZDi/uRmmONRiBL7pGAQQFm5wS2iPd8bSrF4PzRrvEKcgoqXL1KFmgnL+vKv7vylUrVoYCFKNiLu83RiWY7zt+NtcsXxsFyHOwdOaEDC0t0neuDXf8bakDaKT7NhTqPNRm8W0vg8X2kzHF/wUh8MGsAkI4AszDuwv/tW9nlEDCfNP1LVCA9UzK5PAbXOLhzIXgr2UqmSrCbahhXPw8dXuaxmyEL0LjCBAUyrsG8/2ndsz3xcKgAMWoFPJmKWevZQaDKnHoQAFKg73OmTuaGWr7s3SVyktwDSjO8Cx9tK55zGH4IjSOAEGh4PcJ5x9mBgO9hSxnr1CAAt8ZSqSYOtgxUchy/gqnoDzjSZebNahKdeGL0CgApb11i1S+3B+8JYCgIwEkgASQABJAAkgACSABJIAEnCbwL/J3jAfPFh69AAAAAElFTkSuQmCC;" parent="1" vertex="1">
                    <mxGeometry x="420" y="760" width="40" height="40" as="geometry"/>
                </mxCell>
                <mxCell id="190" value="" style="endArrow=none;dashed=1;html=1;rounded=1;labelBackgroundColor=default;strokeColor=default;fontFamily=Helvetica;fontSize=11;fontColor=default;shape=connector;jumpStyle=none;" parent="1" edge="1">
                    <mxGeometry width="50" height="50" relative="1" as="geometry">
                        <mxPoint x="199.99999999999955" y="760" as="sourcePoint"/>
                        <mxPoint x="1079.9999999999995" y="760" as="targetPoint"/>
                    </mxGeometry>
                </mxCell>
                <mxCell id="191" value="" style="endArrow=none;dashed=1;html=1;rounded=1;labelBackgroundColor=default;strokeColor=default;fontFamily=Helvetica;fontSize=11;fontColor=default;shape=connector;jumpStyle=none;" parent="1" edge="1">
                    <mxGeometry width="50" height="50" relative="1" as="geometry">
                        <mxPoint x="199.99999999999955" y="800" as="sourcePoint"/>
                        <mxPoint x="1079.9999999999995" y="800" as="targetPoint"/>
                    </mxGeometry>
                </mxCell>
                <mxCell id="192" value="&lt;span style=&quot;font-size: 12px;&quot;&gt;SS LOW - Communication Slot started&lt;/span&gt;" style="rounded=0;whiteSpace=wrap;html=1;fontFamily=Helvetica;fontSize=11;fontColor=default;fillColor=none;strokeColor=none;align=left;" parent="1" vertex="1">
                    <mxGeometry x="1080" y="750" width="220" height="20" as="geometry"/>
                </mxCell>
                <mxCell id="193" value="&lt;span style=&quot;font-size: 12px;&quot;&gt;SS HIGH - Communication Slot ended&lt;/span&gt;" style="rounded=0;whiteSpace=wrap;html=1;fontFamily=Helvetica;fontSize=11;fontColor=default;fillColor=none;strokeColor=none;align=left;" parent="1" vertex="1">
                    <mxGeometry x="1080" y="790" width="220" height="20" as="geometry"/>
                </mxCell>
                <mxCell id="194" value="" style="shape=image;verticalLabelPosition=bottom;labelBackgroundColor=default;verticalAlign=top;aspect=fixed;imageAspect=0;image=data:image/png,iVBORw0KGgoAAAANSUhEUgAAAGAAAABgCAYAAADimHc4AAAACXBIWXMAABJ0AAASdAHeZh94AAACsElEQVR42u3dTYtSURzHcRczReuC3kJPm15Fu15GbyHEjY+IDppoEpiK4GZw4UoqUReFKAOiomP4RJuWbaIJWszA6X8iYVpYMDD9j97vD377e87He6/ee+T4fIQQQgghhBByxczn84fL5TK9WCxOpV+kZsdrxzCVpmRcD5yd+NVqdSgHmJMDvdiDSd9WO7aMHatTk79er2/IgTX3eOL/qJzlb51CkIN65ZXJv4Tw0plr/p5fdrZejuSSe9+FT3/Wg5O/OQteuADw0asA9tuRCwBnHgb45gKA8XIBAAAAAAAAAAAAAAAAAAAAAAAAAAAAAAAAdqu1Ws2+YAFAq5FIxBQKBTOdTgHQArDNZDJmMBgAoAVgm0gkTLfbBUALwDYWi5lmswmAFsCmx8fHf705A3DNALbFYtHMZjMAtABsc7mcGY1GAGgB2B4dHZl+vw+AFsDm5txqtQDQArCNRqOmXq//ujkDoACwaaVSMaFQ6NZOAlxlwI62L2fEXQAUGw6HPwvCYwB0eyYITwHQ7YUgPAdAv6/T6fQhALr9IL8Z7gAAgCcBcn6//4BL0P/vudyEn3ET1ulX+T3whK+hOv0kfcQPMZ2+DwaDt3kYp/AwrlqtmkAgcJOnoQqPoxuNBu8DNADi8bjpdDq8kNEASKVS5uTkhFeSGgD5fN6Mx2NeymsAlMtllqVoAWze/bIwS2FpYrvdZmmiBkAymTS9Xo/FuRoA2WzWDIdDlqdrAJRKpa03WwCuuf9aBQ0Af9IDAAAAAAAAAAAAAAAAAAAAAAAAAAAAAAC0Ab6zgYMugJe3MDl1ASDl4U18kuoAdns/OZhzDwLYMd/zuZDfe0fy6deK3dZPDuqdVyZfPnBvJpPJgc+lsJmnI7m0ne1M+mMPJt2OwW7N6/Z2toQQQgghhJCdy0+jfsNTfAIN1QAAAABJRU5ErkJggg==;flipH=1;" parent="1" vertex="1">
                    <mxGeometry x="940" y="760" width="20" height="20" as="geometry"/>
                </mxCell>
                <mxCell id="195" value="" style="shape=image;verticalLabelPosition=bottom;labelBackgroundColor=default;verticalAlign=top;aspect=fixed;imageAspect=0;image=data:image/png,iVBORw0KGgoAAAANSUhEUgAAAGAAAABgCAYAAADimHc4AAAABmJLR0QA/wD/AP+gvaeTAAAE2ElEQVRYCe2Z32scVRTHv2e3iVESuoHgL1qLjZZCUGi6hYpPjdFKbeMP0MQ3aUtEq49S8A/wV8EQzJMS8UHtL+xL0RixQQpWiUEQayrFtFELplobo8bEJpvjmcDSdWk2szM3e7PZ73IPM3Pn3HvO/XznzEwmAH8kQAIkQAIkQAIkQAIkQAKVRkBcLVgHB5qQ1D1QfcDmvMmswayc2yVAxgD9BAn0SnPr8FIsJrYAOjRUBRl/HSrPWIJJs5XYMraoHiD1gqTTM7bvrMUSQL87Uo2p+uN2pQRXvbOklu1Eio8hqTaXIiRiLXaqvrti4AegBA9C/+gKdl1Z5AqYv+cn5r6xRFbqbceWds2Wgehdsvn+M9c8W2Rn9ApI6NMWq9Lg25KRxBw6gx0XFl0AaKuLBMpyDkk4W3sMAbC2LOE5SVrXOZnGJokjQK2Nr9RW52rhcQRwlUNFz0MBPMtPASiAZwKew7MCKIBnAp7DswIogGcCnsOzAiiAZwKew7MCKIBnAp7DswIogGcCn30AqHpLghXwVT9wtBuY/seLCBQgwP7jMPDuS8DlseCopEYBsrjHfwXeexX4+Wy2pyRbCpCLeXrSbkddwOlTub1Luk8B8vFmMkDfO8CJQyV5OFMALPD7egA41gNcmV7AwU03BSjE8dy3wPuvAX9eLuQV6xwFWAzfbxfsDellYGwUS/GjAGGoTk5YJRwAzgyG8S7KhwKExZWZAT7sBU4dd/pwXhU2Pv2MQPDJ4nMT4PdfoI+vuV6OXpiy3lhNoo7WoU+jfUA50Bk15DIbJ18iMfeIHDx/MU5ivAVFpqdbkZEh7bhjU+QpbCAFMAiRm2ANdO6kdtzeFnUOChCV3NVxtVA5ph3r91/tCr9HAcKzKuSZhOIVbW98Szs3VxVyzD9HAfKJxDrWvZgYP6FPbmgIOw0FCEtqifwogFOw0oOLt7XIwbOXwk7LP8TCkirsNwuRfXJo5E1gpLBn3lkKkAckwuGEvYq2y+FR++dy8aMpQPHMckecB6RNjoyezu0sZp/PgGJo/d/3JK5Ub5HDI5HhB9OV/ltQEHU5WZRvU01bgS8Ga6Tvh3/jLoUVUAxBseu1pR3YsRsu4Aeh+QwIKISxqup58NjQHMY7tA8FCIOqrh547DngxrVhvIvyoQCL4bp5HfDoPqA2tZhnpPMUoBC2OzcBD+0Gqq4r5BXrHAVYCN+9u4B7dtprvj14F/Jx0E8B8iEm7WvyjqeAjVtQih8FyKV8Q53d758Fbm3M7V3SfQqQxdtwi73pPA+sbsj2lGRLAQLMjXcDO/cC1TXBUUltVUmjLcdgzS1AyxP2sE14yY4C3NfhBXw2qB/Zs9G5BQXwfBFQAArgmYDn8KwACuCZgOfwrAAK4JmA5/CsAArgmYDn8KwACuCZgOfwrIAyFmDSc+4+w//lKnicCvjJVRJlOI+ztSdiLL4vxtjyHqr4yNUCoguQQK8lMWtWaW0Wknnb1aIjCyDNrcMQecNVImUzj6JL0tu/d5VvZAHmE9DV+23bb1YZTdCHv5MvulxsLAEknZ4BUrsg2mNJZcxWagvW1g1NPSzbtjm97YorYjo40ISk7oHqdptzvVmNWTm3aUt+xKzf/nHbO3/LtQM2EiABEiABEiABEiABEiABEohL4D/YHuY1rKwR1QAAAABJRU5ErkJggg==;flipH=0;" parent="1" vertex="1">
                    <mxGeometry x="320" y="730" width="20" height="20" as="geometry"/>
                </mxCell>
                <mxCell id="196" value="&lt;span style=&quot;font-size: 12px ; text-align: right&quot;&gt;WRITE command&lt;/span&gt;" style="rounded=0;whiteSpace=wrap;html=1;fontFamily=Helvetica;fontSize=11;fontColor=default;fillColor=none;strokeColor=none;" parent="1" vertex="1">
                    <mxGeometry x="470" y="780" width="140" height="20" as="geometry"/>
                </mxCell>
                <mxCell id="197" style="edgeStyle=orthogonalEdgeStyle;shape=connector;rounded=1;jumpStyle=none;orthogonalLoop=1;jettySize=auto;html=1;exitX=1;exitY=0.5;exitDx=0;exitDy=0;labelBackgroundColor=default;strokeColor=default;fontFamily=Helvetica;fontSize=11;fontColor=default;endArrow=classic;" parent="1" source="198" target="199" edge="1">
                    <mxGeometry relative="1" as="geometry">
                        <mxPoint x="900.0000000000005" y="790.0689655172414" as="targetPoint"/>
                    </mxGeometry>
                </mxCell>
                <mxCell id="198" value="&lt;span style=&quot;font-size: 12px ; text-align: right&quot;&gt;WRITE command&lt;/span&gt;" style="rounded=0;whiteSpace=wrap;html=1;fontFamily=Helvetica;fontSize=11;fontColor=default;fillColor=none;strokeColor=none;" parent="1" vertex="1">
                    <mxGeometry x="670" y="780" width="140" height="20" as="geometry"/>
                </mxCell>
                <mxCell id="199" value="" style="shape=image;verticalLabelPosition=bottom;labelBackgroundColor=default;verticalAlign=top;aspect=fixed;imageAspect=0;image=data:image/png,iVBORw0KGgoAAAANSUhEUgAAAGAAAABgCAYAAADimHc4AAAABmJLR0QA/wD/AP+gvaeTAAAFKklEQVRYCe2Z329URRTHv7O/7rbbCi0oRoISJbxUAaGRJyWQhWKiJRIxISa+NMEQfzyJRkz8E2ygkJiYEo0v6oOJFvlRSTXBXxGIJQYqIWKs0VQlgOL+6u7d8cymTe5DX3rv7M7M3tPM6c5cOjPnfD6de8suwF9MgAkwASbABJgAE2ACTIAJxI2A0FVwZWKyT/oYgsQOCKygdZdTuNyuU/IzVM+4SNRHvfzGyzTW3iILkOfPpys3U29RZvspkhTt2HwIecRb6h8Q/f1VnQVGEiA/upSp9FTHKKEdFHFop7ye2qBOCYko1Aj+IZofF/hUKnZWbqWGVUdXhD4Bc/f8i5RIu952qLQFmy/gP+Rt3zS14L8u8mLoE0AP3Odpr7jBp5KRlEjtUx0dEVoAIPI6EnBzDamt9ggC5Co34WnJ+j4tq9AiEQSgi+bHtXXrKjyKAF05xHodFmBYPwtgAYYJGN6eTwALMEzA8PZ8AliAYQKGt+cTwAIMEzC8PZ8AFmCYgOHt+QSwgJAEpET5w69CTrZnmpMnQBYrKAx/gsr4D/aQDJlJKuQ8Y9PqMzdROHwc9T9vGctB58ZOCahd+R2loydQL5R1MjC6ljMCql9PofTeF5C+bxSY7s3tF0AP29IHZzF75qLu2q1Yz2oBsjyL4tunUPvxVytgNSMJawXUb/yH4uEx+L9db0bd1qxppYDaL3+hODIG+U/RGlDNSsQ6AbPfXUH53QnIaq1ZNVu1rj0C6GFb+fQcymPfA9S3ilITk7FCgJytoXTsDKrnrjaxVDuXFmHTKn8+KcPODc6T/xZRGPkM/rWZ4GVn+yumRxfF1OgJ8Kf/JvjHIekvHmeJR0zcmIDq5DWU3hmHLFcjluD2dCMCKicvoPzxt0Bdy13MaQOtFeDXUXr/S8yeveQ0NJ3Jt0yAvF1G4Sg9bK/+oTN/59dq4QcyfLtZ6LelZQJEdwe6DuxGZtu6hfKI7bWWCWgQTgp0PLsFHc9tA6jfuBbzbwkT9We29CH38iBER8bE9lbtaUSAIpB68F7kXn8aiWV3qGFsw5gARTy5chm63nwGybUr1TCWsaj3LYKEdL0XpNaUNb/xeW/1myk1XFQsGX1pUT+v64ez2zeEZhfMwegJmE9EpJLoHMoju/dRQGipa35p61+tEDBPyctvQOf+nRCZlv3/cH5rY69WCVAU0pvWIHdwD0Rvtxq2fVgnQBFPrlqO7jf2ILn6LjVs67BSgCIuluaQe3U30g8/oIZtG9YKUMSFl0bnC48jO7hZDdsyrBbQIE5/FXm7HkHHvgGIdPs9nO0X0LAAZDavRe6Vp6De1Ju71BYvzghQtJNr7kaXejjf06uGbRFOCVDEE3cuQY4kpNevRjt8OSdAQRfZDDpffAKZ/Ho1dDqcFNAgnqDPFvY+1ui6/M1dAS5TD+TOAgIwTHRZgAnqgT1ZQACGiS4LMEE9sCcLCMAw0WUBJqgH9mQBARgmuizABPXAniwgAMNElwWYoB7YkwUEYJjosgAT1AN7RhFQCKwTt+5tXQVHECCmdSXh3DoS2mpPhC5eypOh57o+UYgTukoILUAk6qOURI0ibq0m6uKYrqJDC/DyGy9TEiMUMWti2BtY95OuokMLUAl4PbXX6PU0RTwa3Xa91I2DOouNJED091dJwpOU0BEKn6Jdmw8hD3m9/i6xdavW267QRawyMdknfQzRegMU91NkKVxuZUj8TAWcVs+7uVsuDbkxASbABJgAE2ACTIAJMAEmwASiEfgf6ZsVh8Ca6qkAAAAASUVORK5CYII=;flipH=1;" parent="1" vertex="1">
                    <mxGeometry x="940" y="780" width="20" height="20" as="geometry"/>
                </mxCell>
                <mxCell id="200" style="edgeStyle=orthogonalEdgeStyle;shape=connector;rounded=1;jumpStyle=none;orthogonalLoop=1;jettySize=auto;html=1;exitX=1;exitY=0.5;exitDx=0;exitDy=0;entryX=0.5;entryY=0;entryDx=0;entryDy=0;labelBackgroundColor=default;strokeColor=default;fontFamily=Helvetica;fontSize=11;fontColor=default;endArrow=classic;" parent="1" source="201" target="202" edge="1">
                    <mxGeometry relative="1" as="geometry">
                        <mxPoint x="1080" y="840" as="targetPoint"/>
                    </mxGeometry>
                </mxCell>
                <mxCell id="201" value="" style="shape=image;verticalLabelPosition=bottom;labelBackgroundColor=default;verticalAlign=top;aspect=fixed;imageAspect=0;image=data:image/png,iVBORw0KGgoAAAANSUhEUgAAAGAAAABgCAYAAADimHc4AAAABmJLR0QA/wD/AP+gvaeTAAAFKklEQVRYCe2Z329URRTHv7O/7rbbCi0oRoISJbxUAaGRJyWQhWKiJRIxISa+NMEQfzyJRkz8E2ygkJiYEo0v6oOJFvlRSTXBXxGIJQYqIWKs0VQlgOL+6u7d8cymTe5DX3rv7M7M3tPM6c5cOjPnfD6de8suwF9MgAkwASbABJgAE2ACTIAJxI2A0FVwZWKyT/oYgsQOCKygdZdTuNyuU/IzVM+4SNRHvfzGyzTW3iILkOfPpys3U29RZvspkhTt2HwIecRb6h8Q/f1VnQVGEiA/upSp9FTHKKEdFHFop7ye2qBOCYko1Aj+IZofF/hUKnZWbqWGVUdXhD4Bc/f8i5RIu952qLQFmy/gP+Rt3zS14L8u8mLoE0AP3Odpr7jBp5KRlEjtUx0dEVoAIPI6EnBzDamt9ggC5Co34WnJ+j4tq9AiEQSgi+bHtXXrKjyKAF05xHodFmBYPwtgAYYJGN6eTwALMEzA8PZ8AliAYQKGt+cTwAIMEzC8PZ8AFmCYgOHt+QSwgJAEpET5w69CTrZnmpMnQBYrKAx/gsr4D/aQDJlJKuQ8Y9PqMzdROHwc9T9vGctB58ZOCahd+R2loydQL5R1MjC6ljMCql9PofTeF5C+bxSY7s3tF0AP29IHZzF75qLu2q1Yz2oBsjyL4tunUPvxVytgNSMJawXUb/yH4uEx+L9db0bd1qxppYDaL3+hODIG+U/RGlDNSsQ6AbPfXUH53QnIaq1ZNVu1rj0C6GFb+fQcymPfA9S3ilITk7FCgJytoXTsDKrnrjaxVDuXFmHTKn8+KcPODc6T/xZRGPkM/rWZ4GVn+yumRxfF1OgJ8Kf/JvjHIekvHmeJR0zcmIDq5DWU3hmHLFcjluD2dCMCKicvoPzxt0Bdy13MaQOtFeDXUXr/S8yeveQ0NJ3Jt0yAvF1G4Sg9bK/+oTN/59dq4QcyfLtZ6LelZQJEdwe6DuxGZtu6hfKI7bWWCWgQTgp0PLsFHc9tA6jfuBbzbwkT9We29CH38iBER8bE9lbtaUSAIpB68F7kXn8aiWV3qGFsw5gARTy5chm63nwGybUr1TCWsaj3LYKEdL0XpNaUNb/xeW/1myk1XFQsGX1pUT+v64ez2zeEZhfMwegJmE9EpJLoHMoju/dRQGipa35p61+tEDBPyctvQOf+nRCZlv3/cH5rY69WCVAU0pvWIHdwD0Rvtxq2fVgnQBFPrlqO7jf2ILn6LjVs67BSgCIuluaQe3U30g8/oIZtG9YKUMSFl0bnC48jO7hZDdsyrBbQIE5/FXm7HkHHvgGIdPs9nO0X0LAAZDavRe6Vp6De1Ju71BYvzghQtJNr7kaXejjf06uGbRFOCVDEE3cuQY4kpNevRjt8OSdAQRfZDDpffAKZ/Ho1dDqcFNAgnqDPFvY+1ui6/M1dAS5TD+TOAgIwTHRZgAnqgT1ZQACGiS4LMEE9sCcLCMAw0WUBJqgH9mQBARgmuizABPXAniwgAMNElwWYoB7YkwUEYJjosgAT1AN7RhFQCKwTt+5tXQVHECCmdSXh3DoS2mpPhC5eypOh57o+UYgTukoILUAk6qOURI0ibq0m6uKYrqJDC/DyGy9TEiMUMWti2BtY95OuokMLUAl4PbXX6PU0RTwa3Xa91I2DOouNJED091dJwpOU0BEKn6Jdmw8hD3m9/i6xdavW267QRawyMdknfQzRegMU91NkKVxuZUj8TAWcVs+7uVsuDbkxASbABJgAE2ACTIAJMAEmwASiEfgf6ZsVh8Ca6qkAAAAASUVORK5CYII=;flipH=1;" parent="1" vertex="1">
                    <mxGeometry x="940" y="800" width="20" height="20" as="geometry"/>
                </mxCell>
                <mxCell id="202" value="change write value" style="rounded=1;whiteSpace=wrap;html=1;fontFamily=Helvetica;fontSize=11;fontColor=default;" parent="1" vertex="1">
                    <mxGeometry x="1000" y="830" width="160" height="40" as="geometry"/>
                </mxCell>
                <mxCell id="203" value="&lt;span style=&quot;font-size: 12px;&quot;&gt;writeCommand&lt;/span&gt;" style="rounded=0;whiteSpace=wrap;html=1;fontFamily=Helvetica;fontSize=11;fontColor=default;fillColor=none;strokeColor=none;align=right;" parent="1" vertex="1">
                    <mxGeometry x="200" y="780" width="120" height="20" as="geometry"/>
                </mxCell>
                <mxCell id="204" value="&lt;span style=&quot;font-size: 12px;&quot;&gt;writeCommand&lt;/span&gt;" style="rounded=0;whiteSpace=wrap;html=1;fontFamily=Helvetica;fontSize=11;fontColor=default;fillColor=none;strokeColor=none;align=left;" parent="1" vertex="1">
                    <mxGeometry x="960" y="780" width="120" height="20" as="geometry"/>
                </mxCell>
                <mxCell id="205" style="edgeStyle=orthogonalEdgeStyle;shape=connector;rounded=1;jumpStyle=none;orthogonalLoop=1;jettySize=auto;html=1;exitX=1;exitY=0.5;exitDx=0;exitDy=0;labelBackgroundColor=default;strokeColor=default;fontFamily=Helvetica;fontSize=11;fontColor=default;endArrow=classic;" parent="1" source="184" target="196" edge="1">
                    <mxGeometry relative="1" as="geometry"/>
                </mxCell>
                <mxCell id="206" value="&lt;span style=&quot;font-size: 12px&quot;&gt;&lt;b&gt;write value changed&lt;br&gt;&lt;/b&gt;&lt;/span&gt;" style="rounded=0;whiteSpace=wrap;html=1;fontFamily=Helvetica;fontSize=11;fillColor=#dae8fc;strokeColor=#6c8ebf;" parent="1" vertex="1">
                    <mxGeometry x="1180" y="840" width="160" height="20" as="geometry"/>
                </mxCell>
                <mxCell id="207" value="&lt;span style=&quot;font-size: 12px&quot;&gt;&lt;b&gt;disconnected&lt;br&gt;&lt;/b&gt;&lt;/span&gt;" style="rounded=0;whiteSpace=wrap;html=1;fontFamily=Helvetica;fontSize=11;fillColor=#dae8fc;strokeColor=#6c8ebf;" parent="1" vertex="1">
                    <mxGeometry x="920" y="1000" width="160" height="20" as="geometry"/>
                </mxCell>
                <mxCell id="208" value="&lt;span style=&quot;font-size: 12px&quot;&gt;&lt;b&gt;error, resync&lt;br&gt;&lt;/b&gt;&lt;/span&gt;" style="rounded=0;whiteSpace=wrap;html=1;fontFamily=Helvetica;fontSize=11;fillColor=#dae8fc;strokeColor=#6c8ebf;" parent="1" vertex="1">
                    <mxGeometry x="920" y="1040" width="160" height="20" as="geometry"/>
                </mxCell>
                <mxCell id="218" value="" style="shape=image;verticalLabelPosition=bottom;labelBackgroundColor=#ffffff;verticalAlign=top;aspect=fixed;imageAspect=0;image=data:image/png,iVBORw0KGgoAAAANSUhEUgAAAGAAAABgCAYAAADimHc4AAAABmJLR0QA/wD/AP+gvaeTAAAMs0lEQVRYCe1ZDXBU1RU+571NgmR3k/CbVoRNjKCmrVZl2qmdyqiltR1QaVVwxqqtkr+ajq3odDq1cexQHeof5odMQWurTkVHi86oU6aWkTJO66hIqxZIsiEiAgkEsrshJPve7XdJNmx29923u9lsfng75+y795xz7z33O+/+PiLn5yDgIOAg4CDgIOAg4CDgIOAg4CBwpiHAE7nDZeuPeI3cvK+RoK+ALxAkSphpNtKz4Pc08CAxhSALIRMk4s9JmLuJeY9g2kN94Z3tdxcdg25C0sQKwGahn3sk8HVB2nKAfQ1ALQdqGng0ZKLwLtT1Nmv0digYevPQmmIZLIjHn8Y/AEKwb0NoKZl0I7NYBkhmg8eSAmjyRV0zn2qt8u4Yy4aSqXvcArCkTrg65oZuEkKsgaMXgceDPmES64p0z7PvVfDAeDiQdgB8jT33tVd7H07V6UubRc5RI7gac/U9RMJHE+PXQUzrxDT3xvbbuS+bLqU9vzLxQ6UNgTpK4VfaePz7AP9jFKmfQODDHZqPNeJJ7USwpaQh+CMpyBanPQJKGgNCOsmCHmir8dSR4jevqffsXGH8HgVWKswmjAp+vuwK6z9rqZ2+f6ydSnsERBzDVu83qpFQ0tCzLEcYH6FTkwJ82S+8lSsMl7FTjliZH0tGW+lVHxkBkdJxIwFbDd+G4P2Q3w+b0QT6IKarndiafoAF8wONtDZDN0Kuk65gv6s/hLpJz3HlGgPh/BzKKTLYPA/TyUJ07ELorgAXg9Ml7BH4YV9n/q+31XE43UpU5eCnSm2tiw2AtATYp6aj0uajBcLI/TOAk9tKqUqFBYzfx6K4hQRv8Ve7dyGfNpXVB8pN5qWCzVVY+BenVRHT3/WB/hUttTN70iqvKJTRAMh2NGzrTOKrkf4qOBXqhfHTBhmPdlQXtiGdcfI195yvGdptOORVovICcCr0YdjQvvfpXfkHUilkZ5vxANg1mEAfIEGP6wY92VLr6Uygz7hocIS6ajAi7kbls8BJktgHw+/4q7278cwIcbq1JJqCUqzLBPD1A3nmA/vvKDiaYtmMmM9ddzA/f3r+GmwkfokKc8HJ0AHB4cvbq4raKQO/cQkAJvlWnWl1a5XnrQz0YdRVlDaEFmONwJpFi5KqjOk/oi/8rUxc8o1md5KUr7FG2Fa8bpKxeKKAL/1rq8l/NzevTy7QL8i8LQv6Mue5/ipP9ba2NgbZDADWPnqwvdOzDItst41fWVfv/snsgL/asxIn/F+gcRNsR1ccDQd+Z2dkp8/iFCRexeJ1rZ1DE0Ff2hi8GW/L0/DFbl2AmbjWX+N9DbZpURZHAC9XnZjT8n6MCrVVu59nTbse1feDVYQBw38sW987T2Wk0mUxADiWMSmvLVSOZlvXVpn/OtC9He3aTUczjBzjMdilRVkNgPQQW77JEwSMBHzavFf6rWRBP8Qt6lKljYUy6wGQfkymIPir3I/gWuQl6beSWawv3yxylTYJlOMSAOnHZAoCawN3CKJW6beCF53oDN6h0CdUjVsApDeTJQhtFTOOMwm5HiAO0vPEjP7cl+ooGNcAyG7A6UmxJmALvR13R09JnxU8P9QV/LFCH6fiOIkjsETA1xAsZha7YeAFW9FerBuLsHgrR0uksBZJOE97BNpr3AfxzcNuy3kePkRdYV/boIUTgEEckv7vzzPXwzgAtiaTb7FWjtQ4ARiJh21OXp0zk3ItwDS1wve0mGZbGQycAACEVAmfu5UBQH2F2sneK/G0Jc3WwjGIQ0B+p8YoeD9OESUwhXF1VNYy6QTAEhq1wjSF8tuBRpzUQuwEQI2zpVZo+lZLJRRC0MXzNh6fgaSSnAAo4bFW7qucvhPaTrAVaTlh/VIrZUTuBCCCRKpPbHVwit2hLGaKhUo9lE4AAMIoaJeyrKDzlXoonQAAhLSJeY+yLJMzApQAjVbJLO+FVLUUq5RS55J/KvY1BtdirnMxmd0mcTcJ6sanuiEOd5/T6W3fVsdhVR1TVWcMDBzRdF3RPfYolKdUtgHAPfidsJwl8FkIgcCNLHKIgjjFGrXM65kJyVHwGUdh1npylb0WtgFIZg3wqtoo8HqDKv1U1hXO8QRs+peRAJx68W0aOiPVJw9iWlD33Ba7ZEaAMsrHDgdso6z2cfJqtTzbviuxkz23XQNgFALPAEdIINGF0Hbic2LXNJ1VqxBMpzgxbcFyOAu9nA2eCy4ADxGPPgC4el1NmuhzGdRp5HGX/7P8Tqpjc6iFM/qxp8LbBQCuAw9T+WaR23Ood5YrR8w2yZw+rHASDgIOAg4CDgIOAg4CUxCB8obD7inYrax0KZlzQLwj2JuWNgYux/3QDcS8vJdEN4wuATuUIgI4TyVXYkmdcHXMCS0RQizDAfx6lDoHHEV8kb/avStKMGWTC5pDX5Cd21eR/7l8joaTuYogwhu/b07wXdyAbgX4tWgwBnyYsHkbnSE/zRAPaoa5v6QxsBV8gzx8pdv1pEdASVOgAUfuakVDvXqYfC21HtWHakXxyaFa2Nwza8DgffB2OniQmPazoKdId21qqzirY1CY3L+WnBmRyeJZG9tpYZ2utLGZ9Oqwqa1BJ06DjwxezHm4ILtfGGF/SWPPG77HugulOBnWkjGSNvsqve/g+V9wLAk0/jIbfHF7jeeFWOVUyp/zZOiLWAN/qugT8OTi9ruLjilsRqhcI3I2GRa8VrB4fsjMwMz/vNBpbXuF939Dsin9cOnm4+jgyLcfgpHEj4zMq3OsVsdoNwu9pCv4EYD/t6HxQx2Vno9jLKZstrQ+eJXQxFZ0UIVZhx52L2yp5ZOwS4pUlSWsYH7jsaKO6kK570+on4rCkj8E51K/+BA7QHnfb91Fwbf6a9x/sjaI12jxIrXkTANfosFhuhrgz5FpBX+yoDM/Mj0rzEaqUg7AyOLqnK8hWKy2mBzatir3c6agq7DbOWThMZZGsXpbHUJlYWAlHrMA+JoCtcziUzwrrBqfTPJ9NZ5/6IZ+GYLwTqzfzPxMW433n7HyZPKZD0Cd0LAXXoeDyRNwwIVnva8hcBPSk55aaqfvF9PdVxLxpqjOfO7SzDVR+ZSSKS/CqtrlAYRzXZsxX347xk4w8T1t1e5HY+STNrugqed6TfBG7Aiv81d7t6fbkYwFoLT5xHycBF+FIxeB4wiHtVY6y/2l9tu5L045SQVyd+S/0221LiTVq4wEAIvtxZjv30CLxeBE1C108Y2JfGCTdzwmmQUtFYWtiTowVjItExW7jJNtzHTAoq4+jcWyCQs+bnpxo7kaF2x7DUN/s2z9Ea9FP8ZEnJEAtNTO7NEG6LvwcDc4mvDNhm5trfLuiBZOlHTZ+t55JU2hLfCnGVwILjNz8p7AM2uUkSko4i1OyaUa6X9DpecOydb6qz2/GkpbPsrqA+Vajji0p8LbZWmUQcXZ9T0z83Tt3qGLtbi7Hbw1t7VXu5/JYJOWVbGlJk2FXJhoQMj1YI+/yr0Knyyx/ioqk1NAU/A9WCwCbzI02jBWd0zSN+4XD2BLdgvaigMesiHikCnEYuz9PxkSjNkj4wGQnsp5NOyZ0Z/MjsfX2HMdtqivyHIRxnryPrG5sq2yYG9ElolnafPRAmHkyLVKAf5wS3v1cP9lcnodloxBIiNrQKxf0ulkwCcc2nCo+W1seQyKRX3s/SxWHp3HdFd0Kg9jOaWc23C8bP6GwIWnZBZ/bRUzjuPt32KhjhWfF9bzHosVZjrvynSFqdRXMju4Avbl4BHEJLYeqODeEcKozOCbrB/F7oWoKUikMZk4/enmqZ3Y2VGmcUk2aANptCpOES/4VNfEc/HizErGZAQk5SLefryNdZTgh5f6lQTiKNFZBVGZ6GRx+WaRGy2ITeO6eDtkLWBLwrz8lxxdXNJa5XnL0ihDinELQMmc4A/Q0bi3H/3qF/0Dr+JpScIw5JYxkV4LdB2fl0gxLMOJEbRpOD8ysQejaWlbtWdVtnZk4xYAbI0qR/Z9MIeg7LD7pipIFA1ax//nsO4jm59Lo40wOQmO0E4SYrn/sPsCf6V7a0SYjaeWjUYStZE/y30N5DdiEf4XnqdJ0EunM4lTWCOspiAyTDE/canTUvl2I9BvQLJDCFq54LB7sb/G+xrVsQlZVmncFuGPbuR+9PRFvHkvlTQFvomt6M0YFTcw6a9BriahFRLuuRMaMc9PKI8R9ve5b97/cz4hxe00fr9xC8BwlzEh+4nkwrh9SZ24a1sSX5UEURHe4OEqRibYR0n8IuAnYTqmJuMfgKjuJQO+NGc2sdPhANIesKQeBCSAwHQicxDskIOAg4CDgIOAg4CDgIOAg4CDgIOAg8CEReD/Geb8m+kDBzcAAAAASUVORK5CYII=;" parent="1" vertex="1">
                    <mxGeometry x="420" y="1040" width="20" height="20" as="geometry"/>
                </mxCell>
                <mxCell id="219" value="" style="shape=image;verticalLabelPosition=bottom;labelBackgroundColor=#ffffff;verticalAlign=top;aspect=fixed;imageAspect=0;image=data:image/png,iVBORw0KGgoAAAANSUhEUgAAAGAAAABgCAYAAADimHc4AAAABmJLR0QA/wD/AP+gvaeTAAAOiklEQVRYCe1ZCXSU1RW+9/9nEkhmJiQEFaFCQogWFK1U0IMolsqi4lalnnpcjigxkzYttXWpbaWnrdbWqsUEyHFrq7XnQFUKokJw1wooixsCQiYgQYHIkpmAmcz8r98Dp04m82/DbElnzr3zv3fvfe/dd7//rT9R7peLQC4CuQjkIpCLQC4CuQj8P0ZAtdrpsVOnegZVjFw4aNiIDS1bN+6yWi5nZxwBNlYf0Y6ZeFl/dmgrkDsNfIAFTV65/N+rkM7RUUbAFIDR06aVOoJKI9qRwcfjMKUFhMqGttJOoXyLBI0iIU5CyyfB4RJB1A/pYnBfsAY+APaD24m4iUg0CcFbkd+kOIJvN1WVSD2y2Ufoj75TR4LPePP51DhWSQdh8P2ir6OPf7IieIpgnoRAlsVp164ozEzvAcTXSVEai7mgcU0Vd9qtJFX2rFfx+KlXDghqHY14o+IFP1IsKSCU1fnPIUXciLYuRcVucCrpC2J6RtPon9v2uF6j2aylsjGzunUBOHPyJSsw1CeaVQD9F5rG332ncdF6pC3T8Q2iIC/UfhOzqEGh4eAMEDcLQQ8eOhh4ZNfPj8P0lX4XdAEYO+VizLv8ElwqBZuR5ZEwukE492rttSTET1Hp8eBsoM8x3d2vhtxzttRyRzod0gVAOpFsEMrnt18gNO0h1F0OzjpCMFqweP/C5y18gjA00+Eg2jRuJhkgDK0PHMck7sPc+wO0ZtombDJNy9SQeuOW2oIdqXbEUjCOBoSh8wKTWYgn0RErUxnMsob2ChIzmr2eRan0yBIA0gG7IAjOm7r7kscm4dD2a5RXwInSZyj4AeboD7GV3ICKPhaq2EMc3h3Z35/46B534FB+noPUIczacFaoEmVGw/5sPPuDEyemuQX9XbM+ms7BxCvRL2kZAFmFBEE4Pe9x0C+zhizUvND+cXc6OouHGdrFUWLzRWsF0xJByuJt1YXr4thYE2FCr6gPjMBBYCqxuAqFRoNtExx6mTpC32ueVbzfdmGTArYAkHUN/8NHovite8gSCM6+tP+s28kiCAG8sX9lVZvTdHPRJ7KtZPOw+gMVGnM1zhszUbcLbIc+VIR6wdaagk/tFDKztQ1A2Vy/cLRtJ3sg3AYQKvR82UeC72ZH8OHIlKJnmCz5oLq2/vkK1+LNllthy0AgWC0hCp+z3duvKVm+oE57VUkAZIkkgKDhja8TwdBdqRja0kczHvzIgRJnh3IXdmfyMKia2R/WM+0QFBrfXF3cTEn4JQyAbDtxELhZE+KGbTXuV2Q9meby+razseY8ialpiBVfELQNDlWcu7nK02rF3sgGmwojtbEu5DmB9o27g0Se+fUNdx6ifm/fS3m733sjTKHTsyX4sodNNZ43RUf4NIzIBTJvxoJoRGeYn5kwWzjMbM30RwWArNw+CH8aNXDJNSfKstnEchr01bi/j73/7fALMca/MY3fdoz/HmMTc+1RAyCbsAMC7ItIU5aNnTrtTKSzjnDwuhdrwlVw7EuwCfEt5fX+y02MDNVJAUC2YBMETzaD4Kt2L2DSrkC/OsFGxFg7Hh3S0D7QyMhIlzQAZCO9CYQmb9FSJr6eiDSwEfVTwtpfjAyMdIqRMhFd7wLB9RTOKLdZiMOVZfVt0yzYdTNJOgCyhd4EAq6m/2xpd8RcVzFH5Mv+2+GUACAd6DUg4LtAAR2aARA2yn4Z8AmaGphhoI+rShkAsrXeAsJHNccESNGuQ58M1wMsyL8cfL/oCzvLlFIApBe9BQRfddFqnJQfl30y4IGOvoFrDfTdVCkHQLaYCAhjplx2liybTRzUNLkgtxn5pAiqNdLH6tICgGzULggstMYzJl18jiybLdzyQ88X+MD0gJE/AtcUw+a1jTOyidbhXik6m/q0/KiDrd1LaKkUbEbtuLS74J3li183M0yXvrxhb5EIO31orxgclwTx481e1w1xlTFCJSaf8uyqFxe/j69TE9GQlZvEQoX5+WwaCfKbBTP9Hf7rEpO4wupirOjWkkJFTwdBCDEP4RFgPXI78tvP1VNGyzMCgHQgERDOmnqZpU7J+lPJPq9nE84FK43aYNbON9JHdBkDQDpgFwRN05ZmCwiYRp+VfdBnltOsvvorTUYBkD70VBA0VldI/w14lPz2bKA/rMo4ANKLngjCtpsL1sP3z8F6xE6VT9FTRuRZAYB0pseBgDsifLhZJX3XYwT3m3q6iBw2kWTmnz0OBEEfGEVNCBpppJe6rAJAOtSTQMDnsA3SZ10WVKmr+0qRdQBIv3oMCCp/Iv3VZSbT035WAiA7lAgIZ065dAKl8RfSOvcaN8e61xWRclkLgHTQLgg4oT6XThDCmnJA+gkW4H1gCUgTMluRXoMrCR+ehpT2yzhDb3SUdi/wmPmilS8uepV6wK9HACDj2FtBMAWgrO7QEEUNucNhrVBRVDeGeT/BXKgIUaixcAdV90M7q/igDFKquTeCYA7AXL+cz8r1ghum8LDt3n5Nevpky3sbCIpZgHD3vd/IxknOYiN9snXZvjDb7a8pADjNyZVdt94wa8N1lSlS9CYQTAHAvfdGozjiG6npcduofKK63gKCOQAKbYoTpN1E4kV8+7wHi/ELcfRpEfUGEEwX4SHz285SNL5dMK1lIdapIcfaLbUFO9ISYYuN9OSF2RQAizHIuFm6QThhvn+EqtEsXEk3OhXx8uYqT2siQeg1AMjOpxOE8nr/bMwKd8l2v2K5FZdfyVaIjlBj86xiw93jV2XIfA2IWPaAZzrXBAT/spiQlCM/E7yA8x2fASAv0qakmFr0MINEQBg7+eLz7HSzfH77t2E/CqxHfQQLw481kYK9DgDZMbsgEPFzdkAQmnY9Gf9afaXu/xibHNEmBYCyeQfGlNX7nxxU19b/SLWZ/7cJQoFVEIY0tA9E72aA9UnQUzSdw/oGX2sSBmDCbOEoqw9cWzbXv5aEsgq7gavzFOW2r6vOfCoVIHBI1KJnfcC6pAnlb7rKGAXH5E2zIxeIvEOt/qs14ltQOPYUHCAnV/hucu0yrSiNBjZ3R7jZFRetWrb4lVgXh9Uf/IbG4U2Q9wXHJyHe9dV4zoiv7C61NQLK5gdOPdga8OEE/Fic4MvaXdSp/VEmsomTNRLCHBpt1i/E5j4zm2i9LQDUYKG8FwpFV9A9zdeUzQ2M6i7PrCQZIDR7PYtCYaUC1zBPxOsNXsoNzXtcC+Pp9GS2ANhSyx3M4jd6lTFRC/QX+7yu9/VsMilPBgif/qhwp8/ruRYgXIKFu5mifkLwvTSbtSiRadIWALK2YsUt0d8s09EsiJ4RTh7dVO15LlqebelkgCD7BBAWl6iFlQj6T5APkJz7vYUyNshaJ7y01o0jlmVz28YD/deQZ+x+djArVU03Fz6PfI+hZC3MssPldW2V5FA9iMG7Mm+H2Y5xtO3Quf5/oHCA1c5bm6pKDkTreko6mSAk2mfEMLGiFXNEvlwTEiudPaUyDULCANgJ4eFdkRCVvhr3v+yUS5dtJkGwvQjbDcrh+VGI5VgrFgytb7vVbvl02CeyMI+ZNO07yfAtpSMAi/WJWKxfh6PHgCO0XFOV67dVFX4WEWTDc/AjB0oKdm15vt/KB8Zy0G/FpYNCaNNWL1/yshVjPRtFT3G08qH1geMQ/CWoJzr4yNIkVdOew7YtpeDLhiwx9pG4z5rpDCqfdBZXjt037g4SeW4rRQuw+1tytCNBtdKSXRsZfBzIXke54eBuBN3MfWf06XaW6GaYYkFFnX9k0ZqgXJdq0NTh+x0tv4iCx46iPjtXE4eDEBuSk5mvHDSscmXL1s0+Q0sdpaIjT1gshzICvAwVxA0+7koez4rDGt78MJMMPs408DaKQp4TKF0jIekA9DnoLEBf4taLOadFo9At0Gee8JYIEvfqOZIuEBATPRcSl5c37C0SIedC7HzOj6pFaKRcuM1b+EKUrFtySF376YoSno9vDAsUCi/aWlO0pZtRsgQLhFreGnhfEI3Qq9LRtp2K3/hdJ4cOOvVsouS2F+aUACAdkh9sth/b/nshxM+QVwDGw75q90ykDal8nv9BIejHESM42KIJfqK5xnVHRBb7rJjzhadTzRvkIFGsMYIp+BRmOgVtLmyqds+LtY/Ol9f7LxdMT0fLotIa0neXLr/haeVQsBHpUrAZ2QIh7lRh1oIV/auzOdRU7bpNkDYO9ss6FJe8tEJSn+TpGsG/JtoCb+cgBPLYaFlsOqzmX6owbdCY38LO62HY16LceahrSqxtbL7J63oWZVbHypHfSQpP8Xndv3pn0cL1xGIiZK1gM7K1O0oZABEvm71FK9GJKTur+GBEpvcMOfxToSsBdyFM12u7CGIyTCIQI4pkzzbd7qJyjLI7IwXkE+A9Fabwyb6bXY0yL9nuYc3qFjXlAEjnrTN3efsj5RRNGAJAzG0R25hnSXld+8kxsm5ZjIIVEC4jQW8Ta2Obve6rt3v77YOsC6UChKwBoLKhrRRv4kVdenwkEzrkcK8/koz/r1FYbwSQpopx8UvFSJ18nW+Aa7yvuijedPQ/42SDkDUAhEI8Hb3MA3chTAebzKYvTVH0RgCmdzqnS4U6Gd9Nrl00ncM66i5iCYLQhJwuu42SLoZHMgXEym+RxPuF/xjKGgCEQv3hW7dAYn5fB7khOdihOwIUYQ0AwwbiKFc3Ln4XC/MEImoF6xPTu8EOvhAGeJfwH0NZAwC2qL8tKHUNEMxTMBfPgZ8y8GEWivH8D8OgGtQFAL0eOKShfSDMkk5yJACEiag4PggIfseXfP76Vxfth01cijss4lpmQCj396GwojTPKtbtgHRrdINw7g0HNiLtB7eBP8be/iNMKOvz+n65btOMAVIOcWoo7vcEC8GX3mQ1ANLBnsIxIKxxOkLnv7l06T4z/1Uzg5zeWgRatmzaNXj4icuw6pcj+JdYCb61mnNWuQjkIpCLQC4CuQjkIpCLQG+MwH8BaH0IvqfTRtMAAAAASUVORK5CYII=;" parent="1" vertex="1">
                    <mxGeometry x="420" y="1020" width="20" height="20" as="geometry"/>
                </mxCell>
                <mxCell id="220" value="" style="shape=image;verticalLabelPosition=bottom;labelBackgroundColor=#ffffff;verticalAlign=top;aspect=fixed;imageAspect=0;image=data:image/png,iVBORw0KGgoAAAANSUhEUgAAAGAAAABgCAYAAADimHc4AAAABmJLR0QA/wD/AP+gvaeTAAAMiUlEQVRYCe1ZfXBU1RU/571dEkg2JHyJNcgmfASbsbWDo9PREaoiUzutLa10tFWrUkMgRC1Fp3840k4dahlRgSTQgtjBykinfnQc21GxSse/OlbUghIiSRBBCgTI7oZ87L7T3924DGL23rebZD/C2znn3vfu+Z1zzz3n3fvuu0vk/bwIeBHwIuBFwIuAFwEvAl4EvAh4ETjfIsC5POBgQ3gys3MFfKwi4pn9NV2EWlGZKuLMFCEBE4WBO0zi7CXmZmFqpu7orrb7y07GcTlY5FQCytfIaH9haB4JX4fgXQfnqocgZg5svI8E7WSLdkbCkX8cWTE5gracIIwxu37M3ij+jlj4+3hybyeS6+FNIXg4qQfG/0YiW1snBl6hhRzDfdYoawnof9rDdyHwyxH4iixF4EMmWV1mB555p4b7suEDp9tpsLHzwbYlJY+mql+1+Wigt7uwnpjqoTsJnAt0AP6slsLiTW13cncmHbLS7YyJf1fZEFpJbn8iXNEYuqe3p7ANg/0t1HIl+HCFLsY7Yp11OtxS0RDGUqiaMsNpzwAEU5SLLPTr/UsDK0nzm7ruZIVtWw1C/G0NLGdEGNjzvqh9b0v9mIPD7VTaMyDhGHYrD+tmQkVj5yLLtnfnS/DVuPBULoj5YnuCDaEfq/vhZPSVnvnEDEhonzsTpq+VgpgvvBryZeDB0GEsWW/D/h4i3ost6r4o9x23xNflcFTtaMj2+0bF+qJFfvKXichMh2UG8NXodA50L0CdLsEcPxo8WvTQmys5mq4Rnd6QJUB1gkHHl6PyTafG+XuslzH4b6r2FNkB/l/gZy1x3vh46dgWXKdHeO9M2xCuRnWDiHMLPs4uT8sQ0w67r3dBS/34zrT0NUpDmoD+fniNkMyHYfUE9je5KzuwnK21LN+W/TWjD7hTSQ01tSF0icV8J7a9NdAsAadC70Vj1o2fLCs6lIqSCcsmQDL5uUtQMpyL9uPYiz/mL+hZv/fuiSEX+EFDgo+fKOUCXx0M3QceD3ZJ0g7g/NYlJXtRDwlxulaGIAG9WLJWRboiq7N1NFC5sWOsRP2/wVKpkmG5jMUh4ehVbbVlbTQEv6wkANu83cLWbe21Re8OwRgGbaJiQ3geObIZhqaAzcT0gXRHrxmKQz63WTc75RohW09HIlfmSvCV262Li1/rdeQbmAkvqXsjC12KJexFdY5lxBoAmUyA2t3UYf28PVtLji4Wn9aVHEcifoB954PAYZKi1NOcjmholR5ilmYsAVjvn2tdEmgwu5RFBLO0LS35PXZxC+CF+UyIeXllU+iHwKZNGUsAtpi36L6Y0x7BMCjikPFF5OJmmDaekIrQH6av7SoHNi3KWAKUd0iC9thCYXKF99eWvIyZsBD+xMA6Ghfzx9brADpZRhOgHMmnJKiZgI+2Xym/tSx0E05Rb9BikggzngDlRz4lAZuG1fD5r2A9sayt3i6j9KAvS7OSAOVGPiVhjJz+Gf4v+Ej5reGqyPHwYo18QFHWEqC8yZck7F46KYwE1MBn7fYUO73lqc6CrCYAA8LpMuXFi7m1LrBTiJ8m/e/iyDH1P7cedLY07aOIs42cL9dTN0YutGLOXow3AE5G+1pri6tw9K2dLQnlrM+AhCP5ULfXFB3GUvSEwdcZwQ3hOQbMGbGXgDOhcHfRV+CoBIS0aIdv08rPEnoJOCsYbi4PLhrbgVmwRYfFV/SC4BYp1GESMi8BiUikUtv8lAFeavV0XWvAxMVWvPSKlCKAU9P3mOk/OiVHYtfr5AmZl4BEJFKsHUee06lYxHN08oTMS0AiEinWYtmv6VRwSnpZ+aZT43QYJfMSoKKQBrcvHrMLakfBycjyR+3ZyYSJdi8BiUikWmOrg6/Yt7VqjszUyiH0EoAgDILe1+oKzdLKIfQSgCCkTczNWl0mbwZoAzRYIbM6F9JZmawTKpk3A1QU0mRHeo/pVVl3aBdX9cVLTVHRGA4TSVEySFckUnxkxeRIMvlIbh9l2eG+mG6EYkyAixmgP9M4MvWCbp0LI1nmLwt0GsY3FAkgR9fJ7BPkIok6C/kr6/mMsBMdnP9ughfSdXHE7jRmWaefzzKrIGQauzZ2auwuEiBaI/7uUSYnVD8jkrtjTol+YKyNndJ1kQC9EfY5E5Wh85Ft5gn6cesfXqVrTgDTEQVMyi4+t5Pq5r3ArjIM4TOD3MUL1KEPdUZEZJZOPqJlhrHjPwNt7FRsjDNALNqngEmZ6atJZSNcgC2Qduw4ktbHDvExJoCZTVmcSyuRJhg7r2i72EI0lzQ/i/Wrh1K1VKFjPzvvQo6+UA5M4yvHR6oHFo3c1qnHu76G0ZWCk5HT43d2JRMm2o0JaK4pUecdHyQUBqxtmjdg+whuZCemHTPW/10HF43tMIXAmIB+A/J6fz1wKSS3DSwZua0W8x360bE2ZgldlwmgtxIKSerLpq8PnTfLUMWG8NeFDJsPZlPM4qF0lYAeO6CyqT14itpyd9zi+VDE5C7DME86BWPeMGDiYiteGopDNdyFY6fndDAWrpnWFJqkw4wE2ZR1ka8gFvfoxoLZsa3tTnZ1SuwqAfHORLbG6+TFGEfo3uTikSHx2XIfRlIITkpiGWN1RpfPXJkuRLiiKdwCWCU4GZ3E3rfq49rA/5IB8rl96sbIhVbMUX9D6g4g97XWFlcRMyaCebSWGfI5Im5QVn1+l6wqdRxak0yY7+0I/uMYgy74JMSPuA0+bJH7BABtRwNbMWU+xWVyYrp1WlPnVckB+SmpWB+6Bp4vBOvoQNGEom06wLmylBLQUs89mFerzjVyzj07wttmbuw0HNWeo5XDt9PXhiaSTX+Gi3j+UCanR3Yv5N7k4i9LUkqAUpfRxZuRhI/VtYan9MV4M+G9ocHkhwjnXDEfb8HaUm5weO+YCcVPU4q/lBOgtlcWOfe66Od7wabwQy5wOQ2pnBR+mEi+Y3RSuD7Vp1/ZNE0phRmQK5pCf8FT8aMBhWc3Mi1rrQ2sP7spX66DTaF67GWeNPkrTNvaagO3mnADyVOeAWeMxHy/xPVJsJ6E1lQ2njI/QXorGZdWNHR+F8F/zEXHHb4++wEXuAEhaSegtW50O1vWT2BVwDryC1kvYUA/14FySYYnvwZbyRfgkw+soxi+e25uqR9zUAfSydJOgDK6f3HRK1iG1qlrA9sY0IbKxvAvDLjsirFpCDZ0PoAnvwmO2GA9iTyBj8439CC9NO13QMJs9XYZ1XUsvAP3V4ONhOnyvEOxRQeWlJ4wgjMIuGh95/hRttq50U0uu31rnF08750a7nOJHxA26AQoq+WbTo3z9Vo7Yaxa3bvgA0x89/4lxa+7wA47BLu1+SzyR3Q0BWwmpg+kO3pN2/1l5negwRpiZkC4FKuPlZiP3gZ8Btgl8ctOLFrfvqy01aXCkMIqGjursDQ2YBm9LgXDzXaUrm6pDxxNQScpdMgSoHoIbuycxTF+FdfuniQAQWGcn6zrc5zHPq0rOY77YSf1lR51rBUitBR7/CL3HUo7sPNbl5SoAzlcDp548Ca+aKG8qesiP8X+jqfq0i9KjHchIt4gtvNUW03JR0Z0GoCpDaFLLFZ/pvBiqBeDU6H3ojHrxk+WFR1KRcmEHfIEqA6Dj58o5QLfC7ieS2n95N8s1jZL5NWWusDutEwoJexqpm0IV6O6QcS5BcvN5ao5ZWbaYff1LmipH9+Zsq5BYVgSoPqcu1J87ZNCOLjj5bgfTD+fQf8tIdqDf6KabbH2OY51jP2nT+6vGXcKMoon3F841rKcCSIy02GZwULVkM2BzgWo0yWY40eDR4seenMlR9M1otMbTGB0ds/IMO2/ZTE9i4bJ4HyiwzhiuBVHDG/SMP4G9SHmxq/2pYF/su27Epl+0Q0+FzCYbc/bUfuK4Q6+GivioqrMcLAxNAc9NaBTtTzgMufov+TQ0ta6wM5MeYZYZKqr/n7K18hoX0HkHvzDqd4NqWxX+w0MT3kA74rVUli8SR23D08XA1vNeAISbqgjjNPHQz8Vh1dg8LMS7RmuP2SS1WV24JnBHimk63fWEnC2w9PXh6odppuF+Q58GAVpWH/chmOHP0Vt2n5gcWDPsHblwnhOJCDhp5oVXR2RORKja5npWiRjNmQ2eDAUwwfeO0K0w3JoR5m/aGe2nvaBBpFTCTjXQbW/p0LfZdjTz8T/yzOJrVl4d1yID6syJKcUeNQoiU4gyCchOwHZIRJnLz66mrGNbLasvncT3wtxpFd4EfAi4EXAi4AXAS8CXgS8CHgR8CLgRSDLEfg/trfG2AZJ/PgAAAAASUVORK5CYII=;" parent="1" vertex="1">
                    <mxGeometry x="420" y="1060" width="20" height="20" as="geometry"/>
                </mxCell>
                <mxCell id="221" value="not initialized" style="text;html=1;align=left;verticalAlign=middle;resizable=0;points=[];autosize=1;strokeColor=none;fillColor=none;" parent="1" vertex="1">
                    <mxGeometry x="440" y="1020" width="80" height="20" as="geometry"/>
                </mxCell>
                <mxCell id="222" value="initialized, events in buffer" style="text;html=1;align=left;verticalAlign=middle;resizable=0;points=[];autosize=1;strokeColor=none;fillColor=none;" parent="1" vertex="1">
                    <mxGeometry x="440" y="1060" width="150" height="20" as="geometry"/>
                </mxCell>
                <mxCell id="223" value="initialized, events empty" style="text;html=1;align=left;verticalAlign=middle;resizable=0;points=[];autosize=1;strokeColor=none;fillColor=none;" parent="1" vertex="1">
                    <mxGeometry x="440" y="1040" width="140" height="20" as="geometry"/>
                </mxCell>
                <mxCell id="224" value="" style="shape=image;verticalLabelPosition=bottom;labelBackgroundColor=#ffffff;verticalAlign=top;aspect=fixed;imageAspect=0;image=data:image/png,iVBORw0KGgoAAAANSUhEUgAAAGAAAABgCAYAAADimHc4AAAABmJLR0QA/wD/AP+gvaeTAAAN4ElEQVRYCe0Za3AV1fk7Z+8j9xEg4RHebxIGxEHT8FYCCaaK1GmFcdpKbK1Kgar1gWPHccYfHatip9OirdV2bMU6bXFaxxeDQAiPCCSiYEsRkgIF5WkSNPfmJrl39/Q7lybeJtlz9nlzgbvzfbtnv/f5vt2z55wFyB7ZDGQzkM1ANgPZDGQzkM1ANgPZDGQzcKVlgGRyhy/Mm5en+OPTKbBCBlCIsRYBgaHAIIztELZDeAW8j+I1ivcRbJ8BIJ8QAkc0IEfUNs+BAbt2NSM/IyGjCnB+7tzcnJxEBWXsekZgPmbsKkSKaAc0VP4HFmU72twRSwQ2DamujiAtI6DPC8BKSz0R2vpNfGIrMSOLEP2IbkI7+noTNLY+qIU2kurqhJvOZLb7rABs2VRfa2OoEp/KNRgkH17wknY4jAlYG8yPricbDnak3Ts6RP94TiOw2bMD0YC2Agh7CN2ORMwEOMmAPRtu9bxEdu+OpTOgtBYgUj6jEj+ST2EHhyFmILBTQMhPwltqX0lXcGkpQGzhnDEqSazDTi1BzHhgAG8oCrsv+F7dSbeDdb0AkbKZ9+M88WfYkQDipQQtGPeq8Na6V90M2rUCnCstDQc9rb/GIWe5mx1w3TaB9a2J4Cq3pq6uFKDlhjlDiJZ4F5Nf7HqC0uKA1GpqYnG/6n2fO+3O8QJ8WTajkAJswkDHwuV1HFMpqei/eW+9k91ytAAtZTOnENA246pzuJNBZpCtTxmhN+Ru2XPIqZgcK8AXi2ZOUlRWg/sxg50KLkPtnFZUOidQvec4OHA4UgCc6RQQYDU4fZvgQEwZbwK3MhoYI/PCW/eetRus7QKwGyf6Ix35VWhojt1gjOiHnvmdUCz6yF1CvoPMnaH8aLndLQz8XtoLCZP/y3Ql316kjmtf19oU/oVdq7YKECkruR2Tv8JuEJeqPu4frcIcfNdO/JYLECudNRZnO8/BlX4Qsi5WXjzaahosF0BV1BfRaX/EKxsY5KlM4bmwlAdLBWgpK7kNn37+88SS08tQqaKlfOatVvplugB8j4cAWWvF2eWsQxj7OVtSHDTbR9MFCNHW+9HJKETLoIybBCR/kGV9pxV5LMrYiXbNjolGlXvNGjFVAP704y/EB8w6SZVXJkyGnLsehMA9DwEJ90tl9UmbxxC452HIuftBUMYX2YuBwAP8j58ZI6YKEFRiP0DjAxEtAR04BPyVqwC8XnwDBoN/+UoAj9eSLUeU0DePh78B4PVhbKsxLsvd4yEVRILanbxhFKlRQfYEoCzjw49Rlf+X4x38HnYwEOyi86EopxKLQNF0FzVNDfTJfacOPSQYhJw7cBTBB8RqFJSwH+OWDC6PjFkw3PPorpKFaHIcoiXwVdwCtGBED11l8tXgu+nWHnS3Cb6blgL33d0PHTYSfOXf6E42fM8YTIyUz5pvVIEaFQRGlhuW7SZI8QPnvW5RN+pXt97rK8A7v+Irgsstb+nXwXv9DbpevKUVQEeP1+XLGIRphnNFZcY4n3988WrtMcWtQ/8SvmwQu0oWwOdHNy4D+uAFF3ohFJIxC4WEzKVGp6TirPzPR8gTK8NmCNE0KEVXAR0lGbnicWh7eR1AR7tp+6YV0EfbH34FkIgLVemYCaAUThXKCJj9WiOeUjBwGCoAaIwXwIC5niLehYt7ErtROt76C2gnj3WjunernTgGHe9skDrwlt0sldETYISV6/FS6YYKwAAWpCoZbdOhIyB1ltGbntpwCOJ7qiHdR/z9baAePSx0y2dpdOhwoYwuk8BCXV4Kg6a0e21+WVo8CH8zTu2VKSF6SuaJJXDK0PHGa2IZt7hJ338CwKvIhad4rogt4k37omJ2vkiA86QFoAr9GgoSRNPgmcZV9dUSB2pBO3daX8BljnbmFCQ+rhN68Vwt7oNAmSoJrVjAT7KkBQCgRUlJkyc6eBiQAXlCrfiurUJ+OpiJXduEbkjeQKCDhghl9JiMMWnupAXAXT6pkd4CUCaI1bTGc2n98PYWI6epJxqANTXypi7SCZN1eSIGpSBOAipLC8AAClHONPAVpUhJ/eRj6fgr0neMh9+AxGGMRWCQDhsl4OqzjOROWgD8AA/Vd6HPIYPFatrxo/rKaeZoxxqEHungAiFfl8lAnARUlBcAIIxypoFK9vu186dN23RLQRYLyRtk1XWuTNEjE0C+1AjK9IScnJ60FAprbkq5M96MPnKXcWGDkuyCOBYSCBi01ENMmjvX3gDilxSgo61HtH1FYG3iWGR9EcTtSAEsrQEAPx6CwDKLhRuGfRWQkTegxUpwTPKEE7/l19pKOEId2RPO2tuF+gKmNHeuFQBiktd6QL4g7vSySJ44FtbWajUgBwrAQGqkt+i0pvO9kbtotGBoV7uvG3SIeMONNX1uNcQvZYpG3oCzMiO98WVTOzrO0vquN1e2acr4SUIblverCEhzJy0A/hw6JIxOh6md+UyHc5GsTJxysdHXZ/wAy2LRTov7otsFxqS5kxZA0+CwrgMBQ6v/l4CLW3y4wcX/FQuF0sDk/yuIZNGo1h+0FAkj8txJC0AIsVaAz88B+0K8wPHOmm+pY04qeWYtEJrj4z9rbhTK6DI1ee6kBdDUxEfogCGahsT+OqGO55pZwLethUIuMvnfLs/0EqGHxAFxHwTKmuZV9gv4SZa0AP2q9/EpwIGktMlT4oMasQaOv76llbhmI2I5N7j4cfMv+77Ud+KD9616/7D/pt3iIQAtSwuAMrhtDNuSV5Mn7ewpUI/XC7X4f1dPHwxF3jkLgI4aJ4xNPXoEZLM5gYEqAa+LZagAhJLtXRomG/Gqd6Ua/iW3SZMhNWJCgI6ZAL7FS6Ua8a1vS2X0BIhmLGeGChBMBDahowuIpkE9/E/QThwV63m8kHPn/cDHZLGgfS4tGIG+7gNAnyJr6rF6UCUzOYF+Y3BQZIuA38UyVABSXd3GAF7v0jLTwD9O7X97FYcxtCDQI6Ew5KxYA3TkGIGUPRYfcnJWrgESCIkN4dy74+8Ys1hKl4vTzw1kw8EOXYEUhqECJOUZW5+8Wjhpp05AfOdmqSYJ5UJg5aPgmV0q/TiCmQM/9nzMD6x8BEgwLNWM73gPZAtJkRGmGc8VERlK5bEngEZ2zqhHhfGpdMNtxQOB1Y/iEz4WjBxqwyHgT6F2XrqaF5qjQ4aB71u3gzK+SCjXyeTDZew3TwOoaifJ1BVr3RDcUluIeWJGFFHOiNhFmWh5yd2MkRcv3pk/k/zBELj3MeDDjSFtHL4SH9dBYvd24GMyMM2QGhAKydkVznQ8067Ft4ka0mORFoit+ylYXnhxL4zcGa7a+zJvGkFTBWDFxd7oAKUeDY9BtAR09DgI3PMwgM9vSp9daAT18EFQ/304OTXkvxFZazRpgwRDQPIGJhd1yoRCUIquAtI/P8kzeuJ7/m2/XQvap8fBxnEsdEEtIvv2xY3aMFUAbrRl4YwfEQLreNsqKpOmQM4dq00Xwao/mR5Pfvsrz9uZ9SRdEAYrQ1W1LyRvDJ6MvZspxsIx5fcM4GgKyXSTT+9i657EvSJLM1vT/kQK7EIztD33pO3ko4/6oL/pZbyaAtMFILt3xwiQH5ry0ouwdvYz4B877bMTvXDTQ+LDTeyFp4DHYtsjZSvJxoZ2s3ZMD0GdDqJlJa8zILd23lu+4oLIt3gZ8Gki4Nhm2Y4ZRfy4x2uqoOPd1wEShodrfQ8M/hquqr1NX0CfY7kAsdJZY1VF24+m+yPaBjpiNPhu+TYoYyfZtiUywPd3Ot78M/C1iUjOMI9AswLq9MCWfZZeZcsF4AFGF8y8iVH2NrZt2UH9LlAmTwNf+RKgo8d30ZxoqMcbIL7lLVCPHHTCXKcNjTDt5lDVBxs7CWavthMXKS9ZC4w8bNaxTJ4OHw2e4tnguboEp5QDZOK98vkHNrmO+HCPc098qicCT4e31D6aSjLbtl0AduNEf6QjvwoNzTHr3Kg8LRgO/L8tLRgG/PchyctPbinw+T+3wdcDrDWCC6gm4H+wktvguJGmnTvN2W7hzlB+tNzono9eEJg3PZZxeuONM/v5O9h21JiOeCXAR7E27/zBNTUtdjtL7Bro1I8umjucafEavB8Ll/dRz3zxubkbPzrvRDepE0a4jdDmmlM4LV2M7U8RL1c4yQi9xank8yQ59gZwYxwjpSVDQYF3cAfsWn5/2SCBfTjZWBzeuvesk31y7A3oDCpcXXcm0e4vx/sdiJcLbOsAtczp5PPkOP4GcKMc2bJlSqT5P4/jBtXjeE8RL0VQgcFjuMH2DCaKudEBtOuG2a9s4u7pQtxheA0pBYiXEpzBb9p3crfu3eZm0K4/mblVtVUK88zETryFeEkAA3iDKmyG28nnyXD9DeBOOrGlfFYpLt2fx/spiJkIB3FrZXXu5rrt6QqOpMtRpx82e3YgGtBWAGEPIW0kYibASQbs2XCr5yW+3Z7OgNJegM7OsWVTfa2NoUpGYA3SChHTD4x8Qgh7NpgfXW93S8Fq8H1WgNSAWxaUTCUKWY4zjkqkD0N0E45j0f8IKtuQu63uoJuOjNjOiAJ0BsrfimhTeD4OT2VYjIVI54s5Ba92QMVFIS6ioAqotjWU17qjr5723jqRUQXoHmBz6fQBHsV/DQVWiDMTPkwVATB8Q0geEBiARcpL6uBPEWxfQF4zJvs0Ig4tcEQDciSRaNufV70feUnJ7CmbgWwGshnIZiCbgWwGshnIZiCbgWwGshno8wz8F9r+2JPmRrhQAAAAAElFTkSuQmCC;" parent="1" vertex="1">
                    <mxGeometry x="420" y="1000" width="20" height="20" as="geometry"/>
                </mxCell>
                <mxCell id="225" value="no power" style="text;html=1;align=left;verticalAlign=middle;resizable=0;points=[];autosize=1;strokeColor=none;fillColor=none;" parent="1" vertex="1">
                    <mxGeometry x="440" y="1000" width="60" height="20" as="geometry"/>
                </mxCell>
                <mxCell id="230" value="C ^= Checksum:&lt;br&gt;C(0110) = 2&lt;br&gt;C(1111) = 4&lt;br&gt;C(1001) = 2" style="whiteSpace=wrap;html=1;strokeColor=none;" parent="1" vertex="1">
                    <mxGeometry x="1620" y="380" width="120" height="60" as="geometry"/>
                </mxCell>
                <mxCell id="231" value="" style="endArrow=none;dashed=1;html=1;rounded=1;labelBackgroundColor=default;fontFamily=Helvetica;fontSize=11;fontColor=default;strokeColor=#6c8ebf;fillColor=#dae8fc;shape=connector;elbow=vertical;" edge="1" parent="1">
                    <mxGeometry width="50" height="50" relative="1" as="geometry">
                        <mxPoint x="1860" y="410" as="sourcePoint"/>
                        <mxPoint x="2020" y="410" as="targetPoint"/>
                    </mxGeometry>
                </mxCell>
                <mxCell id="232" style="shape=connector;rounded=1;html=1;exitX=1;exitY=0.5;exitDx=0;exitDy=0;entryX=0;entryY=0.5;entryDx=0;entryDy=0;labelBackgroundColor=default;fontFamily=Helvetica;fontSize=11;fontColor=default;endArrow=classic;fillColor=#dae8fc;strokeColor=#6c8ebf;" edge="1" parent="1" source="233" target="237">
                    <mxGeometry relative="1" as="geometry"/>
                </mxCell>
                <mxCell id="233" value="0x7E" style="rounded=0;whiteSpace=wrap;html=1;" vertex="1" parent="1">
                    <mxGeometry x="1880" y="420" width="40" height="20" as="geometry"/>
                </mxCell>
                <mxCell id="234" value="C&amp;gt;2" style="rounded=0;whiteSpace=wrap;html=1;" vertex="1" parent="1">
                    <mxGeometry x="1880" y="440" width="40" height="20" as="geometry"/>
                </mxCell>
                <mxCell id="235" style="shape=connector;rounded=1;html=1;exitX=0;exitY=0.5;exitDx=0;exitDy=0;labelBackgroundColor=default;fontFamily=Helvetica;fontSize=11;fontColor=default;endArrow=classic;strokeColor=#6c8ebf;fillColor=#dae8fc;entryX=1;entryY=0.5;entryDx=0;entryDy=0;" edge="1" parent="1" source="236" target="234">
                    <mxGeometry relative="1" as="geometry"/>
                </mxCell>
                <mxCell id="236" value="0x7E" style="rounded=0;whiteSpace=wrap;html=1;" vertex="1" parent="1">
                    <mxGeometry x="1960" y="420" width="40" height="20" as="geometry"/>
                </mxCell>
                <mxCell id="237" value="C&amp;gt;2" style="rounded=0;whiteSpace=wrap;html=1;" vertex="1" parent="1">
                    <mxGeometry x="1960" y="440" width="40" height="20" as="geometry"/>
                </mxCell>
                <mxCell id="238" value="clientready persists, finishing" style="text;html=1;strokeColor=none;fillColor=none;align=right;verticalAlign=middle;whiteSpace=wrap;rounded=0;fontFamily=Helvetica;fontSize=11;fontColor=default;" vertex="1" parent="1">
                    <mxGeometry x="1760" y="390" width="100" height="40" as="geometry"/>
                </mxCell>
                <mxCell id="239" value="master acknowledges, finishing" style="text;html=1;strokeColor=none;fillColor=none;align=left;verticalAlign=middle;whiteSpace=wrap;rounded=0;fontFamily=Helvetica;fontSize=11;fontColor=default;" vertex="1" parent="1">
                    <mxGeometry x="2020" y="390" width="120" height="40" as="geometry"/>
                </mxCell>
            </root>
        </mxGraphModel>
    </diagram>
</mxfile>